SplineFontDB: 3.0
FontName: Geneva-Thin-Italic
FullName: Geneva Thin Italic
FamilyName: Geneva
Weight: Thin
Copyright: Copyright 2011 Google Inc. All Rights Reserved.
Version: 2.001153; 2014
DefaultBaseFilename: Geneva-100-Italic
ItalicAngle: -12
UnderlinePosition: -200
UnderlineWidth: 100
Ascent: 1536
Descent: 512
InvalidEm: 0
sfntRevision: 0x00020000
LayerCount: 2
Layer: 0 1 "Back" 1
Layer: 1 1 "Fore" 0
XUID: [1021 805 -1179658985 5450592]
FSType: 0
OS2Version: 3
OS2_WeightWidthSlopeOnly: 0
OS2_UseTypoMetrics: 1
CreationTime: 1221222574
ModificationTime: 1431280280
PfmFamily: 33
TTFWeight: 250
TTFWidth: 5
LineGap: 0
VLineGap: 0
Panose: 2 0 0 0 0 0 0 0 0 0
OS2TypoAscent: 1536
OS2TypoAOffset: 0
OS2TypoDescent: -512
OS2TypoDOffset: 0
OS2TypoLinegap: 102
OS2WinAscent: 1946
OS2WinAOffset: 0
OS2WinDescent: 512
OS2WinDOffset: 0
HheadAscent: 1900
HheadAOffset: 0
HheadDescent: -500
HheadDOffset: 0
OS2SubXSize: 1434
OS2SubYSize: 1331
OS2SubXOff: 0
OS2SubYOff: 287
OS2SupXSize: 1434
OS2SupYSize: 1331
OS2SupXOff: 0
OS2SupYOff: 977
OS2StrikeYSize: 102
OS2StrikeYPos: 512
OS2CapHeight: 1456
OS2XHeight: 1082
OS2Vendor: 'GOOG'
OS2CodePages: 2000019f.00000000
OS2UnicodeRanges: e0000aff.5000217f.00000021.00000000
Lookup: 1 0 0 "'c2sc' Capitals to Small Capitals in Latin lookup 0" { "'c2sc' Capitals to Small Capitals in Latin lookup 0 subtable"  } ['c2sc' ('latn' <'AZE ' 'CRT ' 'MOL ' 'NAV ' 'ROM ' 'TUR ' 'dflt' > ) ]
Lookup: 1 0 0 "'c2sc' Capitals to Small Capitals lookup 1" { "'c2sc' Capitals to Small Capitals lookup 1 subtable"  } ['c2sc' ('DFLT' <'dflt' > ) ]
Lookup: 1 0 0 "'c2sc' Capitals to Small Capitals in Greek lookup 2" { "'c2sc' Capitals to Small Capitals in Greek lookup 2 subtable"  } ['c2sc' ('grek' <'dflt' > ) ]
Lookup: 1 0 0 "'c2sc' Capitals to Small Capitals in Cyrillic lookup 3" { "'c2sc' Capitals to Small Capitals in Cyrillic lookup 3 subtable"  } ['c2sc' ('cyrl' <'dflt' > ) ]

StartChar: .notdef
Encoding: 1114112 -1 0
Width: 918
Flags: W
LayerCount: 2
Back
Fore
SplineSet
808 0 m 1,0,-1
 100 0 l 1,1,-1
 100 1456 l 1,2,-1
 808 1456 l 1,3,-1
 808 0 l 1,0,-1
754 84 m 1,4,-1
 754 1371 l 1,5,-1
 480 728 l 1,6,-1
 754 84 l 1,4,-1
154 1359 m 1,7,-1
 154 96 l 1,8,-1
 422 728 l 1,9,-1
 154 1359 l 1,7,-1
194 54 m 1,10,-1
 709 54 l 1,11,-1
 451 660 l 1,12,-1
 194 54 l 1,10,-1
451 796 m 1,13,-1
 709 1402 l 1,14,-1
 194 1402 l 1,15,-1
 451 796 l 1,13,-1
EndSplineSet
EndChar

StartChar: exclam
Encoding: 33 33 5
Width: 395
Flags: W
LayerCount: 2
Back
Fore
SplineSet
182 401 m 1,0,-1
 128 401 l 1,1,-1
 309 1456 l 1,2,-1
 363 1456 l 1,3,-1
 182 401 l 1,0,-1
47 51 m 0,4,5
 50 71 50 71 68.5 88 c 128,-1,6
 87 105 87 105 108 105 c 0,7,8
 131 105 131 105 145 87 c 128,-1,9
 159 69 159 69 156 47 c 0,10,11
 153 27 153 27 134 10.5 c 128,-1,12
 115 -6 115 -6 94 -6 c 0,13,14
 71 -5 71 -5 57 12 c 128,-1,15
 43 29 43 29 47 51 c 0,4,5
EndSplineSet
EndChar

StartChar: quotedbl
Encoding: 34 34 6
Width: 515
Flags: W
LayerCount: 2
Back
Fore
SplineSet
328 1388 m 1,0,-1
 277 1122 l 1,1,-1
 227 1122 l 1,2,-1
 274 1395 l 1,3,-1
 295 1536 l 1,4,-1
 350 1536 l 1,5,-1
 328 1388 l 1,0,-1
523 1388 m 1,6,-1
 472 1122 l 1,7,-1
 422 1122 l 1,8,9
 469 1395 469 1395 491 1536 c 1,10,-1
 545 1536 l 1,11,-1
 523 1388 l 1,6,-1
EndSplineSet
EndChar

StartChar: numbersign
Encoding: 35 35 7
Width: 1097
Flags: W
LayerCount: 2
Back
Fore
SplineSet
686 410 m 1,0,-1
 336 410 l 1,1,-1
 193 0 l 1,2,-1
 137 0 l 1,3,-1
 278 410 l 1,4,-1
 17 410 l 1,5,-1
 24 462 l 1,6,-1
 296 462 l 1,7,-1
 480 986 l 1,8,-1
 191 986 l 1,9,-1
 198 1040 l 1,10,-1
 498 1040 l 1,11,-1
 643 1455 l 1,12,-1
 700 1455 l 1,13,-1
 555 1040 l 1,14,-1
 906 1040 l 1,15,-1
 1052 1455 l 1,16,-1
 1108 1455 l 1,17,-1
 964 1040 l 1,18,-1
 1208 1040 l 1,19,-1
 1201 986 l 1,20,-1
 945 986 l 1,21,-1
 761 462 l 1,22,-1
 1035 462 l 1,23,-1
 1028 410 l 1,24,-1
 743 410 l 1,25,-1
 599 0 l 1,26,-1
 543 0 l 1,27,-1
 686 410 l 1,0,-1
354 462 m 1,28,-1
 703 462 l 1,29,-1
 887 986 l 1,30,-1
 537 986 l 1,31,-1
 354 462 l 1,28,-1
EndSplineSet
EndChar

StartChar: dollar
Encoding: 36 36 8
Width: 1097
Flags: W
LayerCount: 2
Back
Fore
SplineSet
890 344 m 0,0,1
 922 517 922 517 758 623 c 0,2,3
 702 659 702 659 584 705 c 128,-1,4
 466 751 466 751 405 790 c 0,5,6
 222 907 222 907 254 1110 c 0,7,8
 276 1263 276 1263 391.5 1363 c 128,-1,9
 507 1463 507 1463 683 1476 c 1,10,-1
 714 1663 l 1,11,-1
 769 1663 l 1,12,-1
 738 1476 l 1,13,14
 909 1461 909 1461 989.5 1347 c 128,-1,15
 1070 1233 1070 1233 1046 1047 c 1,16,-1
 993 1047 l 1,17,18
 1015 1216 1015 1216 937 1320 c 128,-1,19
 859 1424 859 1424 707 1424 c 0,20,21
 558 1424 558 1424 445.5 1337.5 c 128,-1,22
 333 1251 333 1251 308 1112 c 0,23,24
 293 1026 293 1026 319 963.5 c 128,-1,25
 345 901 345 901 408 853 c 128,-1,26
 471 805 471 805 608.5 753.5 c 128,-1,27
 746 702 746 702 815 651 c 0,28,29
 973 535 973 535 945 346 c 0,30,31
 922 190 922 190 806.5 92.5 c 128,-1,32
 691 -5 691 -5 520 -20 c 1,33,-1
 489 -208 l 1,34,-1
 434 -208 l 1,35,-1
 465 -21 l 1,36,37
 274 -11 274 -11 174.5 104 c 128,-1,38
 75 219 75 219 99 409 c 1,39,-1
 152 409 l 1,40,41
 130 238 130 238 222 134 c 128,-1,42
 314 30 314 30 487 32 c 0,43,44
 638 34 638 34 752 122.5 c 128,-1,45
 866 211 866 211 890 344 c 0,0,1
EndSplineSet
Substitution2: "'c2sc' Capitals to Small Capitals in Cyrillic lookup 3 subtable" dollar.c2sc
Substitution2: "'c2sc' Capitals to Small Capitals in Greek lookup 2 subtable" dollar.c2sc
Substitution2: "'c2sc' Capitals to Small Capitals lookup 1 subtable" dollar.c2sc
Substitution2: "'c2sc' Capitals to Small Capitals in Latin lookup 0 subtable" dollar.c2sc
Position2: "'cpsp' Capital Spacing in Cyrillic lookup 3 subtable" dx=36 dy=0 dh=72 dv=0
Position2: "'cpsp' Capital Spacing in Greek lookup 2 subtable" dx=36 dy=0 dh=72 dv=0
Position2: "'cpsp' Capital Spacing lookup 1 subtable" dx=36 dy=0 dh=72 dv=0
Position2: "'cpsp' Capital Spacing in Latin lookup 0 subtable" dx=36 dy=0 dh=72 dv=0
EndChar

StartChar: percent
Encoding: 37 37 9
Width: 1491
Flags: W
LayerCount: 2
Back
Fore
SplineSet
532 1477 m 0,0,1
 644 1477 644 1477 705 1388.5 c 128,-1,2
 766 1300 766 1300 748 1176 c 2,3,-1
 737 1110 l 2,4,5
 714 976 714 976 627.5 888 c 128,-1,6
 541 800 541 800 426 800 c 0,7,8
 315 800 315 800 252 885.5 c 128,-1,9
 189 971 189 971 207 1099 c 2,10,-1
 217 1163 l 2,11,12
 238 1297 238 1297 327.5 1387 c 128,-1,13
 417 1477 417 1477 532 1477 c 0,0,1
259 1011 m 0,14,15
 267 940 267 940 311.5 897.5 c 128,-1,16
 356 855 356 855 426 855 c 0,17,18
 516 855 516 855 587 923.5 c 128,-1,19
 658 992 658 992 680 1104 c 2,20,-1
 694 1176 l 2,21,22
 701 1220 701 1220 696 1264 c 0,23,24
 687 1338 687 1338 644 1380 c 128,-1,25
 601 1422 601 1422 532 1422 c 0,26,27
 440 1422 440 1422 369 1352.5 c 128,-1,28
 298 1283 298 1283 275 1176 c 2,29,-1
 261 1099 l 2,30,31
 253 1054 253 1054 259 1011 c 0,14,15
1122 657 m 0,32,33
 1235 657 1235 657 1296 569.5 c 128,-1,34
 1357 482 1357 482 1339 357 c 2,35,-1
 1327 279 l 1,36,37
 1302 147 1302 147 1215 63 c 128,-1,38
 1128 -21 1128 -21 1016 -21 c 0,39,40
 902 -21 902 -21 841 67.5 c 128,-1,41
 780 156 780 156 798 279 c 2,42,-1
 809 346 l 2,43,44
 831 478 831 478 918.5 567.5 c 128,-1,45
 1006 657 1006 657 1122 657 c 0,32,33
852 279 m 2,46,47
 845 234 845 234 851 191 c 0,48,49
 859 120 859 120 903 77 c 128,-1,50
 947 34 947 34 1016 34 c 0,51,52
 1109 34 1109 34 1178.5 102.5 c 128,-1,53
 1248 171 1248 171 1271 279 c 2,54,-1
 1285 357 l 2,55,56
 1292 402 1292 402 1288 446 c 0,57,58
 1280 519 1280 519 1236 560.5 c 128,-1,59
 1192 602 1192 602 1122 602 c 0,60,61
 1028 602 1028 602 958 533.5 c 128,-1,62
 888 465 888 465 865 347 c 2,63,-1
 852 279 l 2,46,47
341 132 m 1,64,-1
 299 164 l 1,65,-1
 1184 1299 l 1,66,-1
 1226 1267 l 1,67,-1
 341 132 l 1,64,-1
EndSplineSet
EndChar

StartChar: ampersand
Encoding: 38 38 10
Width: 1220
Flags: W
LayerCount: 2
Back
Fore
SplineSet
452 803 m 1,0,1
 397 896 397 896 375 953.5 c 128,-1,2
 353 1011 353 1011 346 1070 c 0,3,4
 334 1167 334 1167 376 1265 c 128,-1,5
 418 1363 418 1363 502 1420 c 128,-1,6
 586 1477 586 1477 689 1477 c 0,7,8
 803 1477 803 1477 871 1401 c 128,-1,9
 939 1325 939 1325 921 1213 c 0,10,11
 900 1069 900 1069 692 918 c 2,12,-1
 521 794 l 1,13,-1
 894 258 l 1,14,15
 1027 417 1027 417 1066 632 c 1,16,-1
 1121 632 l 1,17,18
 1080 387 1080 387 927 215 c 1,19,-1
 1079 0 l 1,20,-1
 1015 0 l 1,21,-1
 892 175 l 1,22,23
 668 -20 668 -20 451 -20 c 0,24,25
 269 -20 269 -20 164 83 c 128,-1,26
 59 186 59 186 83 352 c 0,27,28
 98 453 98 453 170 551 c 128,-1,29
 242 649 242 649 393 762 c 1,30,-1
 452 803 l 1,0,1
451 34 m 0,31,32
 662 34 662 34 860 218 c 1,33,-1
 481 763 l 1,34,-1
 424 723 l 1,35,36
 285 618 285 618 218.5 529.5 c 128,-1,37
 152 441 152 441 137 352 c 0,38,39
 122 260 122 260 157.5 188 c 128,-1,40
 193 116 193 116 272 75 c 128,-1,41
 351 34 351 34 451 34 c 0,31,32
400 1080 m 0,42,43
 410 966 410 966 492 835 c 1,44,-1
 665 959 l 2,45,46
 840 1085 840 1085 865 1213 c 0,47,48
 881 1304 881 1304 828.5 1363.5 c 128,-1,49
 776 1423 776 1423 689 1423 c 0,50,51
 559 1423 559 1423 473.5 1320 c 128,-1,52
 388 1217 388 1217 400 1080 c 0,42,43
EndSplineSet
EndChar

StartChar: quotesingle
Encoding: 39 39 11
Width: 340
Flags: W
LayerCount: 2
Back
Fore
SplineSet
314 1362 m 1,0,-1
 264 1122 l 1,1,-1
 213 1122 l 1,2,-1
 260 1370 l 1,3,-1
 286 1536 l 1,4,-1
 341 1536 l 1,5,-1
 314 1362 l 1,0,-1
EndSplineSet
EndChar

StartChar: parenleft
Encoding: 40 40 12
Width: 599
Flags: W
LayerCount: 2
Back
Fore
SplineSet
708 1623 m 1,0,-1
 721 1578 l 1,1,2
 599 1499 599 1499 494 1354.5 c 128,-1,3
 389 1210 389 1210 312 1008.5 c 128,-1,4
 235 807 235 807 200 590 c 1,5,-1
 195 564 l 1,6,7
 169 390 169 390 172 222 c 0,8,9
 174 -6 174 -6 235.5 -174 c 128,-1,10
 297 -342 297 -342 409 -428 c 1,11,-1
 385 -469 l 1,12,13
 260 -375 260 -375 192.5 -205 c 128,-1,14
 125 -35 125 -35 119 204 c 0,15,16
 112 443 112 443 166.5 701.5 c 128,-1,17
 221 960 221 960 327 1176 c 0,18,19
 479 1486 479 1486 708 1623 c 1,0,-1
EndSplineSet
EndChar

StartChar: parenright
Encoding: 41 41 13
Width: 614
Flags: W
LayerCount: 2
Back
Fore
SplineSet
-120 -470 m 1,0,-1
 -133 -425 l 1,1,2
 60 -298 60 -298 197.5 -30 c 128,-1,3
 335 238 335 238 388 564 c 1,4,-1
 393 590 l 1,5,6
 419 764 419 764 417 932 c 0,7,8
 412 1168 412 1168 351 1331.5 c 128,-1,9
 290 1495 290 1495 179 1581 c 1,10,-1
 203 1622 l 1,11,12
 323 1532 323 1532 392 1359 c 128,-1,13
 461 1186 461 1186 468 947 c 0,14,15
 477 664 477 664 401.5 362.5 c 128,-1,16
 326 61 326 61 191.5 -152.5 c 128,-1,17
 57 -366 57 -366 -120 -470 c 1,0,-1
EndSplineSet
EndChar

StartChar: asterisk
Encoding: 42 42 14
Width: 840
Flags: W
LayerCount: 2
Back
Fore
SplineSet
452 1019 m 1,0,-1
 122 1142 l 1,1,-1
 147 1194 l 1,2,-1
 477 1061 l 1,3,-1
 546 1456 l 1,4,-1
 602 1456 l 1,5,-1
 527 1064 l 1,6,-1
 891 1204 l 1,7,-1
 904 1150 l 1,8,-1
 529 1012 l 1,9,-1
 717 695 l 1,10,-1
 668 664 l 1,11,-1
 489 985 l 1,12,-1
 212 662 l 1,13,-1
 169 695 l 1,14,-1
 452 1019 l 1,0,-1
EndSplineSet
EndChar

StartChar: plus
Encoding: 43 43 15
Width: 1126
Flags: W
LayerCount: 2
Back
Fore
SplineSet
591 702 m 1,0,-1
 1057 702 l 1,1,-1
 1049 649 l 1,2,-1
 582 649 l 1,3,-1
 495 146 l 1,4,-1
 441 146 l 1,5,-1
 527 649 l 1,6,-1
 80 649 l 1,7,-1
 87 702 l 1,8,-1
 536 702 l 1,9,-1
 623 1206 l 1,10,-1
 678 1206 l 1,11,-1
 591 702 l 1,0,-1
EndSplineSet
EndChar

StartChar: comma
Encoding: 44 44 16
Width: 382
Flags: W
LayerCount: 2
Back
Fore
SplineSet
-20 -255 m 1,0,-1
 -54 -221 l 1,1,2
 53 -101 53 -101 75 25 c 2,3,-1
 98 159 l 1,4,-1
 152 159 l 1,5,-1
 131 33 l 2,6,7
 102 -139 102 -139 -20 -255 c 1,0,-1
EndSplineSet
EndChar

StartChar: hyphen
Encoding: 45 45 17
Width: 599
Flags: W
LayerCount: 2
Back
Fore
SplineSet
524 639 m 1,0,-1
 66 639 l 1,1,-1
 74 693 l 1,2,-1
 531 693 l 1,3,-1
 524 639 l 1,0,-1
EndSplineSet
EndChar

StartChar: period
Encoding: 46 46 18
Width: 436
Flags: W
LayerCount: 2
Back
Fore
SplineSet
47 51 m 0,0,1
 50 71 50 71 68.5 88 c 128,-1,2
 87 105 87 105 108 105 c 0,3,4
 131 105 131 105 145 87 c 128,-1,5
 159 69 159 69 156 47 c 0,6,7
 153 27 153 27 134 10.5 c 128,-1,8
 115 -6 115 -6 94 -6 c 0,9,10
 71 -5 71 -5 57 12 c 128,-1,11
 43 29 43 29 47 51 c 0,0,1
EndSplineSet
EndChar

StartChar: slash
Encoding: 47 47 19
Width: 769
Flags: W
LayerCount: 2
Back
Fore
SplineSet
-25 -124 m 1,0,-1
 -85 -124 l 1,1,-1
 777 1455 l 1,2,-1
 837 1455 l 1,3,-1
 -25 -124 l 1,0,-1
EndSplineSet
Substitution2: "'frac' Diagonal Fractions lookup 63 subtable" fraction
EndChar

StartChar: zero
Encoding: 48 48 20
Width: 1097
Flags: W
LayerCount: 2
Back
Fore
SplineSet
446 -20 m 0,0,1
 332 -20 332 -20 254 37 c 128,-1,2
 176 94 176 94 139.5 205.5 c 128,-1,3
 103 317 103 317 109 460 c 1,4,-1
 117 556 l 1,5,-1
 165 840 l 2,6,7
 216 1137 216 1137 352 1307 c 128,-1,8
 488 1477 488 1477 693 1477 c 0,9,10
 809 1477 809 1477 887 1419.5 c 128,-1,11
 965 1362 965 1362 1001 1249 c 128,-1,12
 1037 1136 1037 1136 1030 996 c 1,13,-1
 1020 888 l 1,14,-1
 971 604 l 2,15,16
 919 309 919 309 783 144.5 c 128,-1,17
 647 -20 647 -20 446 -20 c 0,0,1
976 1106 m 0,18,19
 963 1264 963 1264 891 1343.5 c 128,-1,20
 819 1423 819 1423 694 1423 c 0,21,22
 514 1423 514 1423 390.5 1269.5 c 128,-1,23
 267 1116 267 1116 218 834 c 2,24,-1
 172 564 l 1,25,-1
 164 479 l 2,26,27
 154 355 154 355 181 250 c 128,-1,28
 208 145 208 145 275 89.5 c 128,-1,29
 342 34 342 34 445 34 c 0,30,31
 624 34 624 34 746.5 185.5 c 128,-1,32
 869 337 869 337 917 607 c 2,33,-1
 959 845 l 2,34,35
 985 992 985 992 976 1106 c 0,18,19
EndSplineSet
Substitution2: "Single Substitution lookup 74 subtable" zero.dnom
Substitution2: "'numr' Numerators in Cyrillic lookup 73 subtable" zero.frac
Substitution2: "'numr' Numerators in Greek lookup 72 subtable" zero.frac
Substitution2: "'numr' Numerators lookup 71 subtable" zero.frac
Substitution2: "'numr' Numerators in Latin lookup 70 subtable" zero.frac
Substitution2: "'dnom' Denominators in Cyrillic lookup 69 subtable" zero.dnom
Substitution2: "'dnom' Denominators in Greek lookup 68 subtable" zero.dnom
Substitution2: "'dnom' Denominators lookup 67 subtable" zero.dnom
Substitution2: "'dnom' Denominators in Latin lookup 66 subtable" zero.dnom
Substitution2: "'frac' Diagonal Fractions lookup 65 subtable" zero.frac
Substitution2: "'pnum' Proportional Numbers in Cyrillic lookup 58 subtable" zero.pnum
Substitution2: "'pnum' Proportional Numbers in Greek lookup 57 subtable" zero.pnum
Substitution2: "'pnum' Proportional Numbers lookup 56 subtable" zero.pnum
Substitution2: "'pnum' Proportional Numbers in Latin lookup 55 subtable" zero.pnum
Substitution2: "'onum' Oldstyle Figures in Cyrillic lookup 50 subtable" zero.oldstyle
Substitution2: "'onum' Oldstyle Figures in Greek lookup 49 subtable" zero.oldstyle
Substitution2: "'onum' Oldstyle Figures lookup 48 subtable" zero.oldstyle
Substitution2: "'onum' Oldstyle Figures in Latin lookup 47 subtable" zero.oldstyle
EndChar

StartChar: one
Encoding: 49 49 21
Width: 1097
Flags: W
LayerCount: 2
Back
Fore
SplineSet
537 0 m 1,0,-1
 483 0 l 1,1,-1
 723 1385 l 1,2,-1
 292 1232 l 1,3,-1
 300 1290 l 1,4,-1
 774 1460 l 1,5,-1
 787 1460 l 1,6,-1
 537 0 l 1,0,-1
EndSplineSet
Substitution2: "Single Substitution lookup 74 subtable" one.dnom
Substitution2: "'numr' Numerators in Cyrillic lookup 73 subtable" uni00B9
Substitution2: "'numr' Numerators in Greek lookup 72 subtable" uni00B9
Substitution2: "'numr' Numerators lookup 71 subtable" uni00B9
Substitution2: "'numr' Numerators in Latin lookup 70 subtable" uni00B9
Substitution2: "'dnom' Denominators in Cyrillic lookup 69 subtable" one.dnom
Substitution2: "'dnom' Denominators in Greek lookup 68 subtable" one.dnom
Substitution2: "'dnom' Denominators lookup 67 subtable" one.dnom
Substitution2: "'dnom' Denominators in Latin lookup 66 subtable" one.dnom
Substitution2: "'frac' Diagonal Fractions lookup 65 subtable" uni00B9
Substitution2: "'pnum' Proportional Numbers in Cyrillic lookup 58 subtable" one.pnum
Substitution2: "'pnum' Proportional Numbers in Greek lookup 57 subtable" one.pnum
Substitution2: "'pnum' Proportional Numbers lookup 56 subtable" one.pnum
Substitution2: "'pnum' Proportional Numbers in Latin lookup 55 subtable" one.pnum
Substitution2: "'onum' Oldstyle Figures in Cyrillic lookup 50 subtable" one.oldstyle
Substitution2: "'onum' Oldstyle Figures in Greek lookup 49 subtable" one.oldstyle
Substitution2: "'onum' Oldstyle Figures lookup 48 subtable" one.oldstyle
Substitution2: "'onum' Oldstyle Figures in Latin lookup 47 subtable" one.oldstyle
EndChar

StartChar: two
Encoding: 50 50 22
Width: 1097
Flags: W
LayerCount: 2
Back
Fore
SplineSet
901 0 m 1,0,-1
 56 0 l 1,1,-1
 62 54 l 1,2,-1
 715 713 l 2,3,4
 911 915 911 915 939 1085 c 0,5,6
 965 1233 965 1233 887 1327.5 c 128,-1,7
 809 1422 809 1422 653 1422 c 0,8,9
 501 1422 501 1422 385 1314.5 c 128,-1,10
 269 1207 269 1207 237 1045 c 1,11,-1
 183 1045 l 1,12,13
 215 1231 215 1231 347.5 1353.5 c 128,-1,14
 480 1476 480 1476 652 1476 c 0,15,16
 830 1476 830 1476 925.5 1368.5 c 128,-1,17
 1021 1261 1021 1261 995 1085 c 0,18,19
 969 906 969 906 763 689 c 1,20,-1
 136 54 l 1,21,-1
 908 54 l 1,22,-1
 901 0 l 1,0,-1
EndSplineSet
Substitution2: "Single Substitution lookup 74 subtable" two.dnom
Substitution2: "'numr' Numerators in Cyrillic lookup 73 subtable" uni00B2
Substitution2: "'numr' Numerators in Greek lookup 72 subtable" uni00B2
Substitution2: "'numr' Numerators lookup 71 subtable" uni00B2
Substitution2: "'numr' Numerators in Latin lookup 70 subtable" uni00B2
Substitution2: "'dnom' Denominators in Cyrillic lookup 69 subtable" two.dnom
Substitution2: "'dnom' Denominators in Greek lookup 68 subtable" two.dnom
Substitution2: "'dnom' Denominators lookup 67 subtable" two.dnom
Substitution2: "'dnom' Denominators in Latin lookup 66 subtable" two.dnom
Substitution2: "'frac' Diagonal Fractions lookup 65 subtable" uni00B2
Substitution2: "'pnum' Proportional Numbers in Cyrillic lookup 58 subtable" two.pnum
Substitution2: "'pnum' Proportional Numbers in Greek lookup 57 subtable" two.pnum
Substitution2: "'pnum' Proportional Numbers lookup 56 subtable" two.pnum
Substitution2: "'pnum' Proportional Numbers in Latin lookup 55 subtable" two.pnum
Substitution2: "'onum' Oldstyle Figures in Cyrillic lookup 50 subtable" two.oldstyle
Substitution2: "'onum' Oldstyle Figures in Greek lookup 49 subtable" two.oldstyle
Substitution2: "'onum' Oldstyle Figures lookup 48 subtable" two.oldstyle
Substitution2: "'onum' Oldstyle Figures in Latin lookup 47 subtable" two.oldstyle
EndChar

StartChar: three
Encoding: 51 51 23
Width: 1097
Flags: W
LayerCount: 2
Back
Fore
SplineSet
433 770 m 1,0,-1
 522 770 l 2,1,2
 695 770 695 770 820 855.5 c 128,-1,3
 945 941 945 941 971 1085 c 0,4,5
 997 1233 997 1233 916 1327.5 c 128,-1,6
 835 1422 835 1422 683 1422 c 0,7,8
 527 1422 527 1422 410.5 1326.5 c 128,-1,9
 294 1231 294 1231 261 1074 c 1,10,-1
 207 1075 l 1,11,12
 238 1253 238 1253 372 1364.5 c 128,-1,13
 506 1476 506 1476 683 1476 c 0,14,15
 857 1476 857 1476 954 1365.5 c 128,-1,16
 1051 1255 1051 1255 1025 1081 c 0,17,18
 1009 968 1009 968 926.5 879 c 128,-1,19
 844 790 844 790 708 744 c 1,20,21
 837 708 837 708 902.5 612.5 c 128,-1,22
 968 517 968 517 948 386 c 0,23,24
 921 207 921 207 787 93.5 c 128,-1,25
 653 -20 653 -20 467 -20 c 0,26,27
 344 -20 344 -20 247.5 34 c 128,-1,28
 151 88 151 88 104 186.5 c 128,-1,29
 57 285 57 285 71 405 c 1,30,-1
 125 405 l 1,31,32
 104 247 104 247 202 140.5 c 128,-1,33
 300 34 300 34 466 34 c 0,34,35
 633 34 633 34 749.5 129 c 128,-1,36
 866 224 866 224 893 382 c 0,37,38
 919 540 919 540 820.5 627 c 128,-1,39
 722 714 722 714 519 714 c 2,40,-1
 426 714 l 1,41,-1
 433 770 l 1,0,-1
EndSplineSet
Substitution2: "Single Substitution lookup 74 subtable" three.dnom
Substitution2: "'numr' Numerators in Cyrillic lookup 73 subtable" uni00B3
Substitution2: "'numr' Numerators in Greek lookup 72 subtable" uni00B3
Substitution2: "'numr' Numerators lookup 71 subtable" uni00B3
Substitution2: "'numr' Numerators in Latin lookup 70 subtable" uni00B3
Substitution2: "'dnom' Denominators in Cyrillic lookup 69 subtable" three.dnom
Substitution2: "'dnom' Denominators in Greek lookup 68 subtable" three.dnom
Substitution2: "'dnom' Denominators lookup 67 subtable" three.dnom
Substitution2: "'dnom' Denominators in Latin lookup 66 subtable" three.dnom
Substitution2: "'frac' Diagonal Fractions lookup 65 subtable" uni00B3
Substitution2: "'pnum' Proportional Numbers in Cyrillic lookup 58 subtable" three.pnum
Substitution2: "'pnum' Proportional Numbers in Greek lookup 57 subtable" three.pnum
Substitution2: "'pnum' Proportional Numbers lookup 56 subtable" three.pnum
Substitution2: "'pnum' Proportional Numbers in Latin lookup 55 subtable" three.pnum
Substitution2: "'onum' Oldstyle Figures in Cyrillic lookup 50 subtable" three.oldstyle
Substitution2: "'onum' Oldstyle Figures in Greek lookup 49 subtable" three.oldstyle
Substitution2: "'onum' Oldstyle Figures lookup 48 subtable" three.oldstyle
Substitution2: "'onum' Oldstyle Figures in Latin lookup 47 subtable" three.oldstyle
EndChar

StartChar: four
Encoding: 52 52 24
Width: 1097
Flags: W
LayerCount: 2
Back
Fore
SplineSet
792 451 m 1,0,-1
 1035 451 l 1,1,-1
 1028 397 l 1,2,-1
 783 397 l 1,3,-1
 714 0 l 1,4,-1
 661 0 l 1,5,-1
 729 397 l 1,6,-1
 45 398 l 1,7,-1
 49 427 l 1,8,-1
 899 1455 l 1,9,-1
 965 1456 l 1,10,-1
 792 451 l 1,0,-1
139 451 m 1,11,-1
 738 451 l 1,12,-1
 900 1383 l 1,13,-1
 798 1250 l 1,14,-1
 139 451 l 1,11,-1
EndSplineSet
Substitution2: "Single Substitution lookup 74 subtable" four.dnom
Substitution2: "'numr' Numerators in Cyrillic lookup 73 subtable" four.frac
Substitution2: "'numr' Numerators in Greek lookup 72 subtable" four.frac
Substitution2: "'numr' Numerators lookup 71 subtable" four.frac
Substitution2: "'numr' Numerators in Latin lookup 70 subtable" four.frac
Substitution2: "'dnom' Denominators in Cyrillic lookup 69 subtable" four.dnom
Substitution2: "'dnom' Denominators in Greek lookup 68 subtable" four.dnom
Substitution2: "'dnom' Denominators lookup 67 subtable" four.dnom
Substitution2: "'dnom' Denominators in Latin lookup 66 subtable" four.dnom
Substitution2: "'frac' Diagonal Fractions lookup 65 subtable" four.frac
Substitution2: "'pnum' Proportional Numbers in Cyrillic lookup 58 subtable" four.pnum
Substitution2: "'pnum' Proportional Numbers in Greek lookup 57 subtable" four.pnum
Substitution2: "'pnum' Proportional Numbers lookup 56 subtable" four.pnum
Substitution2: "'pnum' Proportional Numbers in Latin lookup 55 subtable" four.pnum
Substitution2: "'onum' Oldstyle Figures in Cyrillic lookup 50 subtable" four.oldstyle
Substitution2: "'onum' Oldstyle Figures in Greek lookup 49 subtable" four.oldstyle
Substitution2: "'onum' Oldstyle Figures lookup 48 subtable" four.oldstyle
Substitution2: "'onum' Oldstyle Figures in Latin lookup 47 subtable" four.oldstyle
EndChar

StartChar: five
Encoding: 53 53 25
Width: 1097
Flags: W
LayerCount: 2
Back
Fore
SplineSet
254 763 m 1,0,-1
 427 1456 l 1,1,-1
 1116 1456 l 1,2,-1
 1110 1403 l 1,3,-1
 469 1403 l 1,4,-1
 316 819 l 1,5,6
 446 914 446 914 625 916 c 0,7,8
 747 916 747 916 833.5 857 c 128,-1,9
 920 798 920 798 957.5 694 c 128,-1,10
 995 590 995 590 977 464 c 0,11,12
 944 241 944 241 820 110.5 c 128,-1,13
 696 -20 696 -20 507 -20 c 0,14,15
 334 -20 334 -20 236 90 c 128,-1,16
 138 200 138 200 146 383 c 1,17,-1
 200 383 l 1,18,19
 192 220 192 220 272.5 127 c 128,-1,20
 353 34 353 34 507 34 c 0,21,22
 643 34 643 34 743 113 c 128,-1,23
 843 192 843 192 893 343.5 c 128,-1,24
 943 495 943 495 923 613 c 0,25,26
 902 730 902 730 823.5 795.5 c 128,-1,27
 745 861 745 861 627 862 c 0,28,29
 446 864 446 864 294 747 c 1,30,-1
 254 763 l 1,0,-1
EndSplineSet
Substitution2: "Single Substitution lookup 74 subtable" five.dnom
Substitution2: "'numr' Numerators in Cyrillic lookup 73 subtable" five.frac
Substitution2: "'numr' Numerators in Greek lookup 72 subtable" five.frac
Substitution2: "'numr' Numerators lookup 71 subtable" five.frac
Substitution2: "'numr' Numerators in Latin lookup 70 subtable" five.frac
Substitution2: "'dnom' Denominators in Cyrillic lookup 69 subtable" five.dnom
Substitution2: "'dnom' Denominators in Greek lookup 68 subtable" five.dnom
Substitution2: "'dnom' Denominators lookup 67 subtable" five.dnom
Substitution2: "'dnom' Denominators in Latin lookup 66 subtable" five.dnom
Substitution2: "'frac' Diagonal Fractions lookup 65 subtable" five.frac
Substitution2: "'pnum' Proportional Numbers in Cyrillic lookup 58 subtable" five.pnum
Substitution2: "'pnum' Proportional Numbers in Greek lookup 57 subtable" five.pnum
Substitution2: "'pnum' Proportional Numbers lookup 56 subtable" five.pnum
Substitution2: "'pnum' Proportional Numbers in Latin lookup 55 subtable" five.pnum
Substitution2: "'onum' Oldstyle Figures in Cyrillic lookup 50 subtable" five.oldstyle
Substitution2: "'onum' Oldstyle Figures in Greek lookup 49 subtable" five.oldstyle
Substitution2: "'onum' Oldstyle Figures lookup 48 subtable" five.oldstyle
Substitution2: "'onum' Oldstyle Figures in Latin lookup 47 subtable" five.oldstyle
EndChar

StartChar: six
Encoding: 54 54 26
Width: 1097
Flags: W
LayerCount: 2
Back
Fore
SplineSet
958 1476 m 1,0,-1
 951 1422 l 1,1,2
 669 1422 669 1422 475 1239.5 c 128,-1,3
 281 1057 281 1057 201 733 c 1,4,5
 265 819 265 819 355 876 c 0,6,7
 483 957 483 957 632 957 c 0,8,9
 753 957 753 957 837 894 c 128,-1,10
 921 831 921 831 955.5 722 c 128,-1,11
 990 613 990 613 971 480 c 0,12,13
 950 342 950 342 879.5 224 c 128,-1,14
 809 106 809 106 709 43 c 128,-1,15
 609 -20 609 -20 498 -20 c 0,16,17
 366 -20 366 -20 271.5 47.5 c 128,-1,18
 177 115 177 115 135 235 c 128,-1,19
 93 355 93 355 113 492 c 2,20,-1
 136 641 l 2,21,22
 196 1027 196 1027 408 1251.5 c 128,-1,23
 620 1476 620 1476 958 1476 c 1,0,-1
625 903 m 0,24,25
 485 903 485 903 353.5 819.5 c 128,-1,26
 222 736 222 736 188 621 c 1,27,-1
 167 493 l 2,28,29
 148 368 148 368 183 260 c 128,-1,30
 218 152 218 152 299 92 c 128,-1,31
 380 32 380 32 497 33 c 0,32,33
 619 34 619 34 721.5 119 c 128,-1,34
 824 204 824 204 881 351 c 128,-1,35
 938 498 938 498 920 636 c 0,36,37
 903 762 903 762 825 832.5 c 128,-1,38
 747 903 747 903 625 903 c 0,24,25
EndSplineSet
Substitution2: "Single Substitution lookup 74 subtable" six.dnom
Substitution2: "'numr' Numerators in Cyrillic lookup 73 subtable" six.frac
Substitution2: "'numr' Numerators in Greek lookup 72 subtable" six.frac
Substitution2: "'numr' Numerators lookup 71 subtable" six.frac
Substitution2: "'numr' Numerators in Latin lookup 70 subtable" six.frac
Substitution2: "'dnom' Denominators in Cyrillic lookup 69 subtable" six.dnom
Substitution2: "'dnom' Denominators in Greek lookup 68 subtable" six.dnom
Substitution2: "'dnom' Denominators lookup 67 subtable" six.dnom
Substitution2: "'dnom' Denominators in Latin lookup 66 subtable" six.dnom
Substitution2: "'frac' Diagonal Fractions lookup 65 subtable" six.frac
EndChar

StartChar: seven
Encoding: 55 55 27
Width: 1097
Flags: W
LayerCount: 2
Back
Fore
SplineSet
1106 1422 m 1,0,-1
 264 0 l 1,1,-1
 208 0 l 1,2,-1
 1040 1402 l 1,3,-1
 200 1402 l 1,4,-1
 207 1456 l 1,5,-1
 1110 1456 l 1,6,-1
 1106 1422 l 1,0,-1
EndSplineSet
Substitution2: "Single Substitution lookup 74 subtable" seven.dnom
Substitution2: "'numr' Numerators in Cyrillic lookup 73 subtable" seven.frac
Substitution2: "'numr' Numerators in Greek lookup 72 subtable" seven.frac
Substitution2: "'numr' Numerators lookup 71 subtable" seven.frac
Substitution2: "'numr' Numerators in Latin lookup 70 subtable" seven.frac
Substitution2: "'dnom' Denominators in Cyrillic lookup 69 subtable" seven.dnom
Substitution2: "'dnom' Denominators in Greek lookup 68 subtable" seven.dnom
Substitution2: "'dnom' Denominators lookup 67 subtable" seven.dnom
Substitution2: "'dnom' Denominators in Latin lookup 66 subtable" seven.dnom
Substitution2: "'frac' Diagonal Fractions lookup 65 subtable" seven.frac
Substitution2: "'pnum' Proportional Numbers in Cyrillic lookup 58 subtable" seven.pnum
Substitution2: "'pnum' Proportional Numbers in Greek lookup 57 subtable" seven.pnum
Substitution2: "'pnum' Proportional Numbers lookup 56 subtable" seven.pnum
Substitution2: "'pnum' Proportional Numbers in Latin lookup 55 subtable" seven.pnum
Substitution2: "'onum' Oldstyle Figures in Cyrillic lookup 50 subtable" seven.oldstyle
Substitution2: "'onum' Oldstyle Figures in Greek lookup 49 subtable" seven.oldstyle
Substitution2: "'onum' Oldstyle Figures lookup 48 subtable" seven.oldstyle
Substitution2: "'onum' Oldstyle Figures in Latin lookup 47 subtable" seven.oldstyle
EndChar

StartChar: eight
Encoding: 56 56 28
Width: 1097
Flags: W
LayerCount: 2
Back
Fore
SplineSet
1046 1086 m 0,0,1
 1026 967 1026 967 941 877.5 c 128,-1,2
 856 788 856 788 724 744 c 1,3,4
 850 702 850 702 916.5 603.5 c 128,-1,5
 983 505 983 505 964 379 c 0,6,7
 936 200 936 200 792 90 c 128,-1,8
 648 -20 648 -20 450 -20 c 0,9,10
 323 -20 323 -20 226.5 30.5 c 128,-1,11
 130 81 130 81 86 171.5 c 128,-1,12
 42 262 42 262 62 379 c 0,13,14
 84 509 84 509 178 604.5 c 128,-1,15
 272 700 272 700 424 746 c 1,16,17
 313 789 313 789 259.5 881 c 128,-1,18
 206 973 206 973 224 1086 c 0,19,20
 251 1257 251 1257 383 1366.5 c 128,-1,21
 515 1476 515 1476 695 1476 c 0,22,23
 808 1476 808 1476 896.5 1425.5 c 128,-1,24
 985 1375 985 1375 1024.5 1285.5 c 128,-1,25
 1064 1196 1064 1196 1046 1086 c 0,0,1
908 374 m 0,26,27
 926 470 926 470 888.5 548 c 128,-1,28
 851 626 851 626 766 672 c 128,-1,29
 681 718 681 718 576 718 c 0,30,31
 408 718 408 718 275.5 622 c 128,-1,32
 143 526 143 526 115 374 c 0,33,34
 88 223 88 223 183.5 128.5 c 128,-1,35
 279 34 279 34 449 34 c 0,36,37
 621 34 621 34 750.5 128.5 c 128,-1,38
 880 223 880 223 908 374 c 0,26,27
993 1091 m 0,39,40
 1018 1230 1018 1230 929 1326 c 128,-1,41
 840 1422 840 1422 696 1422 c 0,42,43
 541 1422 541 1422 423.5 1328.5 c 128,-1,44
 306 1235 306 1235 279 1091 c 0,45,46
 253 953 253 953 339.5 862.5 c 128,-1,47
 426 772 426 772 575 772 c 0,48,49
 727 772 727 772 846.5 861 c 128,-1,50
 966 950 966 950 993 1091 c 0,39,40
EndSplineSet
Substitution2: "Single Substitution lookup 74 subtable" eight.dnom
Substitution2: "'numr' Numerators in Cyrillic lookup 73 subtable" eight.frac
Substitution2: "'numr' Numerators in Greek lookup 72 subtable" eight.frac
Substitution2: "'numr' Numerators lookup 71 subtable" eight.frac
Substitution2: "'numr' Numerators in Latin lookup 70 subtable" eight.frac
Substitution2: "'dnom' Denominators in Cyrillic lookup 69 subtable" eight.dnom
Substitution2: "'dnom' Denominators in Greek lookup 68 subtable" eight.dnom
Substitution2: "'dnom' Denominators lookup 67 subtable" eight.dnom
Substitution2: "'dnom' Denominators in Latin lookup 66 subtable" eight.dnom
Substitution2: "'frac' Diagonal Fractions lookup 65 subtable" eight.frac
EndChar

StartChar: nine
Encoding: 57 57 29
Width: 1097
Flags: W
LayerCount: 2
Back
Fore
SplineSet
938 717 m 1,0,-1
 939 725 l 1,1,2
 863 604 863 604 746.5 536 c 128,-1,3
 630 468 630 468 497 468 c 0,4,5
 352 468 352 468 259 571 c 128,-1,6
 166 674 166 674 156 842 c 0,7,8
 146 988 146 988 215 1143.5 c 128,-1,9
 284 1299 284 1299 399.5 1386.5 c 128,-1,10
 515 1474 515 1474 654 1476 c 0,11,12
 775 1476 775 1476 859.5 1424 c 128,-1,13
 944 1372 944 1372 986 1270.5 c 128,-1,14
 1028 1169 1028 1169 1028 1042 c 0,15,16
 1026 931 1026 931 987 712 c 0,17,18
 924 364 924 364 730 174 c 128,-1,19
 536 -16 536 -16 243 -20 c 1,20,-1
 199 -20 l 1,21,-1
 207 34 l 1,22,-1
 231 34 l 2,23,24
 504 34 504 34 686.5 208.5 c 128,-1,25
 869 383 869 383 938 717 c 1,0,-1
497 522 m 0,26,27
 641 522 641 522 777 615.5 c 128,-1,28
 913 709 913 709 953 840 c 1,29,30
 972 957 972 957 974 1023 c 0,31,32
 978 1140 978 1140 942.5 1234.5 c 128,-1,33
 907 1329 907 1329 835 1375.5 c 128,-1,34
 763 1422 763 1422 658 1422 c 0,35,36
 531 1420 531 1420 426 1336 c 128,-1,37
 321 1252 321 1252 259 1107 c 0,38,39
 205 980 205 980 209 858 c 0,40,41
 212 710 212 710 290.5 616 c 128,-1,42
 369 522 369 522 497 522 c 0,26,27
EndSplineSet
Substitution2: "Single Substitution lookup 74 subtable" nine.dnom
Substitution2: "'numr' Numerators in Cyrillic lookup 73 subtable" nine.frac
Substitution2: "'numr' Numerators in Greek lookup 72 subtable" nine.frac
Substitution2: "'numr' Numerators lookup 71 subtable" nine.frac
Substitution2: "'numr' Numerators in Latin lookup 70 subtable" nine.frac
Substitution2: "'dnom' Denominators in Cyrillic lookup 69 subtable" nine.dnom
Substitution2: "'dnom' Denominators in Greek lookup 68 subtable" nine.dnom
Substitution2: "'dnom' Denominators lookup 67 subtable" nine.dnom
Substitution2: "'dnom' Denominators in Latin lookup 66 subtable" nine.dnom
Substitution2: "'frac' Diagonal Fractions lookup 65 subtable" nine.frac
Substitution2: "'pnum' Proportional Numbers in Cyrillic lookup 58 subtable" nine.pnum
Substitution2: "'pnum' Proportional Numbers in Greek lookup 57 subtable" nine.pnum
Substitution2: "'pnum' Proportional Numbers lookup 56 subtable" nine.pnum
Substitution2: "'pnum' Proportional Numbers in Latin lookup 55 subtable" nine.pnum
Substitution2: "'onum' Oldstyle Figures in Cyrillic lookup 50 subtable" nine.oldstyle
Substitution2: "'onum' Oldstyle Figures in Greek lookup 49 subtable" nine.oldstyle
Substitution2: "'onum' Oldstyle Figures lookup 48 subtable" nine.oldstyle
Substitution2: "'onum' Oldstyle Figures in Latin lookup 47 subtable" nine.oldstyle
EndChar

StartChar: less
Encoding: 60 60 32
Width: 1031
Flags: W
LayerCount: 2
Back
Fore
SplineSet
162 667 m 1,0,-1
 844 324 l 1,1,-1
 835 266 l 1,2,-1
 87 644 l 1,3,-1
 94 694 l 1,4,-1
 972 1072 l 1,5,-1
 964 1013 l 1,6,-1
 162 667 l 1,0,-1
EndSplineSet
EndChar

StartChar: equal
Encoding: 61 61 33
Width: 1118
Flags: W
LayerCount: 2
Back
Fore
SplineSet
996 843 m 1,0,-1
 185 843 l 1,1,-1
 193 897 l 1,2,-1
 1003 897 l 1,3,-1
 996 843 l 1,0,-1
925 436 m 1,4,-1
 115 436 l 1,5,-1
 122 490 l 1,6,-1
 933 490 l 1,7,-1
 925 436 l 1,4,-1
EndSplineSet
EndChar

StartChar: greater
Encoding: 62 62 34
Width: 1031
Flags: W
LayerCount: 2
Back
Fore
SplineSet
858 670 m 1,0,-1
 182 1013 l 1,1,-1
 190 1072 l 1,2,-1
 938 694 l 1,3,-1
 931 644 l 1,4,-1
 54 266 l 1,5,-1
 62 324 l 1,6,-1
 858 670 l 1,0,-1
EndSplineSet
EndChar

StartChar: question
Encoding: 63 63 35
Width: 876
Flags: W
LayerCount: 2
Back
Fore
SplineSet
349 401 m 1,0,1
 380 571 380 571 512 699 c 1,2,-1
 638 812 l 2,3,4
 743 911 743 911 786.5 1019 c 128,-1,5
 830 1127 830 1127 817 1230 c 0,6,7
 804 1321 804 1321 744 1372 c 128,-1,8
 684 1423 684 1423 592 1423 c 0,9,10
 463 1423 463 1423 366 1341 c 128,-1,11
 269 1259 269 1259 234 1117 c 1,12,-1
 179 1117 l 1,13,14
 213 1276 213 1276 326.5 1376 c 128,-1,15
 440 1476 440 1476 591 1476 c 0,16,17
 738 1476 738 1476 815.5 1371.5 c 128,-1,18
 893 1267 893 1267 867 1110 c 0,19,20
 849 999 849 999 782 899 c 128,-1,21
 715 799 715 799 586.5 699.5 c 128,-1,22
 458 600 458 600 414 446 c 1,23,-1
 403 400 l 1,24,-1
 349 401 l 1,0,1
264 51 m 0,25,26
 267 71 267 71 285.5 88 c 128,-1,27
 304 105 304 105 325 105 c 0,28,29
 348 105 348 105 362.5 87 c 128,-1,30
 377 69 377 69 373 47 c 0,31,32
 370 27 370 27 351 10.5 c 128,-1,33
 332 -6 332 -6 311 -6 c 0,34,35
 288 -5 288 -5 274 12 c 128,-1,36
 260 29 260 29 264 51 c 0,25,26
EndSplineSet
EndChar

StartChar: at
Encoding: 64 64 36
Width: 1855
Flags: W
LayerCount: 2
Back
Fore
SplineSet
1255 -20 m 0,0,1
 1159 -20 1159 -20 1109 44 c 128,-1,2
 1059 108 1059 108 1066 210 c 1,3,4
 909 -20 909 -20 704 -20 c 0,5,6
 609 -20 609 -20 557.5 48 c 128,-1,7
 506 116 506 116 508 249 c 0,8,9
 508 409 508 409 587.5 596 c 128,-1,10
 667 783 667 783 787 885.5 c 128,-1,11
 907 988 907 988 1049 988 c 0,12,13
 1111 988 1111 988 1164 963 c 128,-1,14
 1217 938 1217 938 1277 878 c 1,15,-1
 1131 301 l 2,16,17
 1119 254 1119 254 1117 205 c 0,18,19
 1114 125 1114 125 1150.5 80 c 128,-1,20
 1187 35 1187 35 1258 35 c 0,21,22
 1392 35 1392 35 1492 160 c 128,-1,23
 1592 285 1592 285 1646 523 c 0,24,25
 1671 634 1671 634 1676 739 c 0,26,27
 1685 929 1685 929 1622 1069.5 c 128,-1,28
 1559 1210 1559 1210 1426.5 1282 c 128,-1,29
 1294 1354 1294 1354 1105 1354 c 0,30,31
 919 1354 919 1354 747.5 1271.5 c 128,-1,32
 576 1189 576 1189 439 1032 c 128,-1,33
 302 875 302 875 221 671 c 128,-1,34
 140 467 140 467 134 268 c 0,35,36
 128 73 128 73 196.5 -82.5 c 128,-1,37
 265 -238 265 -238 395.5 -318 c 128,-1,38
 526 -398 526 -398 707 -398 c 0,39,40
 880 -398 880 -398 1044 -318 c 1,41,-1
 1062 -366 l 1,42,43
 911 -453 911 -453 704 -453 c 0,44,45
 507 -453 507 -453 364 -368.5 c 128,-1,46
 221 -284 221 -284 147.5 -121 c 128,-1,47
 74 42 74 42 79 249 c 0,48,49
 83 465 83 465 165.5 684.5 c 128,-1,50
 248 904 248 904 392.5 1071.5 c 128,-1,51
 537 1239 537 1239 720.5 1325 c 128,-1,52
 904 1411 904 1411 1109 1411 c 0,53,54
 1412 1411 1412 1411 1575 1238 c 128,-1,55
 1738 1065 1738 1065 1732 753 c 0,56,57
 1727 557 1727 557 1660.5 369.5 c 128,-1,58
 1594 182 1594 182 1489.5 81 c 128,-1,59
 1385 -20 1385 -20 1255 -20 c 0,0,1
559 192 m 0,60,61
 564 119 564 119 601 77 c 128,-1,62
 638 35 638 35 702 34 c 0,63,64
 817 31 817 31 926 120 c 128,-1,65
 1035 209 1035 209 1086 344 c 1,66,-1
 1219 852 l 1,67,68
 1160 931 1160 931 1046 933 c 0,69,70
 910 933 910 933 799.5 825.5 c 128,-1,71
 689 718 689 718 618 527 c 128,-1,72
 547 336 547 336 559 192 c 0,60,61
EndSplineSet
EndChar

StartChar: A
Encoding: 65 65 37
Width: 1196
Flags: W
LayerCount: 2
Back
Fore
SplineSet
911 435 m 1,0,-1
 221 435 l 1,1,-1
 -12 0 l 1,2,-1
 -72 0 l 1,3,-1
 706 1455 l 1,4,-1
 771 1456 l 1,5,-1
 1051 0 l 1,6,-1
 994 0 l 1,7,-1
 911 435 l 1,0,-1
249 489 m 1,8,-1
 900 489 l 1,9,-1
 732 1388 l 1,10,-1
 249 489 l 1,8,-1
EndSplineSet
Substitution2: "'c2sc' Capitals to Small Capitals in Cyrillic lookup 3 subtable" A.c2sc
Substitution2: "'c2sc' Capitals to Small Capitals in Greek lookup 2 subtable" A.c2sc
Substitution2: "'c2sc' Capitals to Small Capitals lookup 1 subtable" A.c2sc
Substitution2: "'c2sc' Capitals to Small Capitals in Latin lookup 0 subtable" A.c2sc
Position2: "'cpsp' Capital Spacing in Cyrillic lookup 3 subtable" dx=36 dy=0 dh=72 dv=0
Position2: "'cpsp' Capital Spacing in Greek lookup 2 subtable" dx=36 dy=0 dh=72 dv=0
Position2: "'cpsp' Capital Spacing lookup 1 subtable" dx=36 dy=0 dh=72 dv=0
Position2: "'cpsp' Capital Spacing in Latin lookup 0 subtable" dx=36 dy=0 dh=72 dv=0
EndChar

StartChar: B
Encoding: 66 66 38
Width: 1208
Flags: W
LayerCount: 2
Back
Fore
SplineSet
89 0 m 1,0,-1
 342 1456 l 1,1,-1
 709 1456 l 2,2,3
 925 1454 925 1454 1032.5 1355 c 128,-1,4
 1140 1256 1140 1256 1112 1083 c 0,5,6
 1090 955 1090 955 1011 868.5 c 128,-1,7
 932 782 932 782 806 752 c 1,8,9
 934 730 934 730 1006 630 c 128,-1,10
 1078 530 1078 530 1058 401 c 0,11,12
 1029 218 1029 218 888 109 c 128,-1,13
 747 0 747 0 543 0 c 2,14,-1
 89 0 l 1,0,-1
268 719 m 1,15,-1
 153 54 l 1,16,-1
 542 54 l 2,17,18
 725 54 725 54 849.5 147 c 128,-1,19
 974 240 974 240 1004 399 c 0,20,21
 1030 541 1030 541 937.5 630 c 128,-1,22
 845 719 845 719 675 719 c 2,23,-1
 268 719 l 1,15,-1
277 773 m 1,24,-1
 594 773 l 2,25,26
 790 773 790 773 909.5 853.5 c 128,-1,27
 1029 934 1029 934 1058 1087 c 0,28,29
 1085 1233 1085 1233 997 1315 c 128,-1,30
 909 1397 909 1397 718 1402 c 1,31,-1
 387 1402 l 1,32,-1
 277 773 l 1,24,-1
EndSplineSet
Substitution2: "'c2sc' Capitals to Small Capitals in Cyrillic lookup 3 subtable" B.c2sc
Substitution2: "'c2sc' Capitals to Small Capitals in Greek lookup 2 subtable" B.c2sc
Substitution2: "'c2sc' Capitals to Small Capitals lookup 1 subtable" B.c2sc
Substitution2: "'c2sc' Capitals to Small Capitals in Latin lookup 0 subtable" B.c2sc
Position2: "'cpsp' Capital Spacing in Cyrillic lookup 3 subtable" dx=36 dy=0 dh=72 dv=0
Position2: "'cpsp' Capital Spacing in Greek lookup 2 subtable" dx=36 dy=0 dh=72 dv=0
Position2: "'cpsp' Capital Spacing lookup 1 subtable" dx=36 dy=0 dh=72 dv=0
Position2: "'cpsp' Capital Spacing in Latin lookup 0 subtable" dx=36 dy=0 dh=72 dv=0
EndChar

StartChar: C
Encoding: 67 67 39
Width: 1297
Flags: W
LayerCount: 2
Back
Fore
SplineSet
1128 445 m 1,0,1
 1068 229 1068 229 916.5 104.5 c 128,-1,2
 765 -20 765 -20 549 -20 c 0,3,4
 422 -20 422 -20 327.5 40 c 128,-1,5
 233 100 233 100 182.5 214 c 128,-1,6
 132 328 132 328 132 469 c 0,7,8
 131 548 131 548 144 625 c 2,9,-1
 177 820 l 2,10,11
 226 1109 226 1109 394 1292.5 c 128,-1,12
 562 1476 562 1476 798 1476 c 0,13,14
 1007 1476 1007 1476 1122 1352.5 c 128,-1,15
 1237 1229 1237 1229 1227 1012 c 1,16,-1
 1174 1012 l 1,17,18
 1182 1205 1182 1205 1084 1313.5 c 128,-1,19
 986 1422 986 1422 799 1422 c 0,20,21
 667 1422 667 1422 551.5 1352 c 128,-1,22
 436 1282 436 1282 350 1143.5 c 128,-1,23
 264 1005 264 1005 233 828 c 2,24,-1
 196 619 l 2,25,26
 185 553 185 553 185 485 c 0,27,28
 183 354 183 354 225.5 249.5 c 128,-1,29
 268 145 268 145 351 89.5 c 128,-1,30
 434 34 434 34 548 34 c 0,31,32
 744 34 744 34 879 142 c 128,-1,33
 1014 250 1014 250 1074 445 c 1,34,-1
 1128 445 l 1,0,1
EndSplineSet
Substitution2: "'ss06' Style Set 6 in Cyrillic lookup 42 subtable" C.ss06
Substitution2: "'ss06' Style Set 6 in Greek lookup 41 subtable" C.ss06
Substitution2: "'ss06' Style Set 6 lookup 40 subtable" C.ss06
Substitution2: "'ss06' Style Set 6 in Latin lookup 39 subtable" C.ss06
Substitution2: "'c2sc' Capitals to Small Capitals in Cyrillic lookup 3 subtable" C.c2sc
Substitution2: "'c2sc' Capitals to Small Capitals in Greek lookup 2 subtable" C.c2sc
Substitution2: "'c2sc' Capitals to Small Capitals lookup 1 subtable" C.c2sc
Substitution2: "'c2sc' Capitals to Small Capitals in Latin lookup 0 subtable" C.c2sc
Position2: "'cpsp' Capital Spacing in Cyrillic lookup 3 subtable" dx=36 dy=0 dh=72 dv=0
Position2: "'cpsp' Capital Spacing in Greek lookup 2 subtable" dx=36 dy=0 dh=72 dv=0
Position2: "'cpsp' Capital Spacing lookup 1 subtable" dx=36 dy=0 dh=72 dv=0
Position2: "'cpsp' Capital Spacing in Latin lookup 0 subtable" dx=36 dy=0 dh=72 dv=0
EndChar

StartChar: D
Encoding: 68 68 40
Width: 1310
Flags: W
LayerCount: 2
Back
Fore
SplineSet
89 0 m 1,0,-1
 342 1456 l 1,1,-1
 729 1456 l 2,2,3
 865 1454 865 1454 972 1395 c 128,-1,4
 1079 1336 1079 1336 1142 1226 c 128,-1,5
 1205 1116 1205 1116 1214 979 c 0,6,7
 1219 895 1219 895 1205 811 c 2,8,-1
 1178 650 l 2,9,10
 1147 467 1147 467 1048 318 c 128,-1,11
 949 169 949 169 802 85 c 128,-1,12
 655 1 655 1 488 0 c 2,13,-1
 89 0 l 1,0,-1
387 1402 m 1,14,-1
 153 54 l 1,15,-1
 472 54 l 2,16,17
 712 54 712 54 894.5 222.5 c 128,-1,18
 1077 391 1077 391 1125 661 c 2,19,-1
 1153 820 l 2,20,21
 1172 931 1172 931 1154 1035 c 0,22,23
 1123 1202 1123 1202 1010 1300.5 c 128,-1,24
 897 1399 897 1399 732 1402 c 2,25,-1
 387 1402 l 1,14,-1
EndSplineSet
Substitution2: "'ss06' Style Set 6 in Cyrillic lookup 42 subtable" D.ss06
Substitution2: "'ss06' Style Set 6 in Greek lookup 41 subtable" D.ss06
Substitution2: "'ss06' Style Set 6 lookup 40 subtable" D.ss06
Substitution2: "'ss06' Style Set 6 in Latin lookup 39 subtable" D.ss06
Substitution2: "'c2sc' Capitals to Small Capitals in Cyrillic lookup 3 subtable" D.c2sc
Substitution2: "'c2sc' Capitals to Small Capitals in Greek lookup 2 subtable" D.c2sc
Substitution2: "'c2sc' Capitals to Small Capitals lookup 1 subtable" D.c2sc
Substitution2: "'c2sc' Capitals to Small Capitals in Latin lookup 0 subtable" D.c2sc
Position2: "'cpsp' Capital Spacing in Cyrillic lookup 3 subtable" dx=36 dy=0 dh=72 dv=0
Position2: "'cpsp' Capital Spacing in Greek lookup 2 subtable" dx=36 dy=0 dh=72 dv=0
Position2: "'cpsp' Capital Spacing lookup 1 subtable" dx=36 dy=0 dh=72 dv=0
Position2: "'cpsp' Capital Spacing in Latin lookup 0 subtable" dx=36 dy=0 dh=72 dv=0
EndChar

StartChar: E
Encoding: 69 69 41
Width: 1141
Flags: W
LayerCount: 2
Back
Fore
SplineSet
978 722 m 1,0,-1
 269 722 l 1,1,-1
 153 54 l 1,2,-1
 959 54 l 1,3,-1
 951 0 l 1,4,-1
 89 0 l 1,5,-1
 342 1456 l 1,6,-1
 1202 1456 l 1,7,-1
 1194 1402 l 1,8,-1
 387 1402 l 1,9,-1
 278 776 l 1,10,-1
 985 776 l 1,11,-1
 978 722 l 1,0,-1
EndSplineSet
Substitution2: "'c2sc' Capitals to Small Capitals in Cyrillic lookup 3 subtable" E.c2sc
Substitution2: "'c2sc' Capitals to Small Capitals in Greek lookup 2 subtable" E.c2sc
Substitution2: "'c2sc' Capitals to Small Capitals lookup 1 subtable" E.c2sc
Substitution2: "'c2sc' Capitals to Small Capitals in Latin lookup 0 subtable" E.c2sc
Position2: "'cpsp' Capital Spacing in Cyrillic lookup 3 subtable" dx=36 dy=0 dh=72 dv=0
Position2: "'cpsp' Capital Spacing in Greek lookup 2 subtable" dx=36 dy=0 dh=72 dv=0
Position2: "'cpsp' Capital Spacing lookup 1 subtable" dx=36 dy=0 dh=72 dv=0
Position2: "'cpsp' Capital Spacing in Latin lookup 0 subtable" dx=36 dy=0 dh=72 dv=0
EndChar

StartChar: F
Encoding: 70 70 42
Width: 1147
Flags: W
LayerCount: 2
Back
Fore
SplineSet
992 716 m 1,0,-1
 268 716 l 1,1,-1
 144 0 l 1,2,-1
 90 0 l 1,3,-1
 342 1456 l 1,4,-1
 1217 1456 l 1,5,-1
 1210 1402 l 1,6,-1
 387 1402 l 1,7,-1
 277 772 l 1,8,-1
 1000 772 l 1,9,-1
 992 716 l 1,0,-1
EndSplineSet
Substitution2: "'c2sc' Capitals to Small Capitals in Cyrillic lookup 3 subtable" F.c2sc
Substitution2: "'c2sc' Capitals to Small Capitals in Greek lookup 2 subtable" F.c2sc
Substitution2: "'c2sc' Capitals to Small Capitals lookup 1 subtable" F.c2sc
Substitution2: "'c2sc' Capitals to Small Capitals in Latin lookup 0 subtable" F.c2sc
Position2: "'cpsp' Capital Spacing in Cyrillic lookup 3 subtable" dx=36 dy=0 dh=72 dv=0
Position2: "'cpsp' Capital Spacing in Greek lookup 2 subtable" dx=36 dy=0 dh=72 dv=0
Position2: "'cpsp' Capital Spacing lookup 1 subtable" dx=36 dy=0 dh=72 dv=0
Position2: "'cpsp' Capital Spacing in Latin lookup 0 subtable" dx=36 dy=0 dh=72 dv=0
EndChar

StartChar: G
Encoding: 71 71 43
Width: 1374
Flags: W
LayerCount: 2
Back
Fore
SplineSet
1115 156 m 1,0,1
 1042 73 1042 73 907 26.5 c 128,-1,2
 772 -20 772 -20 605 -20 c 0,3,4
 407 -20 407 -20 286 112 c 128,-1,5
 165 244 165 244 156 465 c 0,6,7
 153 544 153 544 166 620 c 2,8,-1
 206 852 l 2,9,10
 237 1031 237 1031 329 1175 c 128,-1,11
 421 1319 421 1319 553 1397.5 c 128,-1,12
 685 1476 685 1476 838 1476 c 0,13,14
 1036 1476 1036 1476 1154.5 1364 c 128,-1,15
 1273 1252 1273 1252 1269 1062 c 1,16,-1
 1216 1062 l 1,17,18
 1216 1234 1216 1234 1114 1328 c 128,-1,19
 1012 1422 1012 1422 838 1422 c 0,20,21
 624 1422 624 1422 464 1260 c 128,-1,22
 304 1098 304 1098 259 842.5 c 128,-1,23
 214 587 214 587 211.5 551 c 128,-1,24
 209 515 209 515 210 480 c 0,25,26
 213 277 213 277 318 155.5 c 128,-1,27
 423 34 423 34 604 34 c 0,28,29
 746 34 746 34 865.5 71.5 c 128,-1,30
 985 109 985 109 1062 181 c 1,31,-1
 1137 605 l 1,32,-1
 707 605 l 1,33,-1
 714 660 l 1,34,-1
 1201 660 l 1,35,-1
 1115 156 l 1,0,1
EndSplineSet
Substitution2: "'ss06' Style Set 6 in Cyrillic lookup 42 subtable" G.ss06
Substitution2: "'ss06' Style Set 6 in Greek lookup 41 subtable" G.ss06
Substitution2: "'ss06' Style Set 6 lookup 40 subtable" G.ss06
Substitution2: "'ss06' Style Set 6 in Latin lookup 39 subtable" G.ss06
Substitution2: "'c2sc' Capitals to Small Capitals in Cyrillic lookup 3 subtable" G.c2sc
Substitution2: "'c2sc' Capitals to Small Capitals in Greek lookup 2 subtable" G.c2sc
Substitution2: "'c2sc' Capitals to Small Capitals lookup 1 subtable" G.c2sc
Substitution2: "'c2sc' Capitals to Small Capitals in Latin lookup 0 subtable" G.c2sc
Position2: "'cpsp' Capital Spacing in Cyrillic lookup 3 subtable" dx=36 dy=0 dh=72 dv=0
Position2: "'cpsp' Capital Spacing in Greek lookup 2 subtable" dx=36 dy=0 dh=72 dv=0
Position2: "'cpsp' Capital Spacing lookup 1 subtable" dx=36 dy=0 dh=72 dv=0
Position2: "'cpsp' Capital Spacing in Latin lookup 0 subtable" dx=36 dy=0 dh=72 dv=0
EndChar

StartChar: H
Encoding: 72 72 44
Width: 1405
Flags: W
LayerCount: 2
Back
Fore
SplineSet
1099 0 m 1,0,-1
 1045 0 l 1,1,-1
 1169 722 l 1,2,-1
 269 722 l 1,3,-1
 144 0 l 1,4,-1
 90 0 l 1,5,-1
 341 1456 l 1,6,-1
 395 1456 l 1,7,-1
 278 776 l 1,8,-1
 1178 776 l 1,9,-1
 1296 1456 l 1,10,-1
 1349 1456 l 1,11,-1
 1099 0 l 1,0,-1
EndSplineSet
Substitution2: "'c2sc' Capitals to Small Capitals in Cyrillic lookup 3 subtable" H.c2sc
Substitution2: "'c2sc' Capitals to Small Capitals in Greek lookup 2 subtable" H.c2sc
Substitution2: "'c2sc' Capitals to Small Capitals lookup 1 subtable" H.c2sc
Substitution2: "'c2sc' Capitals to Small Capitals in Latin lookup 0 subtable" H.c2sc
Position2: "'cpsp' Capital Spacing in Cyrillic lookup 3 subtable" dx=36 dy=0 dh=72 dv=0
Position2: "'cpsp' Capital Spacing in Greek lookup 2 subtable" dx=36 dy=0 dh=72 dv=0
Position2: "'cpsp' Capital Spacing lookup 1 subtable" dx=36 dy=0 dh=72 dv=0
Position2: "'cpsp' Capital Spacing in Latin lookup 0 subtable" dx=36 dy=0 dh=72 dv=0
EndChar

StartChar: I
Encoding: 73 73 45
Width: 528
Flags: W
LayerCount: 2
Back
Fore
SplineSet
183 0 m 1,0,-1
 129 0 l 1,1,-1
 380 1456 l 1,2,-1
 434 1456 l 1,3,-1
 183 0 l 1,0,-1
EndSplineSet
Substitution2: "'c2sc' Capitals to Small Capitals in Cyrillic lookup 3 subtable" I.c2sc
Substitution2: "'c2sc' Capitals to Small Capitals in Greek lookup 2 subtable" I.c2sc
Substitution2: "'c2sc' Capitals to Small Capitals lookup 1 subtable" I.c2sc
Substitution2: "'c2sc' Capitals to Small Capitals in Latin lookup 0 subtable" I.c2sc
Position2: "'cpsp' Capital Spacing in Cyrillic lookup 3 subtable" dx=36 dy=0 dh=72 dv=0
Position2: "'cpsp' Capital Spacing in Greek lookup 2 subtable" dx=36 dy=0 dh=72 dv=0
Position2: "'cpsp' Capital Spacing lookup 1 subtable" dx=36 dy=0 dh=72 dv=0
Position2: "'cpsp' Capital Spacing in Latin lookup 0 subtable" dx=36 dy=0 dh=72 dv=0
EndChar

StartChar: J
Encoding: 74 74 46
Width: 1101
Flags: W
LayerCount: 2
Back
Fore
SplineSet
1012 1456 m 1,0,-1
 1066 1456 l 1,1,-1
 894 459 l 2,2,3
 856 239 856 239 723.5 109.5 c 128,-1,4
 591 -20 591 -20 408 -20 c 0,5,6
 218 -20 218 -20 128 96.5 c 128,-1,7
 38 213 38 213 67 401 c 1,8,-1
 121 401 l 1,9,10
 108 321 108 321 119 254 c 0,11,12
 136 147 136 147 210.5 90.5 c 128,-1,13
 285 34 285 34 407 34 c 0,14,15
 570 34 570 34 688 152 c 128,-1,16
 806 270 806 270 839 459 c 2,17,-1
 1012 1456 l 1,0,-1
EndSplineSet
Substitution2: "'c2sc' Capitals to Small Capitals in Cyrillic lookup 3 subtable" J.c2sc
Substitution2: "'c2sc' Capitals to Small Capitals in Greek lookup 2 subtable" J.c2sc
Substitution2: "'c2sc' Capitals to Small Capitals lookup 1 subtable" J.c2sc
Substitution2: "'c2sc' Capitals to Small Capitals in Latin lookup 0 subtable" J.c2sc
Position2: "'cpsp' Capital Spacing in Cyrillic lookup 3 subtable" dx=36 dy=0 dh=72 dv=0
Position2: "'cpsp' Capital Spacing in Greek lookup 2 subtable" dx=36 dy=0 dh=72 dv=0
Position2: "'cpsp' Capital Spacing lookup 1 subtable" dx=36 dy=0 dh=72 dv=0
Position2: "'cpsp' Capital Spacing in Latin lookup 0 subtable" dx=36 dy=0 dh=72 dv=0
EndChar

StartChar: K
Encoding: 75 75 47
Width: 1271
Flags: W
LayerCount: 2
Back
Fore
SplineSet
505 765 m 1,0,-1
 238 548 l 1,1,-1
 144 0 l 1,2,-1
 90 0 l 1,3,-1
 341 1456 l 1,4,-1
 395 1456 l 1,5,-1
 250 620 l 1,6,-1
 518 848 l 1,7,-1
 1210 1456 l 1,8,-1
 1294 1455 l 1,9,-1
 546 799 l 1,10,-1
 1087 0 l 1,11,-1
 1021 0 l 1,12,-1
 505 765 l 1,0,-1
EndSplineSet
Substitution2: "'ss05' Style Set 5 in Cyrillic lookup 38 subtable" K.ss05
Substitution2: "'ss05' Style Set 5 in Greek lookup 37 subtable" K.ss05
Substitution2: "'ss05' Style Set 5 lookup 36 subtable" K.ss05
Substitution2: "'ss05' Style Set 5 in Latin lookup 35 subtable" K.ss05
Substitution2: "'ss04' Style Set 4 in Cyrillic lookup 34 subtable" K.ss04
Substitution2: "'ss04' Style Set 4 in Greek lookup 33 subtable" K.ss04
Substitution2: "'ss04' Style Set 4 lookup 32 subtable" K.ss04
Substitution2: "'ss04' Style Set 4 in Latin lookup 31 subtable" K.ss04
Substitution2: "'c2sc' Capitals to Small Capitals in Cyrillic lookup 3 subtable" K.c2sc
Substitution2: "'c2sc' Capitals to Small Capitals in Greek lookup 2 subtable" K.c2sc
Substitution2: "'c2sc' Capitals to Small Capitals lookup 1 subtable" K.c2sc
Substitution2: "'c2sc' Capitals to Small Capitals in Latin lookup 0 subtable" K.c2sc
Position2: "'cpsp' Capital Spacing in Cyrillic lookup 3 subtable" dx=36 dy=0 dh=72 dv=0
Position2: "'cpsp' Capital Spacing in Greek lookup 2 subtable" dx=36 dy=0 dh=72 dv=0
Position2: "'cpsp' Capital Spacing lookup 1 subtable" dx=36 dy=0 dh=72 dv=0
Position2: "'cpsp' Capital Spacing in Latin lookup 0 subtable" dx=36 dy=0 dh=72 dv=0
EndChar

StartChar: L
Encoding: 76 76 48
Width: 1035
Flags: W
LayerCount: 2
Back
Fore
SplineSet
154 54 m 1,0,-1
 877 54 l 1,1,-1
 870 0 l 1,2,-1
 89 0 l 1,3,-1
 341 1456 l 1,4,-1
 396 1456 l 1,5,-1
 154 54 l 1,0,-1
EndSplineSet
Substitution2: "'c2sc' Capitals to Small Capitals in Cyrillic lookup 3 subtable" L.c2sc
Substitution2: "'c2sc' Capitals to Small Capitals in Greek lookup 2 subtable" L.c2sc
Substitution2: "'c2sc' Capitals to Small Capitals lookup 1 subtable" L.c2sc
Substitution2: "'c2sc' Capitals to Small Capitals in Latin lookup 0 subtable" L.c2sc
Position2: "'cpsp' Capital Spacing in Cyrillic lookup 3 subtable" dx=36 dy=0 dh=72 dv=0
Position2: "'cpsp' Capital Spacing in Greek lookup 2 subtable" dx=36 dy=0 dh=72 dv=0
Position2: "'cpsp' Capital Spacing lookup 1 subtable" dx=36 dy=0 dh=72 dv=0
Position2: "'cpsp' Capital Spacing in Latin lookup 0 subtable" dx=36 dy=0 dh=72 dv=0
EndChar

StartChar: M
Encoding: 77 77 49
Width: 1713
Flags: W
LayerCount: 2
Back
Fore
SplineSet
416 1456 m 1,0,-1
 758 81 l 1,1,-1
 1579 1456 l 1,2,-1
 1659 1456 l 1,3,-1
 1407 0 l 1,4,-1
 1353 0 l 1,5,-1
 1590 1367 l 1,6,-1
 770 0 l 1,7,-1
 728 0 l 1,8,-1
 381 1369 l 1,9,-1
 144 0 l 1,10,-1
 90 0 l 1,11,-1
 342 1456 l 1,12,-1
 416 1456 l 1,0,-1
EndSplineSet
Substitution2: "'c2sc' Capitals to Small Capitals in Cyrillic lookup 3 subtable" M.c2sc
Substitution2: "'c2sc' Capitals to Small Capitals in Greek lookup 2 subtable" M.c2sc
Substitution2: "'c2sc' Capitals to Small Capitals lookup 1 subtable" M.c2sc
Substitution2: "'c2sc' Capitals to Small Capitals in Latin lookup 0 subtable" M.c2sc
Position2: "'cpsp' Capital Spacing in Cyrillic lookup 3 subtable" dx=36 dy=0 dh=72 dv=0
Position2: "'cpsp' Capital Spacing in Greek lookup 2 subtable" dx=36 dy=0 dh=72 dv=0
Position2: "'cpsp' Capital Spacing lookup 1 subtable" dx=36 dy=0 dh=72 dv=0
Position2: "'cpsp' Capital Spacing in Latin lookup 0 subtable" dx=36 dy=0 dh=72 dv=0
EndChar

StartChar: N
Encoding: 78 78 50
Width: 1416
Flags: W
LayerCount: 2
Back
Fore
SplineSet
1110 0 m 1,0,-1
 1058 0 l 1,1,-1
 382 1366 l 1,2,-1
 145 0 l 1,3,-1
 90 0 l 1,4,-1
 340 1456 l 1,5,-1
 393 1456 l 1,6,-1
 1070 93 l 1,7,-1
 1306 1456 l 1,8,-1
 1360 1456 l 1,9,-1
 1110 0 l 1,0,-1
EndSplineSet
Substitution2: "'c2sc' Capitals to Small Capitals in Cyrillic lookup 3 subtable" N.c2sc
Substitution2: "'c2sc' Capitals to Small Capitals in Greek lookup 2 subtable" N.c2sc
Substitution2: "'c2sc' Capitals to Small Capitals lookup 1 subtable" N.c2sc
Substitution2: "'c2sc' Capitals to Small Capitals in Latin lookup 0 subtable" N.c2sc
Position2: "'cpsp' Capital Spacing in Cyrillic lookup 3 subtable" dx=36 dy=0 dh=72 dv=0
Position2: "'cpsp' Capital Spacing in Greek lookup 2 subtable" dx=36 dy=0 dh=72 dv=0
Position2: "'cpsp' Capital Spacing lookup 1 subtable" dx=36 dy=0 dh=72 dv=0
Position2: "'cpsp' Capital Spacing in Latin lookup 0 subtable" dx=36 dy=0 dh=72 dv=0
EndChar

StartChar: O
Encoding: 79 79 51
Width: 1333
Flags: W
LayerCount: 2
Back
Fore
SplineSet
560 -20 m 0,0,1
 430 -20 430 -20 331.5 39 c 128,-1,2
 233 98 233 98 179 211 c 128,-1,3
 125 324 125 324 121 465 c 0,4,5
 119 542 119 542 132 619 c 2,6,-1
 166 819 l 2,7,8
 199 1014 199 1014 292.5 1166 c 128,-1,9
 386 1318 386 1318 519.5 1397 c 128,-1,10
 653 1476 653 1476 808 1476 c 0,11,12
 939 1476 939 1476 1037.5 1416.5 c 128,-1,13
 1136 1357 1136 1357 1190 1243.5 c 128,-1,14
 1244 1130 1244 1130 1247 992 c 0,15,16
 1248 908 1248 908 1235 831 c 2,17,-1
 1201 630 l 2,18,19
 1170 446 1170 446 1078.5 295 c 128,-1,20
 987 144 987 144 853 62 c 128,-1,21
 719 -20 719 -20 560 -20 c 0,0,1
1195 979 m 0,22,23
 1192 1186 1192 1186 1090 1304 c 128,-1,24
 988 1422 988 1422 808 1422 c 0,25,26
 587 1422 587 1422 427.5 1255 c 128,-1,27
 268 1088 268 1088 221 817 c 2,28,-1
 186 613 l 2,29,30
 175 546 175 546 176 479 c 0,31,32
 176 274 176 274 278 154 c 128,-1,33
 380 34 380 34 560 34 c 0,34,35
 697 34 697 34 816.5 102 c 128,-1,36
 936 170 936 170 1022.5 305 c 128,-1,37
 1109 440 1109 440 1143 614 c 2,38,-1
 1182 833 l 2,39,40
 1195 906 1195 906 1195 979 c 0,22,23
EndSplineSet
Substitution2: "'ss06' Style Set 6 in Cyrillic lookup 42 subtable" O.ss06
Substitution2: "'ss06' Style Set 6 in Greek lookup 41 subtable" O.ss06
Substitution2: "'ss06' Style Set 6 lookup 40 subtable" O.ss06
Substitution2: "'ss06' Style Set 6 in Latin lookup 39 subtable" O.ss06
Substitution2: "'c2sc' Capitals to Small Capitals in Cyrillic lookup 3 subtable" O.c2sc
Substitution2: "'c2sc' Capitals to Small Capitals in Greek lookup 2 subtable" O.c2sc
Substitution2: "'c2sc' Capitals to Small Capitals lookup 1 subtable" O.c2sc
Substitution2: "'c2sc' Capitals to Small Capitals in Latin lookup 0 subtable" O.c2sc
Position2: "'cpsp' Capital Spacing in Cyrillic lookup 3 subtable" dx=36 dy=0 dh=72 dv=0
Position2: "'cpsp' Capital Spacing in Greek lookup 2 subtable" dx=36 dy=0 dh=72 dv=0
Position2: "'cpsp' Capital Spacing lookup 1 subtable" dx=36 dy=0 dh=72 dv=0
Position2: "'cpsp' Capital Spacing in Latin lookup 0 subtable" dx=36 dy=0 dh=72 dv=0
EndChar

StartChar: P
Encoding: 80 80 52
Width: 1203
Flags: W
LayerCount: 2
Back
Fore
SplineSet
250 615 m 1,0,-1
 144 0 l 1,1,-1
 90 0 l 1,2,-1
 342 1456 l 1,3,-1
 779 1456 l 2,4,5
 982 1454 982 1454 1090 1339 c 128,-1,6
 1198 1224 1198 1224 1167 1031 c 0,7,8
 1135 838 1135 838 993 726.5 c 128,-1,9
 851 615 851 615 628 615 c 2,10,-1
 250 615 l 1,0,-1
259 669 m 1,11,-1
 629 669 l 2,12,13
 819 669 819 669 949.5 764 c 128,-1,14
 1080 859 1080 859 1113 1029 c 0,15,16
 1143 1196 1143 1196 1053 1297 c 128,-1,17
 963 1398 963 1398 780 1402 c 1,18,-1
 387 1402 l 1,19,-1
 259 669 l 1,11,-1
EndSplineSet
Substitution2: "'c2sc' Capitals to Small Capitals in Cyrillic lookup 3 subtable" P.c2sc
Substitution2: "'c2sc' Capitals to Small Capitals in Greek lookup 2 subtable" P.c2sc
Substitution2: "'c2sc' Capitals to Small Capitals lookup 1 subtable" P.c2sc
Substitution2: "'c2sc' Capitals to Small Capitals in Latin lookup 0 subtable" P.c2sc
Position2: "'cpsp' Capital Spacing in Cyrillic lookup 3 subtable" dx=36 dy=0 dh=72 dv=0
Position2: "'cpsp' Capital Spacing in Greek lookup 2 subtable" dx=36 dy=0 dh=72 dv=0
Position2: "'cpsp' Capital Spacing lookup 1 subtable" dx=36 dy=0 dh=72 dv=0
Position2: "'cpsp' Capital Spacing in Latin lookup 0 subtable" dx=36 dy=0 dh=72 dv=0
EndChar

StartChar: Q
Encoding: 81 81 53
Width: 1333
Flags: W
LayerCount: 2
Back
Fore
SplineSet
799 32 m 1,0,-1
 1013 -230 l 1,1,-1
 972 -263 l 1,2,-1
 744 9 l 1,3,4
 651 -20 651 -20 560 -20 c 0,5,6
 430 -20 430 -20 331.5 39 c 128,-1,7
 233 98 233 98 179 211 c 128,-1,8
 125 324 125 324 121 465 c 0,9,10
 119 542 119 542 132 619 c 2,11,-1
 166 819 l 2,12,13
 199 1014 199 1014 292.5 1166 c 128,-1,14
 386 1318 386 1318 519.5 1397 c 128,-1,15
 653 1476 653 1476 808 1476 c 0,16,17
 939 1476 939 1476 1037.5 1416.5 c 128,-1,18
 1136 1357 1136 1357 1190 1243.5 c 128,-1,19
 1244 1130 1244 1130 1247 992 c 0,20,21
 1248 908 1248 908 1235 831 c 2,22,-1
 1202 637 l 2,23,24
 1165 419 1165 419 1061 263.5 c 128,-1,25
 957 108 957 108 799 32 c 1,0,-1
1195 979 m 0,26,27
 1192 1186 1192 1186 1090 1304 c 128,-1,28
 988 1422 988 1422 808 1422 c 0,29,30
 587 1422 587 1422 427.5 1255 c 128,-1,31
 268 1088 268 1088 221 817 c 2,32,-1
 186 613 l 2,33,34
 175 546 175 546 176 479 c 0,35,36
 176 274 176 274 278 154 c 128,-1,37
 380 34 380 34 560 34 c 0,38,39
 697 34 697 34 816.5 102 c 128,-1,40
 936 170 936 170 1022.5 305 c 128,-1,41
 1109 440 1109 440 1143 614 c 2,42,-1
 1182 833 l 2,43,44
 1195 906 1195 906 1195 979 c 0,26,27
EndSplineSet
Substitution2: "'ss06' Style Set 6 in Cyrillic lookup 42 subtable" Q.ss06
Substitution2: "'ss06' Style Set 6 in Greek lookup 41 subtable" Q.ss06
Substitution2: "'ss06' Style Set 6 lookup 40 subtable" Q.ss06
Substitution2: "'ss06' Style Set 6 in Latin lookup 39 subtable" Q.ss06
Substitution2: "'c2sc' Capitals to Small Capitals in Cyrillic lookup 3 subtable" Q.c2sc
Substitution2: "'c2sc' Capitals to Small Capitals in Greek lookup 2 subtable" Q.c2sc
Substitution2: "'c2sc' Capitals to Small Capitals lookup 1 subtable" Q.c2sc
Substitution2: "'c2sc' Capitals to Small Capitals in Latin lookup 0 subtable" Q.c2sc
Position2: "'cpsp' Capital Spacing in Cyrillic lookup 3 subtable" dx=36 dy=0 dh=72 dv=0
Position2: "'cpsp' Capital Spacing in Greek lookup 2 subtable" dx=36 dy=0 dh=72 dv=0
Position2: "'cpsp' Capital Spacing lookup 1 subtable" dx=36 dy=0 dh=72 dv=0
Position2: "'cpsp' Capital Spacing in Latin lookup 0 subtable" dx=36 dy=0 dh=72 dv=0
EndChar

StartChar: R
Encoding: 82 82 54
Width: 1310
Flags: W
LayerCount: 2
Back
Fore
SplineSet
737 623 m 1,0,-1
 247 623 l 1,1,-1
 139 0 l 1,2,-1
 86 0 l 1,3,-1
 337 1456 l 1,4,-1
 783 1456 l 2,5,6
 915 1455 915 1455 1013.5 1401.5 c 128,-1,7
 1112 1348 1112 1348 1156 1253 c 128,-1,8
 1200 1158 1200 1158 1180 1036 c 0,9,10
 1155 888 1155 888 1048.5 778.5 c 128,-1,11
 942 669 942 669 793 636 c 1,12,-1
 1062 14 l 1,13,-1
 1060 0 l 1,14,-1
 1005 0 l 1,15,-1
 737 623 l 1,0,-1
256 677 m 1,16,-1
 684 677 l 2,17,18
 849 677 849 677 972.5 778 c 128,-1,19
 1096 879 1096 879 1126 1036 c 0,20,21
 1156 1201 1156 1201 1057 1301.5 c 128,-1,22
 958 1402 958 1402 767 1402 c 2,23,-1
 382 1402 l 1,24,-1
 256 677 l 1,16,-1
EndSplineSet
Substitution2: "'ss03' Style Set 3 in Cyrillic lookup 30 subtable" R.ss03
Substitution2: "'ss03' Style Set 3 in Greek lookup 29 subtable" R.ss03
Substitution2: "'ss03' Style Set 3 lookup 28 subtable" R.ss03
Substitution2: "'ss03' Style Set 3 in Latin lookup 27 subtable" R.ss03
Substitution2: "'c2sc' Capitals to Small Capitals in Cyrillic lookup 3 subtable" R.c2sc
Substitution2: "'c2sc' Capitals to Small Capitals in Greek lookup 2 subtable" R.c2sc
Substitution2: "'c2sc' Capitals to Small Capitals lookup 1 subtable" R.c2sc
Substitution2: "'c2sc' Capitals to Small Capitals in Latin lookup 0 subtable" R.c2sc
Position2: "'cpsp' Capital Spacing in Cyrillic lookup 3 subtable" dx=36 dy=0 dh=72 dv=0
Position2: "'cpsp' Capital Spacing in Greek lookup 2 subtable" dx=36 dy=0 dh=72 dv=0
Position2: "'cpsp' Capital Spacing lookup 1 subtable" dx=36 dy=0 dh=72 dv=0
Position2: "'cpsp' Capital Spacing in Latin lookup 0 subtable" dx=36 dy=0 dh=72 dv=0
EndChar

StartChar: S
Encoding: 83 83 55
Width: 1185
Flags: W
LayerCount: 2
Back
Fore
SplineSet
1009 453 m 0,0,1
 989 544 989 544 904 604.5 c 128,-1,2
 819 665 819 665 641 718.5 c 128,-1,3
 463 772 463 772 378 826.5 c 128,-1,4
 293 881 293 881 258.5 955 c 128,-1,5
 224 1029 224 1029 240 1120 c 0,6,7
 257 1227 257 1227 331 1307.5 c 128,-1,8
 405 1388 405 1388 520.5 1432 c 128,-1,9
 636 1476 636 1476 766 1476 c 0,10,11
 895 1476 895 1476 994.5 1420 c 128,-1,12
 1094 1364 1094 1364 1139.5 1266 c 128,-1,13
 1185 1168 1185 1168 1169 1046 c 1,14,-1
 1115 1046 l 1,15,16
 1140 1209 1140 1209 1041 1315.5 c 128,-1,17
 942 1422 942 1422 767 1422 c 0,18,19
 604 1422 604 1422 472 1348.5 c 128,-1,20
 340 1275 340 1275 303 1153 c 0,21,22
 281 1080 281 1080 295 1022 c 0,23,24
 315 933 315 933 404.5 874.5 c 128,-1,25
 494 816 494 816 652 771 c 0,26,27
 896 702 896 702 992 600 c 128,-1,28
 1088 498 1088 498 1063 351 c 0,29,30
 1046 240 1046 240 970.5 156.5 c 128,-1,31
 895 73 895 73 776 26.5 c 128,-1,32
 657 -20 657 -20 524 -20 c 0,33,34
 296 -20 296 -20 170 98 c 128,-1,35
 44 216 44 216 71 411 c 1,36,-1
 125 411 l 1,37,38
 100 239 100 239 210 136.5 c 128,-1,39
 320 34 320 34 523 34 c 0,40,41
 686 34 686 34 818 106.5 c 128,-1,42
 950 179 950 179 994 300 c 0,43,44
 1024 383 1024 383 1009 453 c 0,0,1
EndSplineSet
Substitution2: "'c2sc' Capitals to Small Capitals in Cyrillic lookup 3 subtable" S.c2sc
Substitution2: "'c2sc' Capitals to Small Capitals in Greek lookup 2 subtable" S.c2sc
Substitution2: "'c2sc' Capitals to Small Capitals lookup 1 subtable" S.c2sc
Substitution2: "'c2sc' Capitals to Small Capitals in Latin lookup 0 subtable" S.c2sc
Position2: "'cpsp' Capital Spacing in Cyrillic lookup 3 subtable" dx=36 dy=0 dh=72 dv=0
Position2: "'cpsp' Capital Spacing in Greek lookup 2 subtable" dx=36 dy=0 dh=72 dv=0
Position2: "'cpsp' Capital Spacing lookup 1 subtable" dx=36 dy=0 dh=72 dv=0
Position2: "'cpsp' Capital Spacing in Latin lookup 0 subtable" dx=36 dy=0 dh=72 dv=0
EndChar

StartChar: T
Encoding: 84 84 56
Width: 1197
Flags: W
LayerCount: 2
Back
Fore
SplineSet
1275 1402 m 1,0,-1
 760 1402 l 1,1,-1
 518 0 l 1,2,-1
 464 0 l 1,3,-1
 706 1402 l 1,4,-1
 193 1402 l 1,5,-1
 200 1456 l 1,6,-1
 1282 1456 l 1,7,-1
 1275 1402 l 1,0,-1
EndSplineSet
Substitution2: "'c2sc' Capitals to Small Capitals in Cyrillic lookup 3 subtable" T.c2sc
Substitution2: "'c2sc' Capitals to Small Capitals in Greek lookup 2 subtable" T.c2sc
Substitution2: "'c2sc' Capitals to Small Capitals lookup 1 subtable" T.c2sc
Substitution2: "'c2sc' Capitals to Small Capitals in Latin lookup 0 subtable" T.c2sc
Position2: "'cpsp' Capital Spacing in Cyrillic lookup 3 subtable" dx=36 dy=0 dh=72 dv=0
Position2: "'cpsp' Capital Spacing in Greek lookup 2 subtable" dx=36 dy=0 dh=72 dv=0
Position2: "'cpsp' Capital Spacing lookup 1 subtable" dx=36 dy=0 dh=72 dv=0
Position2: "'cpsp' Capital Spacing in Latin lookup 0 subtable" dx=36 dy=0 dh=72 dv=0
EndChar

StartChar: U
Encoding: 85 85 57
Width: 1334
Flags: W
LayerCount: 2
Back
Fore
SplineSet
1299 1456 m 1,0,-1
 1130 475 l 2,1,2
 1091 250 1091 250 938 115 c 128,-1,3
 785 -20 785 -20 566 -20 c 0,4,5
 427 -20 427 -20 327 41 c 128,-1,6
 227 102 227 102 183 215 c 128,-1,7
 139 328 139 328 162 469 c 2,8,-1
 333 1456 l 1,9,-1
 386 1456 l 1,10,-1
 216 469 l 2,11,12
 185 277 185 277 283 155.5 c 128,-1,13
 381 34 381 34 566 34 c 0,14,15
 760 34 760 34 901.5 158 c 128,-1,16
 1043 282 1043 282 1078 486 c 2,17,-1
 1245 1456 l 1,18,-1
 1299 1456 l 1,0,-1
EndSplineSet
Substitution2: "'c2sc' Capitals to Small Capitals in Cyrillic lookup 3 subtable" U.c2sc
Substitution2: "'c2sc' Capitals to Small Capitals in Greek lookup 2 subtable" U.c2sc
Substitution2: "'c2sc' Capitals to Small Capitals lookup 1 subtable" U.c2sc
Substitution2: "'c2sc' Capitals to Small Capitals in Latin lookup 0 subtable" U.c2sc
Position2: "'cpsp' Capital Spacing in Cyrillic lookup 3 subtable" dx=36 dy=0 dh=72 dv=0
Position2: "'cpsp' Capital Spacing in Greek lookup 2 subtable" dx=36 dy=0 dh=72 dv=0
Position2: "'cpsp' Capital Spacing lookup 1 subtable" dx=36 dy=0 dh=72 dv=0
Position2: "'cpsp' Capital Spacing in Latin lookup 0 subtable" dx=36 dy=0 dh=72 dv=0
EndChar

StartChar: V
Encoding: 86 86 58
Width: 1196
Flags: W
LayerCount: 2
Back
Fore
SplineSet
494 142 m 1,0,-1
 507 57 l 1,1,-1
 550 146 l 1,2,-1
 1228 1455 l 1,3,-1
 1288 1455 l 1,4,-1
 535 0 l 1,5,-1
 470 0 l 1,6,-1
 167 1457 l 1,7,-1
 224 1457 l 1,8,-1
 494 142 l 1,0,-1
EndSplineSet
Substitution2: "'c2sc' Capitals to Small Capitals in Cyrillic lookup 3 subtable" V.c2sc
Substitution2: "'c2sc' Capitals to Small Capitals in Greek lookup 2 subtable" V.c2sc
Substitution2: "'c2sc' Capitals to Small Capitals lookup 1 subtable" V.c2sc
Substitution2: "'c2sc' Capitals to Small Capitals in Latin lookup 0 subtable" V.c2sc
Position2: "'cpsp' Capital Spacing in Cyrillic lookup 3 subtable" dx=36 dy=0 dh=72 dv=0
Position2: "'cpsp' Capital Spacing in Greek lookup 2 subtable" dx=36 dy=0 dh=72 dv=0
Position2: "'cpsp' Capital Spacing lookup 1 subtable" dx=36 dy=0 dh=72 dv=0
Position2: "'cpsp' Capital Spacing in Latin lookup 0 subtable" dx=36 dy=0 dh=72 dv=0
EndChar

StartChar: W
Encoding: 87 87 59
Width: 1809
Flags: W
LayerCount: 2
Back
Fore
SplineSet
394 94 m 1,0,-1
 496 334 l 1,1,-1
 1003 1456 l 1,2,-1
 1063 1456 l 1,3,-1
 1220 326 l 1,4,-1
 1244 94 l 1,5,-1
 1349 334 l 1,6,-1
 1814 1455 l 1,7,-1
 1874 1455 l 1,8,-1
 1268 0 l 1,9,-1
 1208 0 l 1,10,-1
 1045 1218 l 1,11,-1
 1022 1365 l 1,12,-1
 949 1210 l 1,13,-1
 409 0 l 1,14,-1
 348 0 l 1,15,-1
 192 1456 l 1,16,-1
 250 1456 l 1,17,-1
 394 94 l 1,0,-1
EndSplineSet
Substitution2: "'c2sc' Capitals to Small Capitals in Cyrillic lookup 3 subtable" W.c2sc
Substitution2: "'c2sc' Capitals to Small Capitals in Greek lookup 2 subtable" W.c2sc
Substitution2: "'c2sc' Capitals to Small Capitals lookup 1 subtable" W.c2sc
Substitution2: "'c2sc' Capitals to Small Capitals in Latin lookup 0 subtable" W.c2sc
Position2: "'cpsp' Capital Spacing in Cyrillic lookup 3 subtable" dx=36 dy=0 dh=72 dv=0
Position2: "'cpsp' Capital Spacing in Greek lookup 2 subtable" dx=36 dy=0 dh=72 dv=0
Position2: "'cpsp' Capital Spacing lookup 1 subtable" dx=36 dy=0 dh=72 dv=0
Position2: "'cpsp' Capital Spacing in Latin lookup 0 subtable" dx=36 dy=0 dh=72 dv=0
EndChar

StartChar: X
Encoding: 88 88 60
Width: 1196
Flags: W
LayerCount: 2
Back
Fore
SplineSet
619 786 m 1,0,-1
 1180 1455 l 1,1,-1
 1249 1455 l 1,2,-1
 648 739 l 1,3,-1
 1041 0 l 1,4,-1
 977 0 l 1,5,-1
 611 700 l 1,6,-1
 25 0 l 1,7,-1
 -42 0 l 1,8,-1
 582 747 l 1,9,-1
 203 1457 l 1,10,-1
 268 1457 l 1,11,-1
 619 786 l 1,0,-1
EndSplineSet
Substitution2: "'c2sc' Capitals to Small Capitals in Cyrillic lookup 3 subtable" X.c2sc
Substitution2: "'c2sc' Capitals to Small Capitals in Greek lookup 2 subtable" X.c2sc
Substitution2: "'c2sc' Capitals to Small Capitals lookup 1 subtable" X.c2sc
Substitution2: "'c2sc' Capitals to Small Capitals in Latin lookup 0 subtable" X.c2sc
Position2: "'cpsp' Capital Spacing in Cyrillic lookup 3 subtable" dx=36 dy=0 dh=72 dv=0
Position2: "'cpsp' Capital Spacing in Greek lookup 2 subtable" dx=36 dy=0 dh=72 dv=0
Position2: "'cpsp' Capital Spacing lookup 1 subtable" dx=36 dy=0 dh=72 dv=0
Position2: "'cpsp' Capital Spacing in Latin lookup 0 subtable" dx=36 dy=0 dh=72 dv=0
EndChar

StartChar: Y
Encoding: 89 89 61
Width: 1196
Flags: W
LayerCount: 2
Back
Fore
SplineSet
589 604 m 1,0,-1
 1231 1455 l 1,1,-1
 1299 1454 l 1,2,-1
 609 549 l 1,3,-1
 515 0 l 1,4,-1
 461 0 l 1,5,-1
 557 558 l 1,6,-1
 179 1457 l 1,7,-1
 248 1457 l 1,8,-1
 589 604 l 1,0,-1
EndSplineSet
Substitution2: "'c2sc' Capitals to Small Capitals in Cyrillic lookup 3 subtable" Y.c2sc
Substitution2: "'c2sc' Capitals to Small Capitals in Greek lookup 2 subtable" Y.c2sc
Substitution2: "'c2sc' Capitals to Small Capitals lookup 1 subtable" Y.c2sc
Substitution2: "'c2sc' Capitals to Small Capitals in Latin lookup 0 subtable" Y.c2sc
Position2: "'cpsp' Capital Spacing in Cyrillic lookup 3 subtable" dx=36 dy=0 dh=72 dv=0
Position2: "'cpsp' Capital Spacing in Greek lookup 2 subtable" dx=36 dy=0 dh=72 dv=0
Position2: "'cpsp' Capital Spacing lookup 1 subtable" dx=36 dy=0 dh=72 dv=0
Position2: "'cpsp' Capital Spacing in Latin lookup 0 subtable" dx=36 dy=0 dh=72 dv=0
EndChar

StartChar: Z
Encoding: 90 90 62
Width: 1197
Flags: W
LayerCount: 2
Back
Fore
SplineSet
72 54 m 1,0,-1
 1002 54 l 1,1,-1
 994 0 l 1,2,-1
 -12 0 l 1,3,-1
 -5 44 l 1,4,-1
 1128 1403 l 1,5,-1
 270 1403 l 1,6,-1
 277 1456 l 1,7,-1
 1213 1455 l 1,8,-1
 1208 1418 l 1,9,-1
 72 54 l 1,0,-1
EndSplineSet
Substitution2: "'c2sc' Capitals to Small Capitals in Cyrillic lookup 3 subtable" Z.c2sc
Substitution2: "'c2sc' Capitals to Small Capitals in Greek lookup 2 subtable" Z.c2sc
Substitution2: "'c2sc' Capitals to Small Capitals lookup 1 subtable" Z.c2sc
Substitution2: "'c2sc' Capitals to Small Capitals in Latin lookup 0 subtable" Z.c2sc
Position2: "'cpsp' Capital Spacing in Cyrillic lookup 3 subtable" dx=36 dy=0 dh=72 dv=0
Position2: "'cpsp' Capital Spacing in Greek lookup 2 subtable" dx=36 dy=0 dh=72 dv=0
Position2: "'cpsp' Capital Spacing lookup 1 subtable" dx=36 dy=0 dh=72 dv=0
Position2: "'cpsp' Capital Spacing in Latin lookup 0 subtable" dx=36 dy=0 dh=72 dv=0
EndChar

StartChar: bracketleft
Encoding: 91 91 63
Width: 436
Flags: W
LayerCount: 2
Back
Fore
SplineSet
610 1610 m 1,0,-1
 387 1610 l 1,1,-1
 95 -258 l 1,2,-1
 316 -258 l 1,3,-1
 309 -312 l 1,4,-1
 32 -312 l 1,5,-1
 341 1664 l 1,6,-1
 616 1664 l 1,7,-1
 610 1610 l 1,0,-1
EndSplineSet
EndChar

StartChar: backslash
Encoding: 92 92 64
Width: 761
Flags: W
LayerCount: 2
Back
Fore
SplineSet
203 1457 m 1,0,-1
 259 1457 l 1,1,-1
 577 -126 l 1,2,-1
 521 -126 l 1,3,-1
 203 1457 l 1,0,-1
EndSplineSet
EndChar

StartChar: bracketright
Encoding: 93 93 65
Width: 436
Flags: W
LayerCount: 2
Back
Fore
SplineSet
157 1664 m 1,0,-1
 434 1664 l 1,1,-1
 125 -312 l 1,2,-1
 -150 -312 l 1,3,-1
 -143 -258 l 1,4,-1
 79 -258 l 1,5,-1
 370 1610 l 1,6,-1
 150 1610 l 1,7,-1
 157 1664 l 1,0,-1
EndSplineSet
EndChar

StartChar: asciicircum
Encoding: 94 94 66
Width: 834
Flags: W
LayerCount: 2
Back
Fore
SplineSet
541 1380 m 1,0,-1
 171 730 l 1,1,-1
 110 730 l 1,2,-1
 524 1456 l 1,3,-1
 575 1456 l 1,4,-1
 743 728 l 1,5,-1
 684 728 l 1,6,-1
 541 1380 l 1,0,-1
EndSplineSet
EndChar

StartChar: underscore
Encoding: 95 95 67
Width: 830
Flags: W
LayerCount: 2
Back
Fore
SplineSet
708 -54 m 1,0,-1
 -114 -54 l 1,1,-1
 -106 0 l 1,2,-1
 716 0 l 1,3,-1
 708 -54 l 1,0,-1
EndSplineSet
EndChar

StartChar: grave
Encoding: 96 96 68
Width: 531
Flags: W
LayerCount: 2
Back
Fore
SplineSet
494 1249 m 1,0,-1
 438 1249 l 1,1,-1
 286 1517 l 1,2,-1
 349 1517 l 1,3,-1
 494 1249 l 1,0,-1
EndSplineSet
EndChar

StartChar: a
Encoding: 97 97 69
Width: 1059
Flags: W
LayerCount: 2
Back
Fore
SplineSet
750 0 m 1,0,1
 747 88 747 88 769 198 c 1,2,3
 685 95 685 95 569.5 37 c 128,-1,4
 454 -21 454 -21 319 -20 c 0,5,6
 183 -20 183 -20 102 64 c 128,-1,7
 21 148 21 148 41 274 c 0,8,9
 66 427 66 427 210.5 513 c 128,-1,10
 355 599 355 599 577 604 c 1,11,-1
 834 604 l 1,12,-1
 863 762 l 2,13,14
 884 895 884 895 810 971.5 c 128,-1,15
 736 1048 736 1048 597 1048 c 0,16,17
 461 1048 461 1048 351 975.5 c 128,-1,18
 241 903 241 903 213 785 c 1,19,-1
 159 787 l 1,20,21
 187 926 187 926 313 1014 c 128,-1,22
 439 1102 439 1102 597 1102 c 0,23,24
 762 1102 762 1102 850 1008.5 c 128,-1,25
 938 915 938 915 915 760 c 2,26,-1
 816 182 l 1,27,-1
 809 114 l 2,28,29
 804 61 804 61 813 9 c 1,30,-1
 812 0 l 1,31,-1
 750 0 l 1,0,1
318 33 m 0,32,33
 452 31 452 31 573 97.5 c 128,-1,34
 694 164 694 164 779 292 c 1,35,-1
 825 549 l 1,36,-1
 583 549 l 1,37,38
 381 545 381 545 249.5 471.5 c 128,-1,39
 118 398 118 398 94 270 c 0,40,41
 76 171 76 171 141.5 103 c 128,-1,42
 207 35 207 35 318 33 c 0,32,33
EndSplineSet
Substitution2: "'smcp' Lowercase to Small Capitals in Cyrillic lookup 7 subtable" A.c2sc
Substitution2: "'smcp' Lowercase to Small Capitals in Greek lookup 6 subtable" A.c2sc
Substitution2: "'smcp' Lowercase to Small Capitals lookup 5 subtable" A.c2sc
Substitution2: "'smcp' Lowercase to Small Capitals in Latin lookup 4 subtable" A.c2sc
EndChar

StartChar: b
Encoding: 98 98 70
Width: 1097
Flags: W
LayerCount: 2
Back
Fore
SplineSet
473 -20 m 0,0,1
 361 -20 361 -20 274.5 29 c 128,-1,2
 188 78 188 78 146 171 c 1,3,-1
 115 0 l 1,4,-1
 61 0 l 1,5,-1
 326 1536 l 1,6,-1
 380 1536 l 1,7,-1
 264 885 l 1,8,9
 339 990 339 990 439.5 1046 c 128,-1,10
 540 1102 540 1102 656 1102 c 0,11,12
 761 1102 761 1102 835 1050 c 128,-1,13
 909 998 909 998 943.5 897.5 c 128,-1,14
 978 797 978 797 974 675 c 0,15,16
 971 611 971 611 962 552 c 2,17,-1
 949 486 l 1,18,19
 897 251 897 251 771 115.5 c 128,-1,20
 645 -20 645 -20 473 -20 c 0,0,1
906 552 m 1,21,-1
 918 659 l 1,22,23
 926 768 926 768 899.5 861 c 128,-1,24
 873 954 873 954 810.5 1001 c 128,-1,25
 748 1048 748 1048 657 1048 c 0,26,27
 524 1048 524 1048 406.5 968 c 128,-1,28
 289 888 289 888 249 770 c 1,29,-1
 160 274 l 1,30,31
 184 158 184 158 267.5 96 c 128,-1,32
 351 34 351 34 473 34 c 0,33,34
 634 34 634 34 746 166.5 c 128,-1,35
 858 299 858 299 902 531 c 2,36,-1
 906 552 l 1,21,-1
EndSplineSet
Substitution2: "'ss06' Style Set 6 in Cyrillic lookup 42 subtable" b.ss06
Substitution2: "'ss06' Style Set 6 in Greek lookup 41 subtable" b.ss06
Substitution2: "'ss06' Style Set 6 lookup 40 subtable" b.ss06
Substitution2: "'ss06' Style Set 6 in Latin lookup 39 subtable" b.ss06
Substitution2: "'smcp' Lowercase to Small Capitals in Cyrillic lookup 7 subtable" B.c2sc
Substitution2: "'smcp' Lowercase to Small Capitals in Greek lookup 6 subtable" B.c2sc
Substitution2: "'smcp' Lowercase to Small Capitals lookup 5 subtable" B.c2sc
Substitution2: "'smcp' Lowercase to Small Capitals in Latin lookup 4 subtable" B.c2sc
EndChar

StartChar: c
Encoding: 99 99 71
Width: 1018
Flags: W
LayerCount: 2
Back
Fore
SplineSet
430 34 m 0,0,1
 572 34 572 34 676.5 115 c 128,-1,2
 781 196 781 196 816 327 c 1,3,-1
 870 327 l 1,4,5
 834 172 834 172 713 76 c 128,-1,6
 592 -20 592 -20 431 -20 c 0,7,8
 282 -20 282 -20 189.5 72.5 c 128,-1,9
 97 165 97 165 78 329 c 0,10,11
 67 424 67 424 81 520 c 2,12,-1
 87 562 l 2,13,14
 113 721 113 721 186.5 847 c 128,-1,15
 260 973 260 973 364.5 1037.5 c 128,-1,16
 469 1102 469 1102 595 1102 c 0,17,18
 758 1102 758 1102 851.5 996 c 128,-1,19
 945 890 945 890 933 725 c 1,20,-1
 879 725 l 1,21,22
 892 869 892 869 812.5 958.5 c 128,-1,23
 733 1048 733 1048 596 1048 c 0,24,25
 407 1048 407 1048 282 893.5 c 128,-1,26
 157 739 157 739 130 480 c 1,27,-1
 126 407 l 1,28,29
 126 231 126 231 205 132.5 c 128,-1,30
 284 34 284 34 430 34 c 0,0,1
EndSplineSet
Substitution2: "'ss06' Style Set 6 in Cyrillic lookup 42 subtable" c.ss06
Substitution2: "'ss06' Style Set 6 in Greek lookup 41 subtable" c.ss06
Substitution2: "'ss06' Style Set 6 lookup 40 subtable" c.ss06
Substitution2: "'ss06' Style Set 6 in Latin lookup 39 subtable" c.ss06
Substitution2: "'smcp' Lowercase to Small Capitals in Cyrillic lookup 7 subtable" C.c2sc
Substitution2: "'smcp' Lowercase to Small Capitals in Greek lookup 6 subtable" C.c2sc
Substitution2: "'smcp' Lowercase to Small Capitals lookup 5 subtable" C.c2sc
Substitution2: "'smcp' Lowercase to Small Capitals in Latin lookup 4 subtable" C.c2sc
EndChar

StartChar: d
Encoding: 100 100 72
Width: 1097
Flags: W
LayerCount: 2
Back
Fore
SplineSet
111 552 m 0,0,1
 139 715 139 715 209.5 844 c 128,-1,2
 280 973 280 973 380 1037.5 c 128,-1,3
 480 1102 480 1102 598 1102 c 0,4,5
 712 1102 712 1102 796.5 1045 c 128,-1,6
 881 988 881 988 919 883 c 1,7,-1
 1033 1536 l 1,8,-1
 1087 1536 l 1,9,-1
 822 0 l 1,10,-1
 768 0 l 1,11,-1
 802 173 l 1,12,13
 730 82 730 82 630 31 c 128,-1,14
 530 -20 530 -20 412 -20 c 0,15,16
 306 -20 306 -20 234 32.5 c 128,-1,17
 162 85 162 85 127.5 186.5 c 128,-1,18
 93 288 93 288 97 410 c 0,19,20
 99 467 99 467 111 552 c 0,0,1
152 425 m 0,21,22
 144 315 144 315 169 223 c 128,-1,23
 194 131 194 131 255.5 82.5 c 128,-1,24
 317 34 317 34 410 34 c 0,25,26
 540 33 540 33 643.5 96 c 128,-1,27
 747 159 747 159 813 268 c 1,28,-1
 903 775 l 1,29,30
 882 905 882 905 802.5 976.5 c 128,-1,31
 723 1048 723 1048 598 1048 c 0,32,33
 471 1048 471 1048 372 963.5 c 128,-1,34
 273 879 273 879 217 729 c 128,-1,35
 161 579 161 579 152 425 c 0,21,22
EndSplineSet
Substitution2: "'ss06' Style Set 6 in Cyrillic lookup 42 subtable" d.ss06
Substitution2: "'ss06' Style Set 6 in Greek lookup 41 subtable" d.ss06
Substitution2: "'ss06' Style Set 6 lookup 40 subtable" d.ss06
Substitution2: "'ss06' Style Set 6 in Latin lookup 39 subtable" d.ss06
Substitution2: "'smcp' Lowercase to Small Capitals in Cyrillic lookup 7 subtable" D.c2sc
Substitution2: "'smcp' Lowercase to Small Capitals in Greek lookup 6 subtable" D.c2sc
Substitution2: "'smcp' Lowercase to Small Capitals lookup 5 subtable" D.c2sc
Substitution2: "'smcp' Lowercase to Small Capitals in Latin lookup 4 subtable" D.c2sc
EndChar

StartChar: e
Encoding: 101 101 73
Width: 1011
Flags: W
LayerCount: 2
Back
Fore
SplineSet
458 -20 m 0,0,1
 328 -20 328 -20 234 53 c 128,-1,2
 140 126 140 126 98.5 252.5 c 128,-1,3
 57 379 57 379 77 518 c 2,4,-1
 85 568 l 2,5,6
 109 714 109 714 187.5 841 c 128,-1,7
 266 968 266 968 374 1035 c 128,-1,8
 482 1102 482 1102 605 1102 c 0,9,10
 769 1102 769 1102 862 981 c 128,-1,11
 955 860 955 860 941 671 c 1,12,-1
 938 640 l 1,13,-1
 929 577 l 1,14,-1
 143 577 l 1,15,-1
 132 518 l 2,16,17
 118 434 118 434 131 348 c 0,18,19
 153 205 153 205 240.5 119.5 c 128,-1,20
 328 34 328 34 457 33 c 0,21,22
 644 31 644 31 794 181 c 1,23,-1
 830 153 l 1,24,25
 682 -20 682 -20 458 -20 c 0,0,1
605 1048 m 0,26,27
 451 1048 451 1048 329.5 932.5 c 128,-1,28
 208 817 208 817 149 631 c 1,29,-1
 879 631 l 1,30,-1
 882 644 l 2,31,32
 895 716 895 716 884 788 c 0,33,34
 866 906 866 906 790.5 977 c 128,-1,35
 715 1048 715 1048 605 1048 c 0,26,27
EndSplineSet
Substitution2: "'ss07' Style Set 7 in Cyrillic lookup 46 subtable" e.ss07
Substitution2: "'ss07' Style Set 7 in Greek lookup 45 subtable" e.ss07
Substitution2: "'ss07' Style Set 7 lookup 44 subtable" e.ss07
Substitution2: "'ss07' Style Set 7 in Latin lookup 43 subtable" e.ss07
Substitution2: "'smcp' Lowercase to Small Capitals in Cyrillic lookup 7 subtable" E.c2sc
Substitution2: "'smcp' Lowercase to Small Capitals in Greek lookup 6 subtable" E.c2sc
Substitution2: "'smcp' Lowercase to Small Capitals lookup 5 subtable" E.c2sc
Substitution2: "'smcp' Lowercase to Small Capitals in Latin lookup 4 subtable" E.c2sc
EndChar

StartChar: f
Encoding: 102 102 74
Width: 636
Flags: W
LayerCount: 2
Back
Fore
SplineSet
143 0 m 1,0,-1
 319 1027 l 1,1,-1
 139 1027 l 1,2,-1
 146 1082 l 1,3,-1
 330 1082 l 1,4,-1
 355 1236 l 2,5,6
 382 1383 382 1383 468 1469 c 128,-1,7
 554 1555 554 1555 683 1557 c 0,8,9
 746 1557 746 1557 809 1539 c 1,10,-1
 794 1489 l 1,11,12
 731 1505 731 1505 683 1503 c 0,13,14
 578 1501 578 1501 505 1427.5 c 128,-1,15
 432 1354 432 1354 409 1226 c 2,16,-1
 383 1082 l 1,17,-1
 660 1082 l 1,18,-1
 652 1027 l 1,19,-1
 374 1027 l 1,20,-1
 197 0 l 1,21,-1
 143 0 l 1,0,-1
EndSplineSet
Substitution2: "'smcp' Lowercase to Small Capitals in Cyrillic lookup 7 subtable" F.c2sc
Substitution2: "'smcp' Lowercase to Small Capitals in Greek lookup 6 subtable" F.c2sc
Substitution2: "'smcp' Lowercase to Small Capitals lookup 5 subtable" F.c2sc
Substitution2: "'smcp' Lowercase to Small Capitals in Latin lookup 4 subtable" F.c2sc
EndChar

StartChar: g
Encoding: 103 103 75
Width: 1099
Flags: W
LayerCount: 2
Back
Fore
SplineSet
108 552 m 0,0,1
 136 715 136 715 206.5 844 c 128,-1,2
 277 973 277 973 377 1037.5 c 128,-1,3
 477 1102 477 1102 595 1102 c 0,4,5
 712 1102 712 1102 795.5 1043.5 c 128,-1,6
 879 985 879 985 915 884 c 1,7,-1
 951 1082 l 1,8,-1
 1005 1082 l 1,9,-1
 826 38 l 2,10,11
 788 -185 788 -185 659.5 -310.5 c 128,-1,12
 531 -436 531 -436 351 -436 c 0,13,14
 146 -436 146 -436 33 -252 c 1,15,-1
 74 -218 l 1,16,17
 177 -383 177 -383 348 -383 c 0,18,19
 504 -383 504 -383 616.5 -277.5 c 128,-1,20
 729 -172 729 -172 767 20 c 2,21,-1
 797 171 l 1,22,23
 725 80 725 80 625.5 30 c 128,-1,24
 526 -20 526 -20 409 -20 c 0,25,26
 303 -20 303 -20 231 32.5 c 128,-1,27
 159 85 159 85 124.5 186.5 c 128,-1,28
 90 288 90 288 94 410 c 0,29,30
 96 467 96 467 108 552 c 0,0,1
148 425 m 0,31,32
 135 243 135 243 202.5 138.5 c 128,-1,33
 270 34 270 34 407 34 c 0,34,35
 536 34 536 34 640 97.5 c 128,-1,36
 744 161 744 161 810 276 c 1,37,-1
 898 767 l 1,38,39
 878 904 878 904 799.5 976 c 128,-1,40
 721 1048 721 1048 595 1048 c 0,41,42
 467 1048 467 1048 367 962 c 128,-1,43
 267 876 267 876 212 726 c 128,-1,44
 157 576 157 576 148 425 c 0,31,32
EndSplineSet
Substitution2: "'ss07' Style Set 7 in Cyrillic lookup 46 subtable" g.ss07
Substitution2: "'ss07' Style Set 7 in Greek lookup 45 subtable" g.ss07
Substitution2: "'ss07' Style Set 7 lookup 44 subtable" g.ss07
Substitution2: "'ss07' Style Set 7 in Latin lookup 43 subtable" g.ss07
Substitution2: "'ss06' Style Set 6 in Cyrillic lookup 42 subtable" g.ss06
Substitution2: "'ss06' Style Set 6 in Greek lookup 41 subtable" g.ss06
Substitution2: "'ss06' Style Set 6 lookup 40 subtable" g.ss06
Substitution2: "'ss06' Style Set 6 in Latin lookup 39 subtable" g.ss06
Substitution2: "'ss01' Style Set 1 in Cyrillic lookup 22 subtable" g.ss01
Substitution2: "'ss01' Style Set 1 in Greek lookup 21 subtable" g.ss01
Substitution2: "'ss01' Style Set 1 lookup 20 subtable" g.ss01
Substitution2: "'ss01' Style Set 1 in Latin lookup 19 subtable" g.ss01
Substitution2: "'smcp' Lowercase to Small Capitals in Cyrillic lookup 7 subtable" G.c2sc
Substitution2: "'smcp' Lowercase to Small Capitals in Greek lookup 6 subtable" G.c2sc
Substitution2: "'smcp' Lowercase to Small Capitals lookup 5 subtable" G.c2sc
Substitution2: "'smcp' Lowercase to Small Capitals in Latin lookup 4 subtable" G.c2sc
EndChar

StartChar: h
Encoding: 104 104 76
Width: 1097
Flags: W
LayerCount: 2
Back
Fore
SplineSet
256 830 m 1,0,1
 337 961 337 961 447 1031.5 c 128,-1,2
 557 1102 557 1102 674 1102 c 0,3,4
 798 1102 798 1102 869 1038 c 128,-1,5
 940 974 940 974 951 853 c 0,6,7
 957 777 957 777 943 694 c 2,8,-1
 823 0 l 1,9,-1
 769 0 l 1,10,-1
 889 694 l 2,11,12
 901 764 901 764 899 832 c 0,13,14
 894 938 894 938 836.5 994 c 128,-1,15
 779 1050 779 1050 672 1049 c 0,16,17
 535 1047 535 1047 408.5 942.5 c 128,-1,18
 282 838 282 838 237 693 c 1,19,-1
 117 0 l 1,20,-1
 63 0 l 1,21,-1
 328 1536 l 1,22,-1
 382 1536 l 1,23,-1
 256 830 l 1,0,1
EndSplineSet
Substitution2: "'smcp' Lowercase to Small Capitals in Cyrillic lookup 7 subtable" H.c2sc
Substitution2: "'smcp' Lowercase to Small Capitals in Greek lookup 6 subtable" H.c2sc
Substitution2: "'smcp' Lowercase to Small Capitals lookup 5 subtable" H.c2sc
Substitution2: "'smcp' Lowercase to Small Capitals in Latin lookup 4 subtable" H.c2sc
EndChar

StartChar: i
Encoding: 105 105 77
Width: 419
Flags: W
LayerCount: 2
Back
Fore
SplineSet
130 0 m 1,0,-1
 76 0 l 1,1,-1
 262 1082 l 1,2,-1
 316 1082 l 1,3,-1
 130 0 l 1,0,-1
294 1422 m 0,4,5
 297 1442 297 1442 315.5 1459 c 128,-1,6
 334 1476 334 1476 355 1476 c 0,7,8
 378 1476 378 1476 392.5 1458 c 128,-1,9
 407 1440 407 1440 403 1418 c 0,10,11
 400 1398 400 1398 381 1381.5 c 128,-1,12
 362 1365 362 1365 341 1365 c 0,13,14
 318 1366 318 1366 304 1383 c 128,-1,15
 290 1400 290 1400 294 1422 c 0,4,5
EndSplineSet
Substitution2: "Single Substitution lookup 74 subtable" glyph576
Substitution2: "'smcp' Lowercase to Small Capitals in Cyrillic lookup 7 subtable" I.c2sc
Substitution2: "'smcp' Lowercase to Small Capitals in Greek lookup 6 subtable" I.c2sc
Substitution2: "'smcp' Lowercase to Small Capitals lookup 5 subtable" I.c2sc
Substitution2: "'smcp' Lowercase to Small Capitals in Latin lookup 4 subtable" I.c2sc
EndChar

StartChar: j
Encoding: 106 106 78
Width: 442
Flags: W
LayerCount: 2
Back
Fore
SplineSet
317 1082 m 1,0,-1
 110 -118 l 2,1,2
 84 -269 84 -269 -4 -353 c 128,-1,3
 -92 -437 -92 -437 -219 -437 c 0,4,5
 -257 -437 -257 -437 -315 -417 c 1,6,-1
 -305 -365 l 1,7,8
 -258 -383 -258 -383 -218 -383 c 0,9,10
 -116 -385 -116 -385 -41 -313 c 128,-1,11
 34 -241 34 -241 55 -118 c 2,12,-1
 263 1082 l 1,13,-1
 317 1082 l 1,0,-1
300 1422 m 0,14,15
 303 1442 303 1442 321.5 1459 c 128,-1,16
 340 1476 340 1476 361 1476 c 0,17,18
 384 1476 384 1476 398.5 1458 c 128,-1,19
 413 1440 413 1440 409 1418 c 0,20,21
 406 1398 406 1398 387 1381.5 c 128,-1,22
 368 1365 368 1365 347 1365 c 0,23,24
 324 1366 324 1366 310 1383 c 128,-1,25
 296 1400 296 1400 300 1422 c 0,14,15
EndSplineSet
Substitution2: "Single Substitution lookup 74 subtable" glyph574
Substitution2: "'smcp' Lowercase to Small Capitals in Cyrillic lookup 7 subtable" J.c2sc
Substitution2: "'smcp' Lowercase to Small Capitals in Greek lookup 6 subtable" J.c2sc
Substitution2: "'smcp' Lowercase to Small Capitals lookup 5 subtable" J.c2sc
Substitution2: "'smcp' Lowercase to Small Capitals in Latin lookup 4 subtable" J.c2sc
EndChar

StartChar: k
Encoding: 107 107 79
Width: 950
Flags: W
LayerCount: 2
Back
Fore
SplineSet
376 584 m 1,0,-1
 373 582 l 1,1,-1
 193 445 l 1,2,-1
 117 0 l 1,3,-1
 63 0 l 1,4,-1
 328 1536 l 1,5,-1
 382 1536 l 1,6,-1
 205 513 l 1,7,-1
 900 1081 l 1,8,-1
 983 1081 l 1,9,-1
 416 618 l 1,10,-1
 822 0 l 1,11,-1
 756 0 l 1,12,-1
 376 584 l 1,0,-1
EndSplineSet
Substitution2: "'ss05' Style Set 5 in Cyrillic lookup 38 subtable" k.ss05
Substitution2: "'ss05' Style Set 5 in Greek lookup 37 subtable" k.ss05
Substitution2: "'ss05' Style Set 5 lookup 36 subtable" k.ss05
Substitution2: "'ss05' Style Set 5 in Latin lookup 35 subtable" k.ss05
Substitution2: "'ss04' Style Set 4 in Cyrillic lookup 34 subtable" k.ss04
Substitution2: "'ss04' Style Set 4 in Greek lookup 33 subtable" k.ss04
Substitution2: "'ss04' Style Set 4 lookup 32 subtable" k.ss04
Substitution2: "'ss04' Style Set 4 in Latin lookup 31 subtable" k.ss04
Substitution2: "'smcp' Lowercase to Small Capitals in Cyrillic lookup 7 subtable" K.c2sc
Substitution2: "'smcp' Lowercase to Small Capitals in Greek lookup 6 subtable" K.c2sc
Substitution2: "'smcp' Lowercase to Small Capitals lookup 5 subtable" K.c2sc
Substitution2: "'smcp' Lowercase to Small Capitals in Latin lookup 4 subtable" K.c2sc
EndChar

StartChar: l
Encoding: 108 108 80
Width: 419
Flags: W
LayerCount: 2
Back
Fore
SplineSet
130 0 m 1,0,-1
 76 0 l 1,1,-1
 340 1536 l 1,2,-1
 394 1536 l 1,3,-1
 130 0 l 1,0,-1
EndSplineSet
Substitution2: "'smcp' Lowercase to Small Capitals in Cyrillic lookup 7 subtable" L.c2sc
Substitution2: "'smcp' Lowercase to Small Capitals in Greek lookup 6 subtable" L.c2sc
Substitution2: "'smcp' Lowercase to Small Capitals lookup 5 subtable" L.c2sc
Substitution2: "'smcp' Lowercase to Small Capitals in Latin lookup 4 subtable" L.c2sc
EndChar

StartChar: m
Encoding: 109 109 81
Width: 1791
Flags: W
LayerCount: 2
Back
Fore
SplineSet
815 0 m 1,0,-1
 762 0 l 1,1,-1
 886 720 l 2,2,3
 897 788 897 788 893 849 c 0,4,5
 885 946 885 946 825.5 998 c 128,-1,6
 766 1050 766 1050 661 1049 c 0,7,8
 521 1047 521 1047 394.5 938.5 c 128,-1,9
 268 830 268 830 226 684 c 1,10,-1
 107 0 l 1,11,-1
 53 0 l 1,12,-1
 239 1082 l 1,13,-1
 294 1082 l 1,14,-1
 246 826 l 1,15,16
 327 959 327 959 436 1030.5 c 128,-1,17
 545 1102 545 1102 663 1102 c 0,18,19
 797 1102 797 1102 869.5 1035.5 c 128,-1,20
 942 969 942 969 946 846 c 1,21,22
 1018 963 1018 963 1132 1032.5 c 128,-1,23
 1246 1102 1246 1102 1375 1102 c 0,24,25
 1500 1102 1500 1102 1572 1037 c 128,-1,26
 1644 972 1644 972 1655 853 c 0,27,28
 1661 777 1661 777 1647 694 c 2,29,-1
 1527 0 l 1,30,-1
 1474 0 l 1,31,-1
 1594 700 l 2,32,33
 1606 769 1606 769 1603 833 c 0,34,35
 1598 939 1598 939 1539.5 994.5 c 128,-1,36
 1481 1050 1481 1050 1373 1049 c 0,37,38
 1279 1046 1279 1046 1186.5 1002 c 128,-1,39
 1094 958 1094 958 1027.5 882.5 c 128,-1,40
 961 807 961 807 940 720 c 1,41,-1
 815 0 l 1,0,-1
EndSplineSet
Substitution2: "'smcp' Lowercase to Small Capitals in Cyrillic lookup 7 subtable" M.c2sc
Substitution2: "'smcp' Lowercase to Small Capitals in Greek lookup 6 subtable" M.c2sc
Substitution2: "'smcp' Lowercase to Small Capitals lookup 5 subtable" M.c2sc
Substitution2: "'smcp' Lowercase to Small Capitals in Latin lookup 4 subtable" M.c2sc
EndChar

StartChar: n
Encoding: 110 110 82
Width: 1097
Flags: W
LayerCount: 2
Back
Fore
SplineSet
256 830 m 1,0,1
 337 961 337 961 447 1031.5 c 128,-1,2
 557 1102 557 1102 674 1102 c 0,3,4
 798 1102 798 1102 869 1038 c 128,-1,5
 940 974 940 974 951 853 c 0,6,7
 957 777 957 777 943 694 c 2,8,-1
 823 0 l 1,9,-1
 769 0 l 1,10,-1
 889 694 l 2,11,12
 901 764 901 764 899 832 c 0,13,14
 894 938 894 938 836.5 994 c 128,-1,15
 779 1050 779 1050 672 1049 c 0,16,17
 535 1047 535 1047 408.5 942.5 c 128,-1,18
 282 838 282 838 237 693 c 1,19,-1
 117 0 l 1,20,-1
 63 0 l 1,21,-1
 249 1082 l 1,22,-1
 303 1082 l 1,23,-1
 256 830 l 1,0,1
EndSplineSet
Substitution2: "'smcp' Lowercase to Small Capitals in Cyrillic lookup 7 subtable" N.c2sc
Substitution2: "'smcp' Lowercase to Small Capitals in Greek lookup 6 subtable" N.c2sc
Substitution2: "'smcp' Lowercase to Small Capitals lookup 5 subtable" N.c2sc
Substitution2: "'smcp' Lowercase to Small Capitals in Latin lookup 4 subtable" N.c2sc
EndChar

StartChar: o
Encoding: 111 111 83
Width: 1103
Flags: W
LayerCount: 2
Back
Fore
SplineSet
80 562 m 0,0,1
 105 713 105 713 181 837 c 128,-1,2
 257 961 257 961 371 1031.5 c 128,-1,3
 485 1102 485 1102 620 1102 c 0,4,5
 730 1102 730 1102 815 1053 c 128,-1,6
 900 1004 900 1004 950 907.5 c 128,-1,7
 1000 811 1000 811 1007 694 c 0,8,9
 1010 626 1010 626 995 520 c 0,10,11
 970 369 970 369 893.5 244 c 128,-1,12
 817 119 817 119 703.5 49.5 c 128,-1,13
 590 -20 590 -20 456 -20 c 0,14,15
 345 -20 345 -20 260.5 29.5 c 128,-1,16
 176 79 176 79 125.5 174.5 c 128,-1,17
 75 270 75 270 69 389 c 0,18,19
 65 456 65 456 80 562 c 0,0,1
127 348 m 0,20,21
 147 203 147 203 234 118.5 c 128,-1,22
 321 34 321 34 455 34 c 0,23,24
 612 34 612 34 738.5 144 c 128,-1,25
 865 254 865 254 921 441 c 0,26,27
 967 596 967 596 948 734 c 0,28,29
 926 879 926 879 839.5 963.5 c 128,-1,30
 753 1048 753 1048 621 1048 c 0,31,32
 464 1048 464 1048 337 936.5 c 128,-1,33
 210 825 210 825 154 641 c 0,34,35
 108 488 108 488 127 348 c 0,20,21
EndSplineSet
Substitution2: "'ss06' Style Set 6 in Cyrillic lookup 42 subtable" o.ss06
Substitution2: "'ss06' Style Set 6 in Greek lookup 41 subtable" o.ss06
Substitution2: "'ss06' Style Set 6 lookup 40 subtable" o.ss06
Substitution2: "'ss06' Style Set 6 in Latin lookup 39 subtable" o.ss06
Substitution2: "'smcp' Lowercase to Small Capitals in Cyrillic lookup 7 subtable" O.c2sc
Substitution2: "'smcp' Lowercase to Small Capitals in Greek lookup 6 subtable" O.c2sc
Substitution2: "'smcp' Lowercase to Small Capitals lookup 5 subtable" O.c2sc
Substitution2: "'smcp' Lowercase to Small Capitals in Latin lookup 4 subtable" O.c2sc
EndChar

StartChar: p
Encoding: 112 112 84
Width: 1097
Flags: W
LayerCount: 2
Back
Fore
SplineSet
473 -20 m 0,0,1
 358 -20 358 -20 272 30 c 128,-1,2
 186 80 186 80 146 168 c 1,3,-1
 43 -416 l 1,4,-1
 -11 -416 l 1,5,-1
 247 1082 l 1,6,-1
 301 1082 l 1,7,-1
 264 889 l 1,8,9
 335 985 335 985 434.5 1043.5 c 128,-1,10
 534 1102 534 1102 656 1102 c 0,11,12
 761 1102 761 1102 835 1050 c 128,-1,13
 909 998 909 998 943.5 897.5 c 128,-1,14
 978 797 978 797 974 675 c 0,15,16
 971 611 971 611 962 552 c 2,17,-1
 949 486 l 1,18,19
 897 251 897 251 771 115.5 c 128,-1,20
 645 -20 645 -20 473 -20 c 0,0,1
907 552 m 1,21,-1
 919 659 l 1,22,23
 929 849 929 849 860 948.5 c 128,-1,24
 791 1048 791 1048 657 1048 c 0,25,26
 525 1048 525 1048 407.5 969.5 c 128,-1,27
 290 891 290 891 250 775 c 1,28,-1
 160 269 l 1,29,30
 183 156 183 156 267.5 95 c 128,-1,31
 352 34 352 34 473 34 c 0,32,33
 635 34 635 34 747 166.5 c 128,-1,34
 859 299 859 299 904 535 c 2,35,-1
 907 552 l 1,21,-1
EndSplineSet
Substitution2: "'ss06' Style Set 6 in Cyrillic lookup 42 subtable" p.ss06
Substitution2: "'ss06' Style Set 6 in Greek lookup 41 subtable" p.ss06
Substitution2: "'ss06' Style Set 6 lookup 40 subtable" p.ss06
Substitution2: "'ss06' Style Set 6 in Latin lookup 39 subtable" p.ss06
Substitution2: "'smcp' Lowercase to Small Capitals in Cyrillic lookup 7 subtable" P.c2sc
Substitution2: "'smcp' Lowercase to Small Capitals in Greek lookup 6 subtable" P.c2sc
Substitution2: "'smcp' Lowercase to Small Capitals lookup 5 subtable" P.c2sc
Substitution2: "'smcp' Lowercase to Small Capitals in Latin lookup 4 subtable" P.c2sc
EndChar

StartChar: q
Encoding: 113 113 85
Width: 1097
Flags: W
LayerCount: 2
Back
Fore
SplineSet
111 552 m 0,0,1
 157 809 157 809 286 955.5 c 128,-1,2
 415 1102 415 1102 598 1102 c 0,3,4
 710 1102 710 1102 794.5 1048 c 128,-1,5
 879 994 879 994 919 889 c 1,6,-1
 955 1082 l 1,7,-1
 1008 1082 l 1,8,-1
 750 -416 l 1,9,-1
 696 -416 l 1,10,-1
 801 168 l 1,11,12
 728 79 728 79 628.5 29.5 c 128,-1,13
 529 -20 529 -20 412 -20 c 0,14,15
 308 -20 308 -20 235 32.5 c 128,-1,16
 162 85 162 85 127.5 186.5 c 128,-1,17
 93 288 93 288 97 410 c 0,18,19
 99 467 99 467 111 552 c 0,0,1
152 425 m 0,20,21
 144 315 144 315 169 223 c 128,-1,22
 194 131 194 131 255.5 82.5 c 128,-1,23
 317 34 317 34 410 34 c 0,24,25
 540 33 540 33 643.5 96 c 128,-1,26
 747 159 747 159 813 268 c 1,27,-1
 903 775 l 1,28,29
 882 902 882 902 802 975 c 128,-1,30
 722 1048 722 1048 598 1048 c 0,31,32
 479 1048 479 1048 384 973.5 c 128,-1,33
 289 899 289 899 225.5 749.5 c 128,-1,34
 162 600 162 600 152 425 c 0,20,21
EndSplineSet
Substitution2: "'ss06' Style Set 6 in Cyrillic lookup 42 subtable" q.ss06
Substitution2: "'ss06' Style Set 6 in Greek lookup 41 subtable" q.ss06
Substitution2: "'ss06' Style Set 6 lookup 40 subtable" q.ss06
Substitution2: "'ss06' Style Set 6 in Latin lookup 39 subtable" q.ss06
Substitution2: "'smcp' Lowercase to Small Capitals in Cyrillic lookup 7 subtable" Q.c2sc
Substitution2: "'smcp' Lowercase to Small Capitals in Greek lookup 6 subtable" Q.c2sc
Substitution2: "'smcp' Lowercase to Small Capitals lookup 5 subtable" Q.c2sc
Substitution2: "'smcp' Lowercase to Small Capitals in Latin lookup 4 subtable" Q.c2sc
EndChar

StartChar: r
Encoding: 114 114 86
Width: 674
Flags: W
LayerCount: 2
Back
Fore
SplineSet
708 1044 m 1,0,-1
 643 1049 l 1,1,2
 509 1049 509 1049 394 950 c 128,-1,3
 279 851 279 851 240 709 c 1,4,-1
 117 0 l 1,5,-1
 63 0 l 1,6,-1
 249 1082 l 1,7,-1
 303 1082 l 1,8,-1
 261 857 l 1,9,10
 329 973 329 973 427 1037.5 c 128,-1,11
 525 1102 525 1102 645 1102 c 0,12,13
 683 1102 683 1102 721 1090 c 1,14,-1
 708 1044 l 1,0,-1
EndSplineSet
Substitution2: "'smcp' Lowercase to Small Capitals in Cyrillic lookup 7 subtable" R.c2sc
Substitution2: "'smcp' Lowercase to Small Capitals in Greek lookup 6 subtable" R.c2sc
Substitution2: "'smcp' Lowercase to Small Capitals lookup 5 subtable" R.c2sc
Substitution2: "'smcp' Lowercase to Small Capitals in Latin lookup 4 subtable" R.c2sc
EndChar

StartChar: s
Encoding: 115 115 87
Width: 998
Flags: W
LayerCount: 2
Back
Fore
SplineSet
767 265 m 0,0,1
 803 453 803 453 493 532 c 1,2,-1
 382 564 l 1,3,4
 152 639 152 639 180 829 c 0,5,6
 198 952 198 952 310 1027 c 128,-1,7
 422 1102 422 1102 570 1102 c 0,8,9
 733 1102 733 1102 825 1018 c 128,-1,10
 917 934 917 934 903 793 c 1,11,-1
 849 793 l 1,12,13
 861 907 861 907 782 977.5 c 128,-1,14
 703 1048 703 1048 571 1048 c 0,15,16
 443 1048 443 1048 348 989 c 128,-1,17
 253 930 253 930 234 831 c 0,18,19
 204 672 204 672 418 605 c 1,20,-1
 567 562 l 1,21,-1
 617 545 l 1,22,23
 850 460 850 460 821 264 c 0,24,25
 802 135 802 135 687 57.5 c 128,-1,26
 572 -20 572 -20 412 -20 c 0,27,28
 245 -20 245 -20 145 61.5 c 128,-1,29
 45 143 45 143 59 275 c 1,30,-1
 112 275 l 1,31,32
 107 163 107 163 186.5 98.5 c 128,-1,33
 266 34 266 34 411 34 c 0,34,35
 549 37 549 37 649 100.5 c 128,-1,36
 749 164 749 164 767 265 c 0,0,1
EndSplineSet
Substitution2: "'smcp' Lowercase to Small Capitals in Cyrillic lookup 7 subtable" S.c2sc
Substitution2: "'smcp' Lowercase to Small Capitals in Greek lookup 6 subtable" S.c2sc
Substitution2: "'smcp' Lowercase to Small Capitals lookup 5 subtable" S.c2sc
Substitution2: "'smcp' Lowercase to Small Capitals in Latin lookup 4 subtable" S.c2sc
EndChar

StartChar: t
Encoding: 116 116 88
Width: 639
Flags: W
LayerCount: 2
Back
Fore
SplineSet
419 1374 m 1,0,-1
 369 1082 l 1,1,-1
 606 1082 l 1,2,-1
 599 1027 l 1,3,-1
 359 1027 l 1,4,-1
 222 235 l 1,5,-1
 218 180 l 2,6,7
 215 112 215 112 246 73.5 c 128,-1,8
 277 35 277 35 340 34 c 0,9,10
 368 34 368 34 449 43 c 1,11,-1
 451 -8 l 1,12,13
 405 -20 405 -20 342 -20 c 0,14,15
 172 -20 172 -20 165 155 c 0,16,17
 163 206 163 206 172 259 c 2,18,-1
 304 1027 l 1,19,-1
 111 1027 l 1,20,-1
 119 1082 l 1,21,-1
 314 1082 l 1,22,-1
 364 1374 l 1,23,-1
 419 1374 l 1,0,-1
EndSplineSet
Substitution2: "'smcp' Lowercase to Small Capitals in Cyrillic lookup 7 subtable" T.c2sc
Substitution2: "'smcp' Lowercase to Small Capitals in Greek lookup 6 subtable" T.c2sc
Substitution2: "'smcp' Lowercase to Small Capitals lookup 5 subtable" T.c2sc
Substitution2: "'smcp' Lowercase to Small Capitals in Latin lookup 4 subtable" T.c2sc
EndChar

StartChar: u
Encoding: 117 117 89
Width: 1097
Flags: W
LayerCount: 2
Back
Fore
SplineSet
766 0 m 1,0,-1
 800 175 l 1,1,2
 729 77 729 77 628 28.5 c 128,-1,3
 527 -20 527 -20 406 -20 c 0,4,5
 280 -20 280 -20 206.5 47 c 128,-1,6
 133 114 133 114 121 238 c 0,7,8
 114 317 114 317 128 401 c 2,9,-1
 245 1082 l 1,10,-1
 299 1082 l 1,11,-1
 180 393 l 2,12,13
 169 325 169 325 173 261 c 0,14,15
 178 153 178 153 238 93.5 c 128,-1,16
 298 34 298 34 404 34 c 0,17,18
 550 34 550 34 667 113.5 c 128,-1,19
 784 193 784 193 821 321 c 1,20,-1
 952 1082 l 1,21,-1
 1007 1082 l 1,22,-1
 821 0 l 1,23,-1
 766 0 l 1,0,-1
EndSplineSet
Substitution2: "'smcp' Lowercase to Small Capitals in Cyrillic lookup 7 subtable" U.c2sc
Substitution2: "'smcp' Lowercase to Small Capitals in Greek lookup 6 subtable" U.c2sc
Substitution2: "'smcp' Lowercase to Small Capitals lookup 5 subtable" U.c2sc
Substitution2: "'smcp' Lowercase to Small Capitals in Latin lookup 4 subtable" U.c2sc
EndChar

StartChar: v
Encoding: 118 118 90
Width: 959
Flags: W
LayerCount: 2
Back
Fore
SplineSet
393 88 m 1,0,-1
 926 1081 l 1,1,-1
 985 1081 l 1,2,-1
 410 0 l 1,3,-1
 357 0 l 1,4,-1
 116 1083 l 1,5,-1
 172 1083 l 1,6,-1
 393 88 l 1,0,-1
EndSplineSet
Substitution2: "'smcp' Lowercase to Small Capitals in Cyrillic lookup 7 subtable" V.c2sc
Substitution2: "'smcp' Lowercase to Small Capitals in Greek lookup 6 subtable" V.c2sc
Substitution2: "'smcp' Lowercase to Small Capitals lookup 5 subtable" V.c2sc
Substitution2: "'smcp' Lowercase to Small Capitals in Latin lookup 4 subtable" V.c2sc
EndChar

StartChar: w
Encoding: 119 119 91
Width: 1514
Flags: W
LayerCount: 2
Back
Fore
SplineSet
306 308 m 1,0,-1
 321 84 l 1,1,-1
 801 1082 l 1,2,-1
 855 1082 l 1,3,-1
 958 313 l 1,4,-1
 987 83 l 1,5,-1
 1088 317 l 1,6,-1
 1433 1081 l 1,7,-1
 1497 1081 l 1,8,-1
 1006 0 l 1,9,-1
 952 0 l 1,10,-1
 832 818 l 1,11,-1
 818 1003 l 1,12,-1
 730 809 l 1,13,-1
 337 0 l 1,14,-1
 283 0 l 1,15,-1
 163 1083 l 1,16,-1
 223 1082 l 1,17,-1
 306 308 l 1,0,-1
EndSplineSet
Substitution2: "'smcp' Lowercase to Small Capitals in Cyrillic lookup 7 subtable" W.c2sc
Substitution2: "'smcp' Lowercase to Small Capitals in Greek lookup 6 subtable" W.c2sc
Substitution2: "'smcp' Lowercase to Small Capitals lookup 5 subtable" W.c2sc
Substitution2: "'smcp' Lowercase to Small Capitals in Latin lookup 4 subtable" W.c2sc
EndChar

StartChar: x
Encoding: 120 120 92
Width: 959
Flags: W
LayerCount: 2
Back
Fore
SplineSet
472 603 m 1,0,-1
 882 1081 l 1,1,-1
 951 1080 l 1,2,-1
 499 551 l 1,3,-1
 802 0 l 1,4,-1
 738 0 l 1,5,-1
 462 507 l 1,6,-1
 28 0 l 1,7,-1
 -41 0 l 1,8,-1
 435 559 l 1,9,-1
 147 1083 l 1,10,-1
 212 1083 l 1,11,-1
 472 603 l 1,0,-1
EndSplineSet
Substitution2: "'smcp' Lowercase to Small Capitals in Cyrillic lookup 7 subtable" X.c2sc
Substitution2: "'smcp' Lowercase to Small Capitals in Greek lookup 6 subtable" X.c2sc
Substitution2: "'smcp' Lowercase to Small Capitals lookup 5 subtable" X.c2sc
Substitution2: "'smcp' Lowercase to Small Capitals in Latin lookup 4 subtable" X.c2sc
EndChar

StartChar: y
Encoding: 121 121 93
Width: 959
Flags: W
LayerCount: 2
Back
Fore
SplineSet
396 84 m 1,0,-1
 406 105 l 1,1,-1
 939 1081 l 1,2,-1
 1000 1081 l 1,3,-1
 316 -182 l 2,4,5
 242 -322 242 -322 166 -378.5 c 128,-1,6
 90 -435 90 -435 -3 -437 c 0,7,8
 -41 -437 -41 -437 -83 -426 c 1,9,-1
 -77 -375 l 1,10,11
 -26 -384 -26 -384 -9 -384 c 0,12,13
 124 -384 124 -384 221 -236 c 1,14,-1
 261 -170 l 1,15,-1
 358 11 l 1,16,-1
 124 1083 l 1,17,-1
 181 1083 l 1,18,-1
 396 84 l 1,0,-1
EndSplineSet
Substitution2: "'smcp' Lowercase to Small Capitals in Cyrillic lookup 7 subtable" Y.c2sc
Substitution2: "'smcp' Lowercase to Small Capitals in Greek lookup 6 subtable" Y.c2sc
Substitution2: "'smcp' Lowercase to Small Capitals lookup 5 subtable" Y.c2sc
Substitution2: "'smcp' Lowercase to Small Capitals in Latin lookup 4 subtable" Y.c2sc
EndChar

StartChar: z
Encoding: 122 122 94
Width: 959
Flags: W
LayerCount: 2
Back
Fore
SplineSet
64 54 m 1,0,-1
 808 54 l 1,1,-1
 800 0 l 1,2,-1
 -19 0 l 1,3,-1
 -12 44 l 1,4,-1
 845 1027 l 1,5,-1
 189 1027 l 1,6,-1
 197 1082 l 1,7,-1
 928 1081 l 1,8,-1
 921 1034 l 1,9,-1
 64 54 l 1,0,-1
EndSplineSet
Substitution2: "'smcp' Lowercase to Small Capitals in Cyrillic lookup 7 subtable" Z.c2sc
Substitution2: "'smcp' Lowercase to Small Capitals in Greek lookup 6 subtable" Z.c2sc
Substitution2: "'smcp' Lowercase to Small Capitals lookup 5 subtable" Z.c2sc
Substitution2: "'smcp' Lowercase to Small Capitals in Latin lookup 4 subtable" Z.c2sc
EndChar

StartChar: braceleft
Encoding: 123 123 95
Width: 650
Flags: W
LayerCount: 2
Back
Fore
SplineSet
463 -440 m 1,0,1
 354 -401 354 -401 291.5 -321 c 128,-1,2
 229 -241 229 -241 218 -129 c 0,3,4
 211 -57 211 -57 222 19 c 2,5,-1
 261 265 l 2,6,7
 270 325 270 325 264 375 c 0,8,9
 241 535 241 535 62 543 c 1,10,-1
 71 609 l 1,11,12
 189 615 189 615 261 685 c 128,-1,13
 333 755 333 755 357 885 c 1,14,-1
 393 1120 l 2,15,16
 450 1490 450 1490 778 1597 c 1,17,-1
 787 1551 l 1,18,19
 647 1502 647 1502 560 1391 c 128,-1,20
 473 1280 473 1280 449 1125 c 2,21,-1
 414 898 l 2,22,23
 374 636 374 636 158 575 c 1,24,25
 230 552 230 552 271 496.5 c 128,-1,26
 312 441 312 441 318 364 c 0,27,28
 321 312 321 312 314 265 c 2,29,-1
 276 20 l 2,30,31
 265 -50 265 -50 272 -114 c 0,32,33
 292 -319 292 -319 488 -396 c 1,34,-1
 463 -440 l 1,0,1
EndSplineSet
EndChar

StartChar: bar
Encoding: 124 124 96
Width: 404
Flags: W
LayerCount: 2
Back
Fore
SplineSet
94 -270 m 1,0,-1
 40 -270 l 1,1,-1
 308 1456 l 1,2,-1
 362 1456 l 1,3,-1
 94 -270 l 1,0,-1
EndSplineSet
EndChar

StartChar: braceright
Encoding: 125 125 97
Width: 650
Flags: W
LayerCount: 2
Back
Fore
SplineSet
-156 -393 m 1,0,1
 136 -289 136 -289 187 39 c 2,2,-1
 220 253 l 2,3,4
 260 513 260 513 476 577 c 1,5,6
 404 599 404 599 363 654 c 128,-1,7
 322 709 322 709 317 786 c 0,8,9
 313 837 313 837 320 885 c 2,10,-1
 358 1132 l 2,11,12
 368 1201 368 1201 364 1266 c 0,13,14
 347 1478 347 1478 152 1553 c 1,15,-1
 172 1596 l 1,16,17
 283 1555 283 1555 344.5 1474.5 c 128,-1,18
 406 1394 406 1394 417 1282 c 0,19,20
 423 1205 423 1205 411 1126 c 2,21,-1
 373 885 l 2,22,23
 364 825 364 825 370 776 c 0,24,25
 379 700 379 700 431.5 656.5 c 128,-1,26
 484 613 484 613 572 609 c 1,27,-1
 563 543 l 1,28,29
 442 537 442 537 369 461.5 c 128,-1,30
 296 386 296 386 276 259 c 2,31,-1
 241 32 l 2,32,33
 184 -335 184 -335 -143 -441 c 1,34,-1
 -156 -393 l 1,0,1
EndSplineSet
EndChar

StartChar: asciitilde
Encoding: 126 126 98
Width: 1380
Flags: W
LayerCount: 2
Back
Fore
SplineSet
1233 751 m 1,0,1
 1207 611 1207 611 1126.5 528 c 128,-1,2
 1046 445 1046 445 928 443 c 0,3,4
 813 443 813 443 716 537 c 2,5,-1
 614 640 l 2,6,7
 531 720 531 720 439 720 c 0,8,9
 343 720 343 720 278 652.5 c 128,-1,10
 213 585 213 585 188 462 c 1,11,-1
 133 463 l 1,12,13
 160 608 160 608 240 690 c 128,-1,14
 320 772 320 772 438 774 c 0,15,16
 550 774 550 774 650 681 c 1,17,-1
 761 570 l 2,18,19
 840 496 840 496 927 496 c 0,20,21
 1023 498 1023 498 1088 565.5 c 128,-1,22
 1153 633 1153 633 1177 753 c 1,23,-1
 1233 751 l 1,0,1
EndSplineSet
EndChar

StartChar: exclamdown
Encoding: 161 161 99
Width: 404
Flags: W
LayerCount: 2
Back
Fore
SplineSet
189 696 m 1,0,-1
 243 696 l 1,1,-1
 62 -359 l 1,2,-1
 8 -359 l 1,3,-1
 189 696 l 1,0,-1
324 1046 m 0,4,5
 321 1026 321 1026 302.5 1009 c 128,-1,6
 284 992 284 992 263 992 c 0,7,8
 240 992 240 992 225.5 1010 c 128,-1,9
 211 1028 211 1028 215 1050 c 0,10,11
 218 1070 218 1070 237 1086.5 c 128,-1,12
 256 1103 256 1103 277 1103 c 0,13,14
 300 1102 300 1102 314 1085 c 128,-1,15
 328 1068 328 1068 324 1046 c 0,4,5
EndSplineSet
EndChar

StartChar: cent
Encoding: 162 162 100
Width: 1087
Flags: W
LayerCount: 2
Back
Fore
SplineSet
457 34 m 0,0,1
 599 34 599 34 703.5 113.5 c 128,-1,2
 808 193 808 193 848 327 c 1,3,-1
 902 327 l 1,4,5
 865 178 865 178 754 87 c 128,-1,6
 643 -4 643 -4 483 -19 c 1,7,-1
 442 -245 l 1,8,-1
 387 -245 l 1,9,-1
 428 -19 l 1,10,11
 273 -6 273 -6 189 105.5 c 128,-1,12
 105 217 105 217 107 397 c 0,13,14
 107 514 107 514 142.5 645 c 128,-1,15
 178 776 178 776 242 872 c 0,16,17
 382 1081 382 1081 617 1101 c 1,18,-1
 657 1318 l 1,19,-1
 712 1318 l 1,20,-1
 672 1101 l 1,21,22
 825 1085 825 1085 905.5 982.5 c 128,-1,23
 986 880 986 880 972 725 c 1,24,-1
 918 725 l 1,25,26
 932 868 932 868 855.5 958 c 128,-1,27
 779 1048 779 1048 641 1048 c 0,28,29
 523 1048 523 1048 429.5 987.5 c 128,-1,30
 336 927 336 927 270.5 815.5 c 128,-1,31
 205 704 205 704 178 562 c 0,32,33
 161 459 161 459 160 407 c 0,34,35
 154 236 154 236 232.5 135 c 128,-1,36
 311 34 311 34 457 34 c 0,0,1
EndSplineSet
EndChar

StartChar: sterling
Encoding: 163 163 101
Width: 1126
Flags: W
LayerCount: 2
Back
Fore
SplineSet
362 667 m 1,0,-1
 316 343 l 2,1,2
 289 151 289 151 199 53 c 1,3,-1
 934 54 l 1,4,-1
 927 0 l 1,5,-1
 -7 0 l 1,6,-1
 0 54 l 1,7,-1
 114 54 l 1,8,9
 210 95 210 95 248 273 c 1,10,-1
 260 336 l 1,11,-1
 308 667 l 1,12,-1
 104 667 l 1,13,-1
 112 721 l 1,14,-1
 315 721 l 1,15,-1
 361 1039 l 1,16,17
 394 1234 394 1234 510.5 1355 c 128,-1,18
 627 1476 627 1476 788 1476 c 0,19,20
 948 1476 948 1476 1031 1370 c 128,-1,21
 1114 1264 1114 1264 1090 1089 c 1,22,-1
 1037 1089 l 1,23,24
 1047 1158 1047 1158 1038 1219 c 0,25,26
 1024 1314 1024 1314 958.5 1368 c 128,-1,27
 893 1422 893 1422 789 1422 c 0,28,29
 649 1422 649 1422 548 1317 c 128,-1,30
 447 1212 447 1212 416 1039 c 1,31,-1
 369 721 l 1,32,-1
 727 721 l 1,33,-1
 720 667 l 1,34,-1
 362 667 l 1,0,-1
EndSplineSet
Substitution2: "'c2sc' Capitals to Small Capitals in Cyrillic lookup 3 subtable" sterling.c2sc
Substitution2: "'c2sc' Capitals to Small Capitals in Greek lookup 2 subtable" sterling.c2sc
Substitution2: "'c2sc' Capitals to Small Capitals lookup 1 subtable" sterling.c2sc
Substitution2: "'c2sc' Capitals to Small Capitals in Latin lookup 0 subtable" sterling.c2sc
Position2: "'cpsp' Capital Spacing in Cyrillic lookup 3 subtable" dx=36 dy=0 dh=72 dv=0
Position2: "'cpsp' Capital Spacing in Greek lookup 2 subtable" dx=36 dy=0 dh=72 dv=0
Position2: "'cpsp' Capital Spacing lookup 1 subtable" dx=36 dy=0 dh=72 dv=0
Position2: "'cpsp' Capital Spacing in Latin lookup 0 subtable" dx=36 dy=0 dh=72 dv=0
EndChar

StartChar: currency
Encoding: 164 164 102
Width: 1467
Flags: W
LayerCount: 2
Back
Fore
SplineSet
1052 155 m 1,0,1
 846 -20 846 -20 620 -20 c 0,2,3
 511 -20 511 -20 414 24 c 128,-1,4
 317 68 317 68 248 153 c 1,5,-1
 44 -26 l 1,6,-1
 8 15 l 1,7,-1
 214 196 l 1,8,9
 160 291 160 291 144 396 c 0,10,11
 118 564 118 564 176.5 733 c 128,-1,12
 235 902 235 902 369 1033 c 1,13,-1
 218 1227 l 1,14,-1
 261 1264 l 1,15,-1
 409 1073 l 1,16,17
 612 1234 612 1234 828 1234 c 0,18,19
 934 1234 934 1234 1027.5 1192.5 c 128,-1,20
 1121 1151 1121 1151 1191 1071 c 1,21,-1
 1411 1265 l 1,22,-1
 1448 1223 l 1,23,-1
 1226 1028 l 1,24,25
 1340 840 1340 840 1302 608 c 0,26,27
 1262 373 1262 373 1093 198 c 1,28,-1
 1238 11 l 1,29,-1
 1194 -27 l 1,30,-1
 1052 155 l 1,0,1
200 608 m 0,31,32
 174 464 174 464 220.5 328.5 c 128,-1,33
 267 193 267 193 373 113 c 128,-1,34
 479 33 479 33 620 33 c 0,35,36
 785 33 785 33 936.5 134.5 c 128,-1,37
 1088 236 1088 236 1177.5 408 c 128,-1,38
 1267 580 1267 580 1255 747 c 0,39,40
 1241 936 1241 936 1123.5 1058.5 c 128,-1,41
 1006 1181 1006 1181 829 1181 c 0,42,43
 686 1181 686 1181 552.5 1105 c 128,-1,44
 419 1029 419 1029 323 893.5 c 128,-1,45
 227 758 227 758 200 608 c 0,31,32
EndSplineSet
EndChar

StartChar: yen
Encoding: 165 165 103
Width: 1181
Flags: W
LayerCount: 2
Back
Fore
SplineSet
1192 1455 m 1,0,-1
 1260 1454 l 1,1,-1
 653 676 l 1,2,-1
 1061 676 l 1,3,-1
 1053 621 l 1,4,-1
 614 621 l 1,5,-1
 572 381 l 1,6,-1
 1010 381 l 1,7,-1
 1002 326 l 1,8,-1
 563 326 l 1,9,-1
 507 0 l 1,10,-1
 453 0 l 1,11,-1
 509 326 l 1,12,-1
 73 326 l 1,13,-1
 81 381 l 1,14,-1
 518 381 l 1,15,-1
 560 621 l 1,16,-1
 124 621 l 1,17,-1
 132 676 l 1,18,-1
 544 676 l 1,19,-1
 204 1457 l 1,20,-1
 266 1457 l 1,21,-1
 580 738 l 1,22,-1
 593 687 l 1,23,-1
 597 687 l 1,24,-1
 630 738 l 1,25,-1
 1192 1455 l 1,0,-1
EndSplineSet
Substitution2: "'c2sc' Capitals to Small Capitals in Cyrillic lookup 3 subtable" yen.c2sc
Substitution2: "'c2sc' Capitals to Small Capitals in Greek lookup 2 subtable" yen.c2sc
Substitution2: "'c2sc' Capitals to Small Capitals lookup 1 subtable" yen.c2sc
Substitution2: "'c2sc' Capitals to Small Capitals in Latin lookup 0 subtable" yen.c2sc
Position2: "'cpsp' Capital Spacing in Cyrillic lookup 3 subtable" dx=36 dy=0 dh=72 dv=0
Position2: "'cpsp' Capital Spacing in Greek lookup 2 subtable" dx=36 dy=0 dh=72 dv=0
Position2: "'cpsp' Capital Spacing lookup 1 subtable" dx=36 dy=0 dh=72 dv=0
Position2: "'cpsp' Capital Spacing in Latin lookup 0 subtable" dx=36 dy=0 dh=72 dv=0
EndChar

StartChar: brokenbar
Encoding: 166 166 104
Width: 396
Flags: W
LayerCount: 2
Back
Fore
SplineSet
16 -270 m 1,0,-1
 145 482 l 1,1,-1
 199 482 l 1,2,-1
 70 -270 l 1,3,-1
 16 -270 l 1,0,-1
238 698 m 1,4,-1
 184 698 l 1,5,-1
 314 1456 l 1,6,-1
 368 1456 l 1,7,-1
 238 698 l 1,4,-1
EndSplineSet
EndChar

StartChar: section
Encoding: 167 167 105
Width: 1196
Flags: W
LayerCount: 2
Back
Fore
SplineSet
1046 431 m 0,0,1
 1028 328 1028 328 941.5 259 c 128,-1,2
 855 190 855 190 705 163 c 1,3,4
 823 110 823 110 871 33 c 128,-1,5
 919 -44 919 -44 903 -149 c 0,6,7
 877 -307 877 -307 740.5 -401 c 128,-1,8
 604 -495 604 -495 411 -495 c 0,9,10
 204 -495 204 -495 93 -378.5 c 128,-1,11
 -18 -262 -18 -262 9 -64 c 1,12,-1
 63 -62 l 1,13,14
 36 -235 36 -235 131.5 -338 c 128,-1,15
 227 -441 227 -441 410 -441 c 0,16,17
 559 -441 559 -441 676 -376.5 c 128,-1,18
 793 -312 793 -312 833 -201 c 0,19,20
 861 -122 861 -122 849 -60 c 0,21,22
 823 72 823 72 618 139 c 2,23,-1
 531 166 l 1,24,25
 278 234 278 234 188 326 c 128,-1,26
 98 418 98 418 121 551 c 0,27,28
 137 653 137 653 219.5 724 c 128,-1,29
 302 795 302 795 445 823 c 1,30,31
 233 929 233 929 265 1129 c 0,32,33
 281 1233 281 1233 350 1311.5 c 128,-1,34
 419 1390 419 1390 527.5 1433 c 128,-1,35
 636 1476 636 1476 759 1476 c 0,36,37
 958 1476 958 1476 1059 1359 c 128,-1,38
 1160 1242 1160 1242 1132 1045 c 1,39,-1
 1078 1045 l 1,40,41
 1094 1154 1094 1154 1059.5 1240.5 c 128,-1,42
 1025 1327 1025 1327 946 1374.5 c 128,-1,43
 867 1422 867 1422 760 1422 c 0,44,45
 597 1422 597 1422 478 1350.5 c 128,-1,46
 359 1279 359 1279 326 1157 c 0,47,48
 307 1088 307 1088 318 1039 c 0,49,50
 334 956 334 956 410 902.5 c 128,-1,51
 486 849 486 849 639 805 c 128,-1,52
 792 761 792 761 867 725 c 128,-1,53
 942 689 942 689 983 647.5 c 128,-1,54
 1024 606 1024 606 1040.5 553 c 128,-1,55
 1057 500 1057 500 1046 431 c 0,0,1
520 796 m 1,56,57
 392 785 392 785 307.5 734.5 c 128,-1,58
 223 684 223 684 190.5 601.5 c 128,-1,59
 158 519 158 519 176 453 c 0,60,61
 194 380 194 380 262 331 c 128,-1,62
 330 282 330 282 458 242 c 2,63,-1
 611 196 l 1,64,65
 756 201 756 201 855.5 256 c 128,-1,66
 955 311 955 311 984 401 c 0,67,68
 1006 471 1006 471 991 526 c 0,69,70
 953 664 953 664 713 738 c 2,71,-1
 520 796 l 1,56,57
EndSplineSet
EndChar

StartChar: dieresis
Encoding: 168 168 106
Width: 889
Flags: W
LayerCount: 2
Back
Fore
SplineSet
306 1422 m 0,0,1
 309 1443 309 1443 327 1460 c 128,-1,2
 345 1477 345 1477 367 1477 c 0,3,4
 390 1477 390 1477 404.5 1459.5 c 128,-1,5
 419 1442 419 1442 415 1420 c 0,6,7
 412 1399 412 1399 393.5 1382.5 c 128,-1,8
 375 1366 375 1366 354 1366 c 0,9,10
 331 1366 331 1366 317 1383 c 128,-1,11
 303 1400 303 1400 306 1422 c 0,0,1
738 1422 m 0,12,13
 741 1443 741 1443 759 1460 c 128,-1,14
 777 1477 777 1477 799 1477 c 128,-1,15
 821 1477 821 1477 835.5 1459.5 c 128,-1,16
 850 1442 850 1442 847 1420 c 0,17,18
 844 1399 844 1399 825.5 1382.5 c 128,-1,19
 807 1366 807 1366 785 1366 c 128,-1,20
 763 1366 763 1366 749 1383 c 128,-1,21
 735 1400 735 1400 738 1422 c 0,12,13
EndSplineSet
EndChar

StartChar: copyright
Encoding: 169 169 107
Width: 1626
Flags: W
LayerCount: 2
Back
Fore
SplineSet
1106 615 m 1,0,1
 1080 468 1080 468 992 385 c 128,-1,2
 904 302 904 302 772 302 c 0,3,4
 666 302 666 302 598.5 369 c 128,-1,5
 531 436 531 436 517 552 c 0,6,7
 504 648 504 648 533 788 c 0,8,9
 567 954 567 954 665.5 1054.5 c 128,-1,10
 764 1155 764 1155 897 1155 c 0,11,12
 1031 1155 1031 1155 1095.5 1069 c 128,-1,13
 1160 983 1160 983 1143 842 c 1,14,-1
 1092 842 l 1,15,16
 1099 897 1099 897 1093 945 c 0,17,18
 1082 1020 1082 1020 1031.5 1061 c 128,-1,19
 981 1102 981 1102 897 1102 c 0,20,21
 785 1102 785 1102 700.5 1013 c 128,-1,22
 616 924 616 924 588 784 c 0,23,24
 562 655 562 655 569 575 c 0,25,26
 576 476 576 476 629.5 417 c 128,-1,27
 683 358 683 358 772 357 c 0,28,29
 886 357 886 357 958 424.5 c 128,-1,30
 1030 492 1030 492 1054 616 c 1,31,-1
 1106 615 l 1,0,1
202 559 m 0,32,33
 214 409 214 409 286.5 287 c 128,-1,34
 359 165 359 165 474.5 99.5 c 128,-1,35
 590 34 590 34 728 34 c 0,36,37
 930 34 930 34 1113 159.5 c 128,-1,38
 1296 285 1296 285 1397.5 491.5 c 128,-1,39
 1499 698 1499 698 1482 899 c 0,40,41
 1468 1049 1468 1049 1395 1170.5 c 128,-1,42
 1322 1292 1322 1292 1207.5 1356.5 c 128,-1,43
 1093 1421 1093 1421 954 1421 c 0,44,45
 745 1421 745 1421 560 1290 c 128,-1,46
 375 1159 375 1159 275 945 c 0,47,48
 185 751 185 751 202 559 c 0,32,33
953 1476 m 0,49,50
 1105 1476 1105 1476 1232 1406 c 128,-1,51
 1359 1336 1359 1336 1439.5 1206 c 128,-1,52
 1520 1076 1520 1076 1536 915 c 0,53,54
 1558 694 1558 694 1449.5 470 c 128,-1,55
 1341 246 1341 246 1145 112.5 c 128,-1,56
 949 -21 949 -21 729 -21 c 0,57,58
 577 -21 577 -21 450.5 49 c 128,-1,59
 324 119 324 119 243.5 250.5 c 128,-1,60
 163 382 163 382 147 544 c 0,61,62
 125 762 125 762 232 984.5 c 128,-1,63
 339 1207 339 1207 535.5 1341.5 c 128,-1,64
 732 1476 732 1476 953 1476 c 0,49,50
EndSplineSet
EndChar

StartChar: ordfeminine
Encoding: 170 170 108
Width: 881
Flags: W
LayerCount: 2
Back
Fore
SplineSet
686 704 m 1,0,-1
 684 764 l 1,1,-1
 688 823 l 1,2,3
 572 693 572 693 432 691 c 0,4,5
 325 691 325 691 265.5 749 c 128,-1,6
 206 807 206 807 221 900 c 0,7,8
 237 1005 237 1005 328 1066.5 c 128,-1,9
 419 1128 419 1128 563 1132 c 1,10,-1
 733 1132 l 1,11,-1
 747 1201 l 2,12,13
 755 1245 755 1245 752 1285 c 0,14,15
 745 1350 745 1350 705.5 1385.5 c 128,-1,16
 666 1421 666 1421 599 1422 c 0,17,18
 493 1422 493 1422 425 1375.5 c 128,-1,19
 357 1329 357 1329 335 1244 c 1,20,-1
 280 1244 l 1,21,22
 302 1348 302 1348 389.5 1412 c 128,-1,23
 477 1476 477 1476 598 1476 c 0,24,25
 709 1476 709 1476 764.5 1399.5 c 128,-1,26
 820 1323 820 1323 802 1200 c 2,27,-1
 748 886 l 2,28,29
 733 794 733 794 743 705 c 1,30,-1
 686 704 l 1,0,-1
433 746 m 0,31,32
 507 746 507 746 580.5 790.5 c 128,-1,33
 654 835 654 835 694 899 c 1,34,-1
 727 1078 l 1,35,-1
 569 1078 l 1,36,37
 308 1072 308 1072 276 904 c 0,38,39
 262 831 262 831 305 788.5 c 128,-1,40
 348 746 348 746 433 746 c 0,31,32
EndSplineSet
EndChar

StartChar: logicalnot
Encoding: 172 172 110
Width: 1078
Flags: W
LayerCount: 2
Back
Fore
SplineSet
854 396 m 1,0,-1
 800 396 l 1,1,-1
 852 700 l 1,2,-1
 136 700 l 1,3,-1
 143 753 l 1,4,-1
 913 753 l 1,5,-1
 854 396 l 1,0,-1
EndSplineSet
EndChar

StartChar: registered
Encoding: 174 174 111
Width: 1634
Flags: W
LayerCount: 2
Back
Fore
SplineSet
940 1476 m 0,0,1
 1091 1476 1091 1476 1218 1406.5 c 128,-1,2
 1345 1337 1345 1337 1425.5 1206.5 c 128,-1,3
 1506 1076 1506 1076 1522 915 c 0,4,5
 1544 690 1544 690 1434 466.5 c 128,-1,6
 1324 243 1324 243 1129.5 111 c 128,-1,7
 935 -21 935 -21 715 -21 c 0,8,9
 563 -21 563 -21 436.5 49 c 128,-1,10
 310 119 310 119 229.5 250.5 c 128,-1,11
 149 382 149 382 133 544 c 0,12,13
 117 708 117 708 175.5 880.5 c 128,-1,14
 234 1053 234 1053 352.5 1190 c 128,-1,15
 471 1327 471 1327 624.5 1401.5 c 128,-1,16
 778 1476 778 1476 940 1476 c 0,0,1
187 559 m 0,17,18
 199 410 199 410 272.5 287.5 c 128,-1,19
 346 165 346 165 461.5 99.5 c 128,-1,20
 577 34 577 34 715 34 c 0,21,22
 863 34 863 34 1004.5 103.5 c 128,-1,23
 1146 173 1146 173 1256.5 300 c 128,-1,24
 1367 427 1367 427 1424 587.5 c 128,-1,25
 1481 748 1481 748 1468 899 c 0,26,27
 1454 1049 1454 1049 1381 1170.5 c 128,-1,28
 1308 1292 1308 1292 1193.5 1356.5 c 128,-1,29
 1079 1421 1079 1421 940 1421 c 0,30,31
 738 1421 738 1421 556.5 1298 c 128,-1,32
 375 1175 375 1175 271.5 969 c 128,-1,33
 168 763 168 763 187 559 c 0,17,18
649 678 m 1,34,-1
 594 326 l 1,35,-1
 540 326 l 1,36,-1
 668 1156 l 1,37,-1
 897 1156 l 2,38,39
 1027 1154 1027 1154 1094 1091.5 c 128,-1,40
 1161 1029 1161 1029 1145 916 c 0,41,42
 1124 780 1124 780 964 709 c 1,43,44
 1081 659 1081 659 1060 505 c 0,45,46
 1049 439 1049 439 1050 405 c 2,47,-1
 1051 342 l 1,48,-1
 1049 326 l 1,49,-1
 991 326 l 1,50,51
 986 362 986 362 990 398 c 2,52,-1
 1005 504 l 2,53,54
 1019 593 1019 593 983.5 634.5 c 128,-1,55
 948 676 948 676 858 678 c 2,56,-1
 649 678 l 1,34,-1
657 734 m 1,57,-1
 851 734 l 2,58,59
 940 736 940 736 1007.5 785.5 c 128,-1,60
 1075 835 1075 835 1090 917 c 0,61,62
 1124 1096 1124 1096 897 1101 c 1,63,-1
 715 1101 l 1,64,-1
 657 734 l 1,57,-1
EndSplineSet
EndChar

StartChar: macron
Encoding: 175 175 112
Width: 797
Flags: W
LayerCount: 2
Back
Fore
SplineSet
825 1403 m 1,0,-1
 215 1403 l 1,1,-1
 222 1456 l 1,2,-1
 831 1456 l 1,3,-1
 825 1403 l 1,0,-1
EndSplineSet
EndChar

StartChar: degree
Encoding: 176 176 113
Width: 770
Flags: W
LayerCount: 2
Back
Fore
SplineSet
269 1236 m 0,0,1
 283 1332 283 1332 362.5 1404 c 128,-1,2
 442 1476 442 1476 535 1476 c 0,3,4
 627 1476 627 1476 683.5 1403.5 c 128,-1,5
 740 1331 740 1331 725 1236 c 0,6,7
 709 1140 709 1140 633 1069.5 c 128,-1,8
 557 999 557 999 463 999 c 0,9,10
 367 999 367 999 310 1071 c 128,-1,11
 253 1143 253 1143 269 1236 c 0,0,1
324 1168 m 0,12,13
 333 1118 333 1118 370.5 1086.5 c 128,-1,14
 408 1055 408 1055 462 1055 c 0,15,16
 522 1055 522 1055 574 1090.5 c 128,-1,17
 626 1126 626 1126 653 1186 c 128,-1,18
 680 1246 680 1246 671 1304 c 0,19,20
 661 1357 661 1357 624.5 1389 c 128,-1,21
 588 1421 588 1421 536 1421 c 0,22,23
 475 1421 475 1421 421.5 1384 c 128,-1,24
 368 1347 368 1347 340 1286 c 128,-1,25
 312 1225 312 1225 324 1168 c 0,12,13
EndSplineSet
EndChar

StartChar: plusminus
Encoding: 177 177 114
Width: 1055
Flags: W
LayerCount: 2
Back
Fore
SplineSet
585 805 m 1,0,-1
 990 805 l 1,1,-1
 984 751 l 1,2,-1
 577 751 l 1,3,-1
 505 289 l 1,4,-1
 451 289 l 1,5,-1
 523 751 l 1,6,-1
 94 751 l 1,7,-1
 100 805 l 1,8,-1
 531 805 l 1,9,-1
 603 1267 l 1,10,-1
 656 1267 l 1,11,-1
 585 805 l 1,0,-1
836 -1 m 1,12,-1
 25 -1 l 1,13,-1
 32 53 l 1,14,-1
 843 53 l 1,15,-1
 836 -1 l 1,12,-1
EndSplineSet
EndChar

StartChar: uni00B2
Encoding: 178 178 115
Width: 716
Flags: W
LayerCount: 2
Back
Fore
SplineSet
644 664 m 1,0,-1
 116 664 l 1,1,-1
 123 708 l 1,2,-1
 534 1076 l 2,3,4
 629 1166 629 1166 646 1247 c 0,5,6
 662 1329 662 1329 611 1375 c 0,7,8
 566 1415 566 1415 492 1415 c 0,9,10
 399 1415 399 1415 334 1365.5 c 128,-1,11
 269 1316 269 1316 246 1227 c 1,12,-1
 192 1227 l 1,13,14
 214 1333 214 1333 297 1398.5 c 128,-1,15
 380 1464 380 1464 490 1464 c 0,16,17
 594 1464 594 1464 654.5 1404.5 c 128,-1,18
 715 1345 715 1345 700 1248 c 0,19,20
 684 1144 684 1144 551 1025 c 2,21,-1
 480 961 l 1,22,-1
 194 713 l 1,23,-1
 652 713 l 1,24,-1
 644 664 l 1,0,-1
EndSplineSet
EndChar

StartChar: uni00B3
Encoding: 179 179 116
Width: 716
Flags: W
LayerCount: 2
Back
Fore
SplineSet
350 1090 m 1,0,-1
 417 1090 l 2,1,2
 514 1093 514 1093 581 1135 c 128,-1,3
 648 1177 648 1177 663 1249 c 0,4,5
 679 1323 679 1323 633 1368.5 c 128,-1,6
 587 1414 587 1414 502 1414 c 0,7,8
 412 1414 412 1414 349 1369 c 128,-1,9
 286 1324 286 1324 263 1247 c 1,10,-1
 210 1247 l 1,11,12
 231 1344 231 1344 312.5 1404 c 128,-1,13
 394 1464 394 1464 500 1464 c 0,14,15
 611 1464 611 1464 672 1402.5 c 128,-1,16
 733 1341 733 1341 717 1246 c 0,17,18
 697 1129 697 1129 535 1066 c 1,19,20
 612 1041 612 1041 647 990.5 c 128,-1,21
 682 940 682 940 671 875 c 0,22,23
 657 778 657 778 573 715.5 c 128,-1,24
 489 653 489 653 374 653 c 128,-1,25
 259 653 259 653 189.5 715.5 c 128,-1,26
 120 778 120 778 129 881 c 1,27,-1
 182 881 l 1,28,29
 173 798 173 798 228 749.5 c 128,-1,30
 283 701 283 701 373 701 c 0,31,32
 468 701 468 701 534.5 748 c 128,-1,33
 601 795 601 795 617 874 c 0,34,35
 631 951 631 951 580.5 994.5 c 128,-1,36
 530 1038 530 1038 415 1041 c 2,37,-1
 342 1041 l 1,38,-1
 350 1090 l 1,0,-1
EndSplineSet
EndChar

StartChar: acute
Encoding: 180 180 117
Width: 506
Flags: W
LayerCount: 2
Back
Fore
SplineSet
446 1515 m 1,0,-1
 514 1514 l 1,1,-1
 285 1251 l 1,2,-1
 223 1252 l 1,3,-1
 446 1515 l 1,0,-1
EndSplineSet
EndChar

StartChar: mu
Encoding: 181 181 118
Width: 1097
Flags: W
LayerCount: 2
Back
Fore
SplineSet
300 1082 m 1,0,-1
 190 440 l 2,1,2
 178 371 178 371 179 299 c 0,3,4
 179 175 179 175 238.5 104.5 c 128,-1,5
 298 34 298 34 410 34 c 0,6,7
 573 34 573 34 686.5 135 c 128,-1,8
 800 236 800 236 839 414 c 1,9,-1
 954 1082 l 1,10,-1
 1008 1082 l 1,11,-1
 822 0 l 1,12,-1
 771 0 l 1,13,-1
 807 203 l 1,14,15
 667 -20 667 -20 420 -20 c 0,16,17
 320 -20 320 -20 248 27.5 c 128,-1,18
 176 75 176 75 145 171 c 1,19,-1
 42 -416 l 1,20,-1
 -10 -416 l 1,21,-1
 248 1082 l 1,22,-1
 300 1082 l 1,0,-1
EndSplineSet
EndChar

StartChar: paragraph
Encoding: 182 182 119
Width: 928
Flags: W
LayerCount: 2
Back
Fore
SplineSet
608 0 m 1,0,-1
 697 520 l 1,1,-1
 595 520 l 2,2,3
 377 520 377 520 261.5 650 c 128,-1,4
 146 780 146 780 180 988 c 0,5,6
 214 1198 214 1198 370 1327 c 128,-1,7
 526 1456 526 1456 752 1456 c 2,8,-1
 914 1456 l 1,9,-1
 662 0 l 1,10,-1
 608 0 l 1,0,-1
EndSplineSet
EndChar

StartChar: periodcentered
Encoding: 183 183 120
Width: 468
Flags: W
LayerCount: 2
Back
Fore
SplineSet
191 708 m 0,0,1
 195 728 195 728 213.5 745 c 128,-1,2
 232 762 232 762 253 762 c 0,3,4
 276 762 276 762 290 744 c 128,-1,5
 304 726 304 726 301 704 c 0,6,7
 297 684 297 684 278.5 667.5 c 128,-1,8
 260 651 260 651 238 651 c 0,9,10
 216 652 216 652 202 669 c 128,-1,11
 188 686 188 686 191 708 c 0,0,1
EndSplineSet
EndChar

StartChar: cedilla
Encoding: 184 184 121
Width: 485
Flags: W
LayerCount: 2
Back
Fore
SplineSet
97 0 m 1,0,-1
 72 -77 l 1,1,-1
 106 -84 l 1,2,3
 236 -120 236 -120 217 -245 c 0,4,5
 205 -328 205 -328 126.5 -378.5 c 128,-1,6
 48 -429 48 -429 -94 -435 c 1,7,-1
 -93 -386 l 1,8,9
 8 -383 8 -383 78 -346 c 128,-1,10
 148 -309 148 -309 162 -245 c 0,11,12
 182 -150 182 -150 56 -129 c 2,13,-1
 0 -120 l 1,14,-1
 44 0 l 1,15,-1
 97 0 l 1,0,-1
EndSplineSet
EndChar

StartChar: uni00B9
Encoding: 185 185 122
Width: 716
Flags: W
LayerCount: 2
Back
Fore
SplineSet
433 664 m 1,0,-1
 379 664 l 1,1,-1
 503 1384 l 1,2,-1
 250 1306 l 1,3,-1
 257 1358 l 1,4,-1
 556 1455 l 1,5,-1
 567 1455 l 1,6,-1
 433 664 l 1,0,-1
EndSplineSet
EndChar

StartChar: ordmasculine
Encoding: 186 186 123
Width: 897
Flags: W
LayerCount: 2
Back
Fore
SplineSet
597 1476 m 0,0,1
 730 1476 730 1476 796.5 1379.5 c 128,-1,2
 863 1283 863 1283 841 1141 c 2,3,-1
 823 1036 l 2,4,5
 796 879 796 879 700.5 784.5 c 128,-1,6
 605 690 605 690 473 690 c 0,7,8
 343 690 343 690 275 785 c 128,-1,9
 207 880 207 880 229 1024 c 2,10,-1
 246 1128 l 2,11,12
 271 1282 271 1282 367 1379 c 128,-1,13
 463 1476 463 1476 597 1476 c 0,0,1
279 920 m 0,14,15
 287 838 287 838 338 791 c 128,-1,16
 389 744 389 744 473 744 c 0,17,18
 585 744 585 744 665.5 824 c 128,-1,19
 746 904 746 904 769 1034 c 128,-1,20
 792 1164 792 1164 793.5 1190 c 128,-1,21
 795 1216 795 1216 792 1245 c 0,22,23
 782 1328 782 1328 730.5 1375 c 128,-1,24
 679 1422 679 1422 598 1422 c 0,25,26
 484 1422 484 1422 404 1340 c 128,-1,27
 324 1258 324 1258 301 1131 c 128,-1,28
 278 1004 278 1004 277 974.5 c 128,-1,29
 276 945 276 945 279 920 c 0,14,15
EndSplineSet
EndChar

StartChar: questiondown
Encoding: 191 191 128
Width: 895
Flags: W
LayerCount: 2
Back
Fore
SplineSet
529 695 m 1,0,1
 511 593 511 593 475 531 c 128,-1,2
 439 469 439 469 367.5 407.5 c 128,-1,3
 296 346 296 346 265 317 c 0,4,5
 144 204 144 204 95 85 c 128,-1,6
 46 -34 46 -34 62 -138 c 0,7,8
 75 -228 75 -228 136.5 -278 c 128,-1,9
 198 -328 198 -328 296 -328 c 0,10,11
 423 -328 423 -328 517 -245 c 128,-1,12
 611 -162 611 -162 644 -22 c 1,13,-1
 699 -22 l 1,14,15
 664 -187 664 -187 556.5 -284 c 128,-1,16
 449 -381 449 -381 297 -381 c 128,-1,17
 145 -381 145 -381 65.5 -278 c 128,-1,18
 -14 -175 -14 -175 12 -15 c 0,19,20
 31 101 31 101 103.5 211 c 128,-1,21
 176 321 176 321 332 444 c 0,22,23
 394 493 394 493 426 547 c 128,-1,24
 458 601 458 601 476 695 c 1,25,-1
 529 695 l 1,0,1
614 1044 m 0,26,27
 611 1024 611 1024 592.5 1007 c 128,-1,28
 574 990 574 990 553 990 c 0,29,30
 530 990 530 990 515.5 1008 c 128,-1,31
 501 1026 501 1026 505 1048 c 0,32,33
 508 1068 508 1068 527 1084.5 c 128,-1,34
 546 1101 546 1101 567 1101 c 0,35,36
 590 1100 590 1100 604 1083 c 128,-1,37
 618 1066 618 1066 614 1044 c 0,26,27
EndSplineSet
EndChar

StartChar: AE
Encoding: 198 198 129
Width: 1772
Flags: W
LayerCount: 2
Back
Fore
SplineSet
1613 0 m 1,0,-1
 881 0 l 1,1,-1
 938 425 l 1,2,-1
 334 425 l 1,3,-1
 11 0 l 1,4,-1
 -56 0 l 1,5,-1
 1049 1456 l 1,6,-1
 1804 1456 l 1,7,-1
 1797 1402 l 1,8,-1
 1121 1402 l 1,9,-1
 1039 786 l 1,10,-1
 1608 786 l 1,11,-1
 1601 732 l 1,12,-1
 1032 732 l 1,13,-1
 941 54 l 1,14,-1
 1620 54 l 1,15,-1
 1613 0 l 1,0,-1
373 478 m 1,16,-1
 944 478 l 1,17,-1
 1066 1391 l 1,18,-1
 373 478 l 1,16,-1
EndSplineSet
EndChar

StartChar: multiply
Encoding: 215 215 130
Width: 1030
Flags: W
LayerCount: 2
Back
Fore
SplineSet
-3 38 m 1,0,-1
 438 433 l 1,1,-1
 154 795 l 1,2,-1
 196 832 l 1,3,-1
 478 469 l 1,4,-1
 888 832 l 1,5,-1
 923 791 l 1,6,-1
 513 426 l 1,7,-1
 819 34 l 1,8,-1
 777 -1 l 1,9,-1
 473 389 l 1,10,-1
 32 -1 l 1,11,-1
 -3 38 l 1,0,-1
EndSplineSet
EndChar

StartChar: Oslash
Encoding: 216 216 131
Width: 1333
Flags: W
LayerCount: 2
Back
Fore
SplineSet
560 -20 m 0,0,1
 377 -20 377 -20 256 91 c 1,2,-1
 122 -74 l 1,3,-1
 54 -73 l 1,4,-1
 217 131 l 1,5,6
 112 277 112 277 119 492 c 1,7,-1
 126 581 l 1,8,-1
 166 820 l 2,9,10
 199 1013 199 1013 291.5 1164.5 c 128,-1,11
 384 1316 384 1316 518 1396 c 128,-1,12
 652 1476 652 1476 808 1476 c 0,13,14
 909 1476 909 1476 998.5 1438.5 c 128,-1,15
 1088 1401 1088 1401 1151 1320 c 1,16,-1
 1291 1494 l 1,17,-1
 1359 1493 l 1,18,-1
 1184 1274 l 1,19,20
 1236 1173 1236 1173 1245 1061 c 0,21,22
 1254 948 1254 948 1236 838 c 2,23,-1
 1204 647 l 2,24,25
 1152 343 1152 343 977.5 161.5 c 128,-1,26
 803 -20 803 -20 560 -20 c 0,0,1
174 505 m 2,27,28
 160 309 160 309 250 176 c 1,29,-1
 1119 1274 l 1,30,31
 1065 1351 1065 1351 983 1386.5 c 128,-1,32
 901 1422 901 1422 808 1422 c 0,33,34
 587 1422 587 1422 427.5 1255 c 128,-1,35
 268 1088 268 1088 221 817 c 2,36,-1
 181 583 l 1,37,-1
 174 505 l 2,27,28
1195 1036 m 0,38,39
 1189 1141 1189 1141 1151 1227 c 1,40,-1
 286 136 l 1,41,42
 392 34 392 34 560 34 c 0,43,44
 776 34 776 34 933 192 c 128,-1,45
 1090 350 1090 350 1142 610 c 1,46,-1
 1180 821 l 2,47,48
 1201 939 1201 939 1195 1036 c 0,38,39
EndSplineSet
EndChar

StartChar: Thorn
Encoding: 222 222 132
Width: 1192
Flags: W
LayerCount: 2
Back
Fore
SplineSet
395 1456 m 1,0,-1
 341 1143 l 1,1,-1
 696 1143 l 1,2,3
 888 1139 888 1139 992 1027.5 c 128,-1,4
 1096 916 1096 916 1068 738 c 0,5,6
 1040 559 1040 559 899.5 446.5 c 128,-1,7
 759 334 759 334 551 334 c 2,8,-1
 202 334 l 1,9,-1
 144 0 l 1,10,-1
 90 0 l 1,11,-1
 341 1456 l 1,12,-1
 395 1456 l 1,0,-1
333 1089 m 1,13,-1
 211 388 l 1,14,-1
 552 388 l 2,15,16
 726 388 726 388 855 484 c 128,-1,17
 984 580 984 580 1013 736 c 0,18,19
 1041 889 1041 889 952.5 987 c 128,-1,20
 864 1085 864 1085 696 1089 c 1,21,-1
 333 1089 l 1,13,-1
EndSplineSet
EndChar

StartChar: germandbls
Encoding: 223 223 133
Width: 1158
Flags: W
LayerCount: 2
Back
Fore
SplineSet
109 0 m 1,0,-1
 55 0 l 1,1,-1
 249 1126 l 2,2,3
 283 1322 283 1322 384 1428.5 c 128,-1,4
 485 1535 485 1535 635 1535 c 0,5,6
 756 1535 756 1535 834 1454 c 128,-1,7
 912 1373 912 1373 895 1257 c 0,8,9
 888 1210 888 1210 869.5 1167.5 c 128,-1,10
 851 1125 851 1125 796.5 1034.5 c 128,-1,11
 742 944 742 944 727 907.5 c 128,-1,12
 712 871 712 871 705 829 c 0,13,14
 693 766 693 766 725.5 707 c 128,-1,15
 758 648 758 648 841 572.5 c 128,-1,16
 924 497 924 497 957.5 432 c 128,-1,17
 991 367 991 367 979 297 c 0,18,19
 958 164 958 164 837 71.5 c 128,-1,20
 716 -21 716 -21 572 -21 c 0,21,22
 485 -21 485 -21 406 2.5 c 128,-1,23
 327 26 327 26 279 69 c 1,24,-1
 309 116 l 1,25,26
 360 73 360 73 428.5 52.5 c 128,-1,27
 497 32 497 32 563 32 c 0,28,29
 690 32 690 32 797 110.5 c 128,-1,30
 904 189 904 189 927 306 c 0,31,32
 940 373 940 373 906.5 435 c 128,-1,33
 873 497 873 497 793 566 c 128,-1,34
 713 635 713 635 677 698.5 c 128,-1,35
 641 762 641 762 652 831 c 0,36,37
 660 883 660 883 680.5 930 c 128,-1,38
 701 977 701 977 748.5 1058 c 128,-1,39
 796 1139 796 1139 812 1178 c 128,-1,40
 828 1217 828 1217 836 1259 c 0,41,42
 852 1347 852 1347 794 1413 c 128,-1,43
 736 1479 736 1479 646 1481 c 0,44,45
 517 1483 517 1483 428 1395.5 c 128,-1,46
 339 1308 339 1308 307 1143 c 2,47,-1
 109 0 l 1,0,-1
EndSplineSet
Substitution2: "'c2sc' Capitals to Small Capitals in Cyrillic lookup 3 subtable" germandbls.c2sc
Substitution2: "'c2sc' Capitals to Small Capitals in Greek lookup 2 subtable" germandbls.c2sc
Substitution2: "'c2sc' Capitals to Small Capitals lookup 1 subtable" germandbls.c2sc
Substitution2: "'c2sc' Capitals to Small Capitals in Latin lookup 0 subtable" germandbls.c2sc
EndChar

StartChar: ae
Encoding: 230 230 134
Width: 1693
Flags: W
LayerCount: 2
Back
Fore
SplineSet
1138 -20 m 0,0,1
 1011 -20 1011 -20 918 45.5 c 128,-1,2
 825 111 825 111 790 230 c 1,3,-1
 787 216 l 1,4,-1
 789 216 l 1,5,6
 718 105 718 105 596.5 42.5 c 128,-1,7
 475 -20 475 -20 342 -20 c 0,8,9
 190 -20 190 -20 106.5 65 c 128,-1,10
 23 150 23 150 45 284 c 0,11,12
 71 445 71 445 202.5 537.5 c 128,-1,13
 334 630 334 630 534 630 c 2,14,-1
 803 630 l 1,15,-1
 819 720 l 2,16,17
 830 785 830 785 825 845 c 0,18,19
 817 941 817 941 758 994.5 c 128,-1,20
 699 1048 699 1048 598 1048 c 0,21,22
 452 1048 452 1048 345.5 972.5 c 128,-1,23
 239 897 239 897 210 772 c 1,24,-1
 158 779 l 1,25,26
 188 927 188 927 310.5 1014.5 c 128,-1,27
 433 1102 433 1102 598 1102 c 0,28,29
 729 1102 729 1102 804.5 1024 c 128,-1,30
 880 946 880 946 878 814 c 1,31,32
 956 947 956 947 1069 1024.5 c 128,-1,33
 1182 1102 1182 1102 1308 1102 c 0,34,35
 1441 1102 1441 1102 1526.5 1028.5 c 128,-1,36
 1612 955 1612 955 1631 827 c 0,37,38
 1643 746 1643 746 1629 661 c 2,39,-1
 1614 577 l 1,40,-1
 854 577 l 1,41,-1
 851 564 l 1,42,-1
 838 500 l 2,43,44
 822 415 822 415 829 331 c 0,45,46
 841 192 841 192 921.5 113 c 128,-1,47
 1002 34 1002 34 1137 34 c 0,48,49
 1321 34 1321 34 1484 164 c 1,50,-1
 1509 120 l 1,51,52
 1351 -20 1351 -20 1138 -20 c 0,0,1
341 32 m 0,53,54
 454 32 454 32 566 85.5 c 128,-1,55
 678 139 678 139 732 225 c 1,56,-1
 794 575 l 1,57,-1
 536 575 l 2,58,59
 363 575 363 575 244 496 c 128,-1,60
 125 417 125 417 99 280 c 0,61,62
 78 170 78 170 144 101 c 128,-1,63
 210 32 210 32 341 32 c 0,53,54
1308 1048 m 0,64,65
 1161 1048 1161 1048 1043.5 938.5 c 128,-1,66
 926 829 926 829 861 632 c 1,67,-1
 1567 632 l 1,68,-1
 1574 664 l 2,69,70
 1588 737 1588 737 1580 807 c 0,71,72
 1565 920 1565 920 1493 984 c 128,-1,73
 1421 1048 1421 1048 1308 1048 c 0,64,65
EndSplineSet
EndChar

StartChar: eth
Encoding: 240 240 135
Width: 1158
Flags: W
LayerCount: 2
Back
Fore
SplineSet
907 1307 m 1,0,1
 1054 1097 1054 1097 1040 796 c 0,2,3
 1035 697 1035 697 1009 551 c 0,4,5
 964 295 964 295 829.5 137.5 c 128,-1,6
 695 -20 695 -20 514 -20 c 0,7,8
 391 -20 391 -20 300.5 45 c 128,-1,9
 210 110 210 110 169.5 224 c 128,-1,10
 129 338 129 338 150 465 c 0,11,12
 186 686 186 686 320 819.5 c 128,-1,13
 454 953 454 953 645 953 c 0,14,15
 759 953 759 953 847.5 907 c 128,-1,16
 936 861 936 861 983 780 c 1,17,18
 1005 1079 1005 1079 858 1279 c 1,19,-1
 605 1149 l 1,20,-1
 583 1199 l 1,21,-1
 818 1321 l 1,22,23
 705 1442 705 1442 494 1528 c 1,24,-1
 520 1576 l 1,25,26
 741 1486 741 1486 869 1349 c 1,27,-1
 1086 1461 l 1,28,-1
 1109 1411 l 1,29,-1
 907 1307 l 1,0,1
966 617 m 1,30,-1
 976 672 l 1,31,32
 949 776 949 776 859 835.5 c 128,-1,33
 769 895 769 895 645 895 c 0,34,35
 506 895 506 895 399 812.5 c 128,-1,36
 292 730 292 730 236.5 581 c 128,-1,37
 181 432 181 432 204 308 c 0,38,39
 227 183 227 183 311.5 110.5 c 128,-1,40
 396 38 396 38 518 38 c 0,41,42
 679 38 679 38 795.5 179.5 c 128,-1,43
 912 321 912 321 955 556 c 2,44,-1
 966 617 l 1,30,-1
EndSplineSet
Substitution2: "'smcp' Lowercase to Small Capitals in Cyrillic lookup 7 subtable" Eth.c2sc
Substitution2: "'smcp' Lowercase to Small Capitals in Greek lookup 6 subtable" Eth.c2sc
Substitution2: "'smcp' Lowercase to Small Capitals lookup 5 subtable" Eth.c2sc
Substitution2: "'smcp' Lowercase to Small Capitals in Latin lookup 4 subtable" Eth.c2sc
EndChar

StartChar: divide
Encoding: 247 247 136
Width: 1134
Flags: W
LayerCount: 2
Back
Fore
SplineSet
1056 686 m 1,0,-1
 86 686 l 1,1,-1
 93 738 l 1,2,-1
 1063 738 l 1,3,-1
 1056 686 l 1,0,-1
596 1081 m 0,4,5
 599 1101 599 1101 617.5 1118 c 128,-1,6
 636 1135 636 1135 657 1135 c 0,7,8
 680 1135 680 1135 694 1117 c 128,-1,9
 708 1099 708 1099 705 1077 c 0,10,11
 702 1057 702 1057 683 1040.5 c 128,-1,12
 664 1024 664 1024 643 1024 c 0,13,14
 620 1025 620 1025 606 1042 c 128,-1,15
 592 1059 592 1059 596 1081 c 0,4,5
461 303 m 0,16,17
 464 323 464 323 482.5 340 c 128,-1,18
 501 357 501 357 522 357 c 0,19,20
 545 357 545 357 559.5 339 c 128,-1,21
 574 321 574 321 570 299 c 0,22,23
 567 279 567 279 548 262.5 c 128,-1,24
 529 246 529 246 508 246 c 0,25,26
 485 247 485 247 471 264 c 128,-1,27
 457 281 457 281 461 303 c 0,16,17
EndSplineSet
EndChar

StartChar: oslash
Encoding: 248 248 137
Width: 1097
Flags: W
LayerCount: 2
Back
Fore
SplineSet
626 1102 m 0,0,1
 739 1102 739 1102 834 1047 c 1,2,-1
 948 1218 l 1,3,-1
 1012 1217 l 1,4,-1
 880 1015 l 1,5,6
 1008 893 1008 893 1008 685 c 0,7,8
 1008 623 1008 623 999 562 c 2,9,-1
 992 524 l 2,10,11
 945 278 945 278 794.5 129 c 128,-1,12
 644 -20 644 -20 444 -20 c 0,13,14
 340 -20 340 -20 249 28 c 1,15,-1
 135 -144 l 1,16,-1
 70 -143 l 1,17,-1
 202 57 l 1,18,19
 63 174 63 174 62 394 c 0,20,21
 60 523 60 523 100.5 655 c 128,-1,22
 141 787 141 787 218.5 888 c 128,-1,23
 296 989 296 989 399.5 1045.5 c 128,-1,24
 503 1102 503 1102 626 1102 c 0,0,1
125 520 m 2,25,26
 116 465 116 465 115 409 c 0,27,28
 113 319 113 319 143 240 c 128,-1,29
 173 161 173 161 229 107 c 1,30,-1
 806 996 l 1,31,32
 726 1048 726 1048 627 1048 c 0,33,34
 450 1048 450 1048 311 908.5 c 128,-1,35
 172 769 172 769 130 547 c 2,36,-1
 125 520 l 2,25,26
945 562 m 2,37,38
 954 615 954 615 954 669 c 0,39,40
 954 851 954 851 850 963 c 1,41,-1
 275 76 l 1,42,43
 349 34 349 34 443 34 c 0,44,45
 620 34 620 34 758.5 172 c 128,-1,46
 897 310 897 310 940 535 c 2,47,-1
 945 562 l 2,37,38
EndSplineSet
EndChar

StartChar: thorn
Encoding: 254 254 138
Width: 1097
Flags: W
LayerCount: 2
Back
Fore
SplineSet
473 -20 m 0,0,1
 358 -20 358 -20 272 30 c 128,-1,2
 186 80 186 80 146 168 c 1,3,-1
 43 -416 l 1,4,-1
 -11 -416 l 1,5,-1
 326 1536 l 1,6,-1
 380 1536 l 1,7,-1
 264 889 l 1,8,9
 335 985 335 985 434.5 1043.5 c 128,-1,10
 534 1102 534 1102 656 1102 c 0,11,12
 761 1102 761 1102 835 1050 c 128,-1,13
 909 998 909 998 943.5 897.5 c 128,-1,14
 978 797 978 797 974 675 c 0,15,16
 971 611 971 611 962 552 c 2,17,-1
 949 486 l 1,18,19
 897 251 897 251 771 115.5 c 128,-1,20
 645 -20 645 -20 473 -20 c 0,0,1
907 552 m 1,21,-1
 919 659 l 1,22,23
 929 849 929 849 860 948.5 c 128,-1,24
 791 1048 791 1048 657 1048 c 0,25,26
 525 1048 525 1048 407.5 969.5 c 128,-1,27
 290 891 290 891 250 775 c 1,28,-1
 160 269 l 1,29,30
 183 156 183 156 267.5 95 c 128,-1,31
 352 34 352 34 473 34 c 0,32,33
 635 34 635 34 747 166.5 c 128,-1,34
 859 299 859 299 904 535 c 2,35,-1
 907 552 l 1,21,-1
EndSplineSet
EndChar

StartChar: Hbar
Encoding: 294 294 139
Width: 1357
Flags: W
LayerCount: 2
Back
Fore
SplineSet
1246 1081 m 1,0,-1
 1395 1081 l 1,1,-1
 1388 1028 l 1,2,-1
 1236 1028 l 1,3,-1
 1059 0 l 1,4,-1
 1005 0 l 1,5,-1
 1129 722 l 1,6,-1
 229 722 l 1,7,-1
 104 0 l 1,8,-1
 51 0 l 1,9,-1
 227 1028 l 1,10,-1
 94 1028 l 1,11,-1
 101 1081 l 1,12,-1
 237 1081 l 1,13,-1
 301 1456 l 1,14,-1
 355 1456 l 1,15,-1
 291 1081 l 1,16,-1
 1191 1081 l 1,17,-1
 1256 1456 l 1,18,-1
 1310 1456 l 1,19,-1
 1246 1081 l 1,0,-1
238 776 m 1,20,-1
 1138 776 l 1,21,-1
 1183 1028 l 1,22,-1
 282 1028 l 1,23,-1
 238 776 l 1,20,-1
EndSplineSet
EndChar

StartChar: dotlessi
Encoding: 305 305 140
Width: 404
Flags: W
LayerCount: 2
Back
Fore
SplineSet
126 0 m 1,0,-1
 72 0 l 1,1,-1
 258 1082 l 1,2,-1
 312 1082 l 1,3,-1
 126 0 l 1,0,-1
EndSplineSet
Substitution2: "'smcp' Lowercase to Small Capitals in Cyrillic lookup 7 subtable" Idotaccent.c2sc
Substitution2: "'smcp' Lowercase to Small Capitals in Greek lookup 6 subtable" Idotaccent.c2sc
Substitution2: "'smcp' Lowercase to Small Capitals lookup 5 subtable" Idotaccent.c2sc
Substitution2: "'smcp' Lowercase to Small Capitals in Latin lookup 4 subtable" Idotaccent.c2sc
EndChar

StartChar: kgreenlandic
Encoding: 312 312 141
Width: 1061
Flags: W
LayerCount: 2
Back
Fore
SplineSet
373 529 m 1,0,-1
 208 529 l 1,1,-1
 117 0 l 1,2,-1
 62 0 l 1,3,-1
 248 1082 l 1,4,-1
 303 1082 l 1,5,-1
 217 582 l 1,6,-1
 385 582 l 1,7,-1
 946 1081 l 1,8,-1
 1017 1080 l 1,9,-1
 432 550 l 1,10,-1
 892 0 l 1,11,-1
 825 0 l 1,12,-1
 373 529 l 1,0,-1
EndSplineSet
EndChar

StartChar: Lslash
Encoding: 321 321 142
Width: 1039
Flags: W
LayerCount: 2
Back
Fore
SplineSet
274 793 m 1,0,-1
 632 901 l 1,1,-1
 624 845 l 1,2,-1
 264 733 l 1,3,-1
 146 54 l 1,4,-1
 870 54 l 1,5,-1
 862 0 l 1,6,-1
 81 0 l 1,7,-1
 205 714 l 1,8,-1
 19 659 l 1,9,-1
 27 715 l 1,10,-1
 216 774 l 1,11,-1
 333 1456 l 1,12,-1
 388 1456 l 1,13,-1
 274 793 l 1,0,-1
EndSplineSet
EndChar

StartChar: lslash
Encoding: 322 322 143
Width: 500
Flags: W
LayerCount: 2
Back
Fore
SplineSet
322 853 m 1,0,-1
 529 929 l 1,1,-1
 521 871 l 1,2,-1
 311 789 l 1,3,-1
 175 0 l 1,4,-1
 121 0 l 1,5,-1
 253 766 l 1,6,-1
 32 685 l 1,7,-1
 40 743 l 1,8,-1
 264 830 l 1,9,-1
 386 1536 l 1,10,-1
 440 1536 l 1,11,-1
 322 853 l 1,0,-1
EndSplineSet
EndChar

StartChar: Eng
Encoding: 330 330 144
Width: 1417
Flags: W
LayerCount: 2
Back
Fore
SplineSet
1361 1456 m 1,0,-1
 1097 -77 l 2,1,2
 1067 -250 1067 -250 978.5 -343.5 c 128,-1,3
 890 -437 890 -437 761 -437 c 0,4,5
 714 -437 714 -437 651 -416 c 1,6,-1
 670 -366 l 1,7,8
 719 -383 719 -383 762 -383 c 0,9,10
 867 -383 867 -383 940.5 -303.5 c 128,-1,11
 1014 -224 1014 -224 1042 -78 c 2,12,-1
 1057 0 l 1,13,-1
 381 1366 l 1,14,-1
 144 0 l 1,15,-1
 90 0 l 1,16,-1
 340 1456 l 1,17,-1
 392 1456 l 1,18,-1
 1071 91 l 1,19,-1
 1307 1456 l 1,20,-1
 1361 1456 l 1,0,-1
EndSplineSet
EndChar

StartChar: eng
Encoding: 331 331 145
Width: 1097
Flags: W
LayerCount: 2
Back
Fore
SplineSet
296 1082 m 1,0,-1
 259 858 l 1,1,2
 328 969 328 969 429 1035 c 128,-1,3
 530 1101 530 1101 664 1102 c 0,4,5
 809 1102 809 1102 880.5 1012.5 c 128,-1,6
 952 923 952 923 945 749 c 1,7,-1
 937 662 l 1,8,-1
 811 -73 l 2,9,10
 781 -249 781 -249 692.5 -342 c 128,-1,11
 604 -435 604 -435 474 -437 c 0,12,13
 418 -437 418 -437 343 -416 c 1,14,-1
 363 -366 l 1,15,16
 424 -384 424 -384 474 -384 c 0,17,18
 576 -384 576 -384 650 -307 c 128,-1,19
 724 -230 724 -230 753 -89 c 1,20,-1
 883 663 l 1,21,-1
 891 733 l 1,22,23
 911 1048 911 1048 666 1048 c 0,24,25
 516 1048 516 1048 395 944.5 c 128,-1,26
 274 841 274 841 233 680 c 1,27,-1
 115 0 l 1,28,-1
 61 0 l 1,29,-1
 248 1082 l 1,30,-1
 296 1082 l 1,0,-1
EndSplineSet
EndChar

StartChar: OE
Encoding: 338 338 146
Width: 1827
Flags: W
LayerCount: 2
Back
Fore
SplineSet
1645 0 m 1,0,-1
 834 0 l 1,1,-1
 588 -20 l 1,2,-1
 510 -21 l 1,3,4
 325 -19 325 -19 213.5 104 c 128,-1,5
 102 227 102 227 95 431 c 0,6,7
 92 503 92 503 104 575 c 2,8,-1
 152 858 l 2,9,10
 199 1132 199 1132 364 1302.5 c 128,-1,11
 529 1473 529 1473 757 1476 c 1,12,-1
 837 1475 l 1,13,-1
 1076 1456 l 1,14,-1
 1895 1456 l 1,15,-1
 1888 1402 l 1,16,-1
 1080 1402 l 1,17,-1
 971 776 l 1,18,-1
 1679 776 l 1,19,-1
 1671 722 l 1,20,-1
 963 722 l 1,21,-1
 846 54 l 1,22,-1
 1652 54 l 1,23,-1
 1645 0 l 1,0,-1
509 33 m 0,24,25
 657 31 657 31 789 46 c 1,26,-1
 1030 1409 l 1,27,28
 902 1424 902 1424 758 1422 c 0,29,30
 550 1418 550 1418 400.5 1265.5 c 128,-1,31
 251 1113 251 1113 207 859 c 2,32,-1
 158 576 l 2,33,34
 147 511 147 511 148 446 c 0,35,36
 151 256 151 256 248 145.5 c 128,-1,37
 345 35 345 35 509 33 c 0,24,25
EndSplineSet
Substitution2: "'c2sc' Capitals to Small Capitals in Cyrillic lookup 3 subtable" OE.c2sc
Substitution2: "'c2sc' Capitals to Small Capitals in Greek lookup 2 subtable" OE.c2sc
Substitution2: "'c2sc' Capitals to Small Capitals lookup 1 subtable" OE.c2sc
Substitution2: "'c2sc' Capitals to Small Capitals in Latin lookup 0 subtable" OE.c2sc
Position2: "'cpsp' Capital Spacing in Cyrillic lookup 3 subtable" dx=36 dy=0 dh=72 dv=0
Position2: "'cpsp' Capital Spacing in Greek lookup 2 subtable" dx=36 dy=0 dh=72 dv=0
Position2: "'cpsp' Capital Spacing lookup 1 subtable" dx=36 dy=0 dh=72 dv=0
Position2: "'cpsp' Capital Spacing in Latin lookup 0 subtable" dx=36 dy=0 dh=72 dv=0
EndChar

StartChar: oe
Encoding: 339 339 147
Width: 1876
Flags: W
LayerCount: 2
Back
Fore
SplineSet
634 1102 m 0,0,1
 788 1102 788 1102 891 1005 c 128,-1,2
 994 908 994 908 1011 747 c 1,3,4
 1089 910 1089 910 1215 1006 c 128,-1,5
 1341 1102 1341 1102 1484 1102 c 0,6,7
 1658 1102 1658 1102 1751 977 c 128,-1,8
 1844 852 1844 852 1815 660 c 1,9,-1
 1800 577 l 1,10,-1
 1017 577 l 1,11,-1
 1014 564 l 1,12,-1
 1001 500 l 2,13,14
 987 420 987 420 997 338 c 0,15,16
 1014 202 1014 202 1096 118.5 c 128,-1,17
 1178 35 1178 35 1302 34 c 0,18,19
 1510 32 1510 32 1659 165 c 1,20,-1
 1683 121 l 1,21,22
 1528 -22 1528 -22 1303 -20 c 0,23,24
 1162 -20 1162 -20 1061.5 79 c 128,-1,25
 961 178 961 178 944 331 c 1,26,27
 865 167 865 167 735.5 73.5 c 128,-1,28
 606 -20 606 -20 452 -20 c 0,29,30
 300 -20 300 -20 200.5 73 c 128,-1,31
 101 166 101 166 78 325 c 0,32,33
 60 445 60 445 91.5 590.5 c 128,-1,34
 123 736 123 736 202.5 854.5 c 128,-1,35
 282 973 282 973 393 1037.5 c 128,-1,36
 504 1102 504 1102 634 1102 c 0,0,1
125 405 m 0,37,38
 128 239 128 239 215 136.5 c 128,-1,39
 302 34 302 34 451 34 c 0,40,41
 570 34 570 34 672.5 97 c 128,-1,42
 775 160 775 160 847.5 273.5 c 128,-1,43
 920 387 920 387 945 520 c 0,44,45
 961 616 961 616 960 676 c 0,46,47
 958 779 958 779 918 867 c 128,-1,48
 878 955 878 955 804.5 1001.5 c 128,-1,49
 731 1048 731 1048 635 1048 c 0,50,51
 516 1048 516 1048 414 985 c 128,-1,52
 312 922 312 922 239.5 809 c 128,-1,53
 167 696 167 696 140 562 c 0,54,55
 123 460 123 460 125 405 c 0,37,38
1485 1048 m 0,56,57
 1332 1048 1332 1048 1208.5 933.5 c 128,-1,58
 1085 819 1085 819 1024 631 c 1,59,-1
 1753 631 l 1,60,61
 1775 733 1775 733 1763 806 c 0,62,63
 1745 917 1745 917 1671 982.5 c 128,-1,64
 1597 1048 1597 1048 1485 1048 c 0,56,57
EndSplineSet
Substitution2: "'smcp' Lowercase to Small Capitals in Cyrillic lookup 7 subtable" OE.c2sc
Substitution2: "'smcp' Lowercase to Small Capitals in Greek lookup 6 subtable" OE.c2sc
Substitution2: "'smcp' Lowercase to Small Capitals lookup 5 subtable" OE.c2sc
Substitution2: "'smcp' Lowercase to Small Capitals in Latin lookup 4 subtable" OE.c2sc
EndChar

StartChar: longs
Encoding: 383 383 148
Width: 419
Flags: W
LayerCount: 2
Back
Fore
SplineSet
65 0 m 1,0,-1
 276 1225 l 2,1,2
 303 1381 303 1381 388.5 1468 c 128,-1,3
 474 1555 474 1555 604 1557 c 0,4,5
 668 1557 668 1557 730 1539 c 1,6,-1
 715 1489 l 1,7,8
 654 1505 654 1505 604 1503 c 0,9,10
 499 1501 499 1501 426 1426.5 c 128,-1,11
 353 1352 353 1352 331 1225 c 2,12,-1
 119 0 l 1,13,-1
 65 0 l 1,0,-1
EndSplineSet
EndChar

StartChar: uni018F
Encoding: 399 399 149
Width: 1418
Flags: W
LayerCount: 2
Back
Fore
SplineSet
637 -20 m 0,0,1
 470 -20 470 -20 351 57 c 128,-1,2
 232 134 232 134 180 275.5 c 128,-1,3
 128 417 128 417 157 588 c 2,4,-1
 178 711 l 1,5,-1
 1261 711 l 1,6,-1
 1283 835 l 2,7,8
 1303 952 1303 952 1289 1059 c 0,9,10
 1266 1230 1266 1230 1153.5 1326 c 128,-1,11
 1041 1422 1041 1422 862 1422 c 0,12,13
 612 1422 612 1422 391 1268 c 1,14,-1
 366 1313 l 1,15,16
 579 1476 579 1476 861 1476 c 0,17,18
 1054 1476 1054 1476 1181 1371 c 128,-1,19
 1308 1266 1308 1266 1339 1079 c 0,20,21
 1358 961 1358 961 1337 835 c 2,22,-1
 1311 680 l 2,23,24
 1277 478 1277 478 1175.5 314 c 128,-1,25
 1074 150 1074 150 935 65 c 128,-1,26
 796 -20 796 -20 637 -20 c 0,0,1
637 34 m 0,27,28
 779 34 779 34 903.5 108.5 c 128,-1,29
 1028 183 1028 183 1121 328.5 c 128,-1,30
 1214 474 1214 474 1255 656 c 1,31,-1
 225 656 l 1,32,-1
 211 584 l 2,33,34
 190 472 190 472 210 372 c 0,35,36
 240 214 240 214 355 124 c 128,-1,37
 470 34 470 34 637 34 c 0,27,28
EndSplineSet
EndChar

StartChar: florin
Encoding: 402 402 150
Width: 635
Flags: W
LayerCount: 2
Back
Fore
SplineSet
644 1027 m 1,0,-1
 366 1027 l 1,1,-1
 194 -76 l 2,2,3
 167 -250 167 -250 79 -343.5 c 128,-1,4
 -9 -437 -9 -437 -137 -437 c 0,5,6
 -182 -437 -182 -437 -247 -416 c 1,7,-1
 -228 -366 l 1,8,9
 -179 -383 -179 -383 -136 -383 c 0,10,11
 -32 -383 -32 -383 39.5 -306 c 128,-1,12
 111 -229 111 -229 137 -89 c 1,13,-1
 311 1027 l 1,14,-1
 130 1027 l 1,15,-1
 137 1082 l 1,16,-1
 320 1082 l 1,17,-1
 343 1230 l 2,18,19
 366 1378 366 1378 450.5 1466.5 c 128,-1,20
 535 1555 535 1555 666 1557 c 0,21,22
 724 1557 724 1557 792 1540 c 1,23,-1
 777 1489 l 1,24,25
 716 1505 716 1505 666 1503 c 0,26,27
 560 1501 560 1501 489 1426.5 c 128,-1,28
 418 1352 418 1352 398 1230 c 2,29,-1
 374 1082 l 1,30,-1
 650 1082 l 1,31,-1
 644 1027 l 1,0,-1
EndSplineSet
EndChar

StartChar: Ohorn
Encoding: 416 416 151
Width: 1417
Flags: W
LayerCount: 2
Back
Fore
SplineSet
590 -20 m 0,0,1
 460 -20 460 -20 361.5 39 c 128,-1,2
 263 98 263 98 209 211 c 128,-1,3
 155 324 155 324 151 465 c 0,4,5
 149 542 149 542 162 619 c 2,6,-1
 197 826 l 2,7,8
 229 1014 229 1014 322.5 1166 c 128,-1,9
 416 1318 416 1318 549.5 1397 c 128,-1,10
 683 1476 683 1476 838 1476 c 0,11,12
 973 1476 973 1476 1076 1412.5 c 128,-1,13
 1179 1349 1179 1349 1230 1238 c 1,14,15
 1351 1245 1351 1245 1422.5 1314 c 128,-1,16
 1494 1383 1494 1383 1525 1541 c 1,17,-1
 1579 1540 l 1,18,19
 1545 1366 1545 1366 1466 1283 c 128,-1,20
 1387 1200 1387 1200 1255 1185 c 1,21,22
 1277 1098 1277 1098 1279 1012 c 0,23,24
 1280 920 1280 920 1265 831 c 2,25,-1
 1228 614 l 2,26,27
 1192 426 1192 426 1099 279.5 c 128,-1,28
 1006 133 1006 133 874.5 56.5 c 128,-1,29
 743 -20 743 -20 590 -20 c 0,0,1
1225 979 m 0,30,31
 1222 1186 1222 1186 1120 1304 c 128,-1,32
 1018 1422 1018 1422 838 1422 c 0,33,34
 618 1422 618 1422 458 1255.5 c 128,-1,35
 298 1089 298 1089 250 810 c 2,36,-1
 217 619 l 2,37,38
 205 549 205 549 206 479 c 0,39,40
 206 274 206 274 308 154 c 128,-1,41
 410 34 410 34 590 34 c 0,42,43
 727 34 727 34 846.5 102 c 128,-1,44
 966 170 966 170 1052.5 305 c 128,-1,45
 1139 440 1139 440 1173 614 c 2,46,-1
 1212 833 l 2,47,48
 1225 906 1225 906 1225 979 c 0,30,31
EndSplineSet
EndChar

StartChar: ohorn
Encoding: 417 417 152
Width: 1098
Flags: W
LayerCount: 2
Back
Fore
SplineSet
629 1102 m 0,0,1
 828 1102 828 1102 935 954 c 1,2,3
 1037 961 1037 961 1093.5 1015 c 128,-1,4
 1150 1069 1150 1069 1176 1196 c 1,5,-1
 1231 1195 l 1,6,7
 1205 1055 1205 1055 1142 986 c 128,-1,8
 1079 917 1079 917 970 900 c 1,9,10
 1003 819 1003 819 1009 734 c 0,11,12
 1018 610 1018 610 983 468.5 c 128,-1,13
 948 327 948 327 870.5 216 c 128,-1,14
 793 105 793 105 684.5 42.5 c 128,-1,15
 576 -20 576 -20 447 -20 c 0,16,17
 295 -20 295 -20 195.5 73 c 128,-1,18
 96 166 96 166 73 325 c 0,19,20
 55 445 55 445 86.5 590.5 c 128,-1,21
 118 736 118 736 197.5 854.5 c 128,-1,22
 277 973 277 973 388 1037.5 c 128,-1,23
 499 1102 499 1102 629 1102 c 0,0,1
120 405 m 0,24,25
 123 239 123 239 210 136.5 c 128,-1,26
 297 34 297 34 446 34 c 0,27,28
 626 34 626 34 763.5 173.5 c 128,-1,29
 901 313 901 313 943 535 c 2,30,-1
 948 562 l 2,31,32
 957 618 957 618 956 676 c 0,33,34
 954 780 954 780 913.5 867.5 c 128,-1,35
 873 955 873 955 799.5 1001.5 c 128,-1,36
 726 1048 726 1048 630 1048 c 0,37,38
 465 1048 465 1048 332.5 926.5 c 128,-1,39
 200 805 200 805 148 613 c 0,40,41
 117 499 117 499 120 405 c 0,24,25
EndSplineSet
EndChar

StartChar: Uhorn
Encoding: 431 431 153
Width: 1334
Flags: W
LayerCount: 2
Back
Fore
SplineSet
1299 1456 m 1,0,-1
 1261 1248 l 1,1,2
 1376 1258 1376 1258 1444 1329 c 128,-1,3
 1512 1400 1512 1400 1541 1551 c 1,4,-1
 1595 1550 l 1,5,6
 1562 1374 1562 1374 1478 1289 c 128,-1,7
 1394 1204 1394 1204 1257 1194 c 1,8,-1
 1130 475 l 2,9,10
 1090 248 1090 248 936.5 114 c 128,-1,11
 783 -20 783 -20 566 -20 c 0,12,13
 427 -20 427 -20 327 41 c 128,-1,14
 227 102 227 102 183 215 c 128,-1,15
 139 328 139 328 162 469 c 2,16,-1
 333 1456 l 1,17,-1
 386 1456 l 1,18,-1
 216 469 l 2,19,20
 185 277 185 277 283 155.5 c 128,-1,21
 381 34 381 34 566 34 c 0,22,23
 760 34 760 34 901.5 158 c 128,-1,24
 1043 282 1043 282 1078 486 c 2,25,-1
 1245 1456 l 1,26,-1
 1299 1456 l 1,0,-1
EndSplineSet
EndChar

StartChar: uhorn
Encoding: 432 432 154
Width: 1109
Flags: W
LayerCount: 2
Back
Fore
SplineSet
1254 1189 m 1,0,1
 1229 1047 1229 1047 1160.5 976 c 128,-1,2
 1092 905 1092 905 977 893 c 1,3,4
 904 481 904 481 821 0 c 1,5,-1
 766 0 l 1,6,-1
 800 175 l 1,7,8
 729 77 729 77 628 28.5 c 128,-1,9
 527 -20 527 -20 406 -20 c 0,10,11
 280 -20 280 -20 206.5 47 c 128,-1,12
 133 114 133 114 121 238 c 0,13,14
 114 317 114 317 128 401 c 2,15,-1
 245 1082 l 1,16,-1
 299 1082 l 1,17,-1
 180 393 l 2,18,19
 169 325 169 325 173 261 c 0,20,21
 178 153 178 153 238 93.5 c 128,-1,22
 298 34 298 34 404 34 c 0,23,24
 550 34 550 34 667 113.5 c 128,-1,25
 784 193 784 193 821 321 c 1,26,-1
 952 1082 l 1,27,-1
 1007 1082 l 1,28,-1
 981 947 l 1,29,30
 1074 959 1074 959 1124.5 1014.5 c 128,-1,31
 1175 1070 1175 1070 1199 1190 c 1,32,-1
 1254 1189 l 1,0,1
EndSplineSet
EndChar

StartChar: uni0237
Encoding: 567 567 155
Width: 419
Flags: W
LayerCount: 2
Back
Fore
SplineSet
317 1082 m 1,0,-1
 117 -77 l 2,1,2
 87 -250 87 -250 -1.5 -343.5 c 128,-1,3
 -90 -437 -90 -437 -219 -437 c 0,4,5
 -266 -437 -266 -437 -329 -416 c 1,6,-1
 -309 -366 l 1,7,8
 -262 -383 -262 -383 -218 -383 c 0,9,10
 -115 -383 -115 -383 -42 -307 c 128,-1,11
 31 -231 31 -231 60 -89 c 1,12,-1
 263 1082 l 1,13,-1
 317 1082 l 1,0,-1
EndSplineSet
EndChar

StartChar: uni0259
Encoding: 601 601 156
Width: 1011
Flags: W
LayerCount: 2
Back
Fore
SplineSet
571 1102 m 0,0,1
 672 1101 672 1101 751.5 1051 c 128,-1,2
 831 1001 831 1001 878.5 909 c 128,-1,3
 926 817 926 817 933 703 c 0,4,5
 936 641 936 641 927 581 c 2,6,-1
 920 540 l 2,7,8
 878 294 878 294 730 136.5 c 128,-1,9
 582 -21 582 -21 390 -21 c 0,10,11
 274 -21 274 -21 192.5 35.5 c 128,-1,12
 111 92 111 92 75 195.5 c 128,-1,13
 39 299 39 299 59 421 c 2,14,-1
 73 504 l 1,15,-1
 856 503 l 1,16,-1
 860 517 l 1,17,-1
 873 581 l 2,18,19
 887 660 887 660 877 743 c 0,20,21
 858 881 858 881 776.5 964 c 128,-1,22
 695 1047 695 1047 572 1048 c 0,23,24
 363 1050 363 1050 215 916 c 1,25,-1
 191 960 l 1,26,27
 347 1104 347 1104 571 1102 c 0,0,1
389 33 m 0,28,29
 541 33 541 33 664.5 147.5 c 128,-1,30
 788 262 788 262 849 450 c 1,31,-1
 121 450 l 1,32,33
 99 348 99 348 111 275 c 0,34,35
 129 164 129 164 203 98.5 c 128,-1,36
 277 33 277 33 389 33 c 0,28,29
EndSplineSet
EndChar

StartChar: circumflex
Encoding: 710 710 157
Width: 782
Flags: W
LayerCount: 2
Back
Fore
SplineSet
755 1274 m 1,0,-1
 754 1264 l 1,1,-1
 688 1263 l 1,2,-1
 542 1459 l 1,3,-1
 328 1265 l 1,4,-1
 263 1265 l 1,5,-1
 264 1279 l 1,6,-1
 525 1517 l 1,7,-1
 565 1517 l 1,8,-1
 755 1274 l 1,0,-1
EndSplineSet
EndChar

StartChar: caron
Encoding: 711 711 158
Width: 751
Flags: W
LayerCount: 2
Back
Fore
SplineSet
490 1290 m 1,0,-1
 717 1505 l 1,1,-1
 771 1505 l 1,2,-1
 770 1492 l 1,3,-1
 519 1243 l 1,4,-1
 461 1243 l 1,5,-1
 286 1495 l 1,6,-1
 287 1506 l 1,7,-1
 342 1507 l 1,8,-1
 490 1290 l 1,0,-1
EndSplineSet
EndChar

StartChar: breve
Encoding: 728 728 160
Width: 841
Flags: W
LayerCount: 2
Back
Fore
SplineSet
828 1485 m 1,0,1
 806 1371 806 1371 722 1304.5 c 128,-1,2
 638 1238 638 1238 523 1238 c 0,3,4
 403 1238 403 1238 338.5 1307.5 c 128,-1,5
 274 1377 274 1377 286 1486 c 1,6,-1
 339 1486 l 1,7,8
 328 1391 328 1391 378.5 1342.5 c 128,-1,9
 429 1294 429 1294 523 1294 c 0,10,11
 618 1294 618 1294 685 1343 c 128,-1,12
 752 1392 752 1392 774 1486 c 1,13,-1
 828 1485 l 1,0,1
EndSplineSet
EndChar

StartChar: dotaccent
Encoding: 729 729 161
Width: 419
Flags: W
LayerCount: 2
Back
Fore
SplineSet
289 1399 m 0,0,1
 292 1419 292 1419 310.5 1436 c 128,-1,2
 329 1453 329 1453 350 1453 c 0,3,4
 373 1453 373 1453 387.5 1435 c 128,-1,5
 402 1417 402 1417 398 1395 c 0,6,7
 395 1375 395 1375 376 1358.5 c 128,-1,8
 357 1342 357 1342 336 1342 c 0,9,10
 313 1343 313 1343 299 1360 c 128,-1,11
 285 1377 285 1377 289 1399 c 0,0,1
EndSplineSet
EndChar

StartChar: ring
Encoding: 730 730 162
Width: 578
Flags: W
LayerCount: 2
Back
Fore
SplineSet
251 1382 m 0,0,1
 264 1458 264 1458 321 1507 c 128,-1,2
 378 1556 378 1556 444 1556 c 0,3,4
 514 1556 514 1556 554.5 1503.5 c 128,-1,5
 595 1451 595 1451 585 1381 c 0,6,7
 575 1312 575 1312 519.5 1262 c 128,-1,8
 464 1212 464 1212 393 1212 c 0,9,10
 327 1212 327 1212 283.5 1261 c 128,-1,11
 240 1310 240 1310 251 1382 c 0,0,1
305 1338 m 0,12,13
 319 1267 319 1267 394 1267 c 0,14,15
 447 1267 447 1267 484.5 1301.5 c 128,-1,16
 522 1336 522 1336 532 1382 c 0,17,18
 536 1405 536 1405 533 1427 c 0,19,20
 526 1462 526 1462 501.5 1481.5 c 128,-1,21
 477 1501 477 1501 443 1501 c 0,22,23
 377 1501 377 1501 335 1446.5 c 128,-1,24
 293 1392 293 1392 305 1338 c 0,12,13
EndSplineSet
EndChar

StartChar: ogonek
Encoding: 731 731 163
Width: 467
Flags: W
LayerCount: 2
Back
Fore
SplineSet
211 -2 m 1,0,-1
 129 -61 l 2,1,2
 5 -153 5 -153 -11 -246 c 0,3,4
 -18 -287 -18 -287 0 -313 c 128,-1,5
 18 -339 18 -339 61 -340 c 0,6,7
 109 -342 109 -342 176 -303 c 1,8,-1
 186 -352 l 1,9,10
 124 -395 124 -395 60 -395 c 0,11,12
 -8 -395 -8 -395 -40.5 -353 c 128,-1,13
 -73 -311 -73 -311 -64 -246 c 0,14,15
 -50 -140 -50 -140 100 -30 c 2,16,-1
 168 19 l 1,17,-1
 211 -2 l 1,0,-1
EndSplineSet
EndChar

StartChar: tilde
Encoding: 732 732 164
Width: 802
Flags: W
LayerCount: 2
Back
Fore
SplineSet
844 1471 m 1,0,1
 825 1385 825 1385 771.5 1335.5 c 128,-1,2
 718 1286 718 1286 648 1286 c 0,3,4
 606 1286 606 1286 575.5 1305.5 c 128,-1,5
 545 1325 545 1325 516.5 1348.5 c 128,-1,6
 488 1372 488 1372 458 1391 c 128,-1,7
 428 1410 428 1410 389 1410 c 0,8,9
 284 1410 284 1410 249 1287 c 1,10,-1
 194 1287 l 1,11,12
 209 1365 209 1365 262 1415 c 128,-1,13
 315 1465 315 1465 389 1465 c 0,14,15
 430 1465 430 1465 461.5 1445 c 128,-1,16
 493 1425 493 1425 520.5 1403 c 128,-1,17
 548 1381 548 1381 578.5 1361.5 c 128,-1,18
 609 1342 609 1342 648 1342 c 0,19,20
 700 1342 700 1342 736.5 1377 c 128,-1,21
 773 1412 773 1412 789 1471 c 1,22,-1
 844 1471 l 1,0,1
EndSplineSet
EndChar

StartChar: hungarumlaut
Encoding: 733 733 165
Width: 770
Flags: W
LayerCount: 2
Back
Fore
SplineSet
800 1535 m 1,0,-1
 887 1535 l 1,1,-1
 554 1233 l 1,2,-1
 479 1234 l 1,3,-1
 800 1535 l 1,0,-1
529 1535 m 1,4,-1
 611 1535 l 1,5,-1
 322 1233 l 1,6,-1
 251 1234 l 1,7,-1
 529 1535 l 1,4,-1
EndSplineSet
EndChar

StartChar: uni02F3
Encoding: 755 755 166
Width: 633
Flags: W
LayerCount: 2
Back
Fore
SplineSet
44 -218 m 0,0,1
 52 -167 52 -167 97.5 -133 c 128,-1,2
 143 -99 143 -99 191 -99 c 0,3,4
 242 -99 242 -99 277.5 -136 c 128,-1,5
 313 -173 313 -173 305 -220 c 0,6,7
 297 -269 297 -269 252 -302 c 128,-1,8
 207 -335 207 -335 159 -335 c 0,9,10
 106 -335 106 -335 71.5 -300.5 c 128,-1,11
 37 -266 37 -266 44 -218 c 0,0,1
161 -278 m 0,12,13
 193 -278 193 -278 218 -260 c 128,-1,14
 243 -242 243 -242 248 -218 c 128,-1,15
 253 -194 253 -194 235 -176 c 128,-1,16
 217 -158 217 -158 189 -158 c 0,17,18
 157 -158 157 -158 131.5 -176.5 c 128,-1,19
 106 -195 106 -195 101 -220 c 128,-1,20
 96 -245 96 -245 115 -261.5 c 128,-1,21
 134 -278 134 -278 161 -278 c 0,12,13
EndSplineSet
EndChar

StartChar: gravecomb
Encoding: 768 768 167
Width: 10
Flags: W
LayerCount: 2
Back
Fore
SplineSet
-361 1249 m 1,0,-1
 -417 1249 l 1,1,-1
 -564 1517 l 1,2,-1
 -501 1517 l 1,3,-1
 -361 1249 l 1,0,-1
EndSplineSet
EndChar

StartChar: acutecomb
Encoding: 769 769 168
Width: 10
Flags: W
LayerCount: 2
Back
Fore
SplineSet
-218 1515 m 1,0,-1
 -150 1514 l 1,1,-1
 -383 1251 l 1,2,-1
 -445 1252 l 1,3,-1
 -218 1515 l 1,0,-1
EndSplineSet
EndChar

StartChar: hookabovecomb
Encoding: 777 777 170
Width: 10
Flags: W
LayerCount: 2
Back
Fore
SplineSet
-472 1227 m 1,0,-1
 -456 1326 l 1,1,2
 -349 1337 -349 1337 -304 1364.5 c 128,-1,3
 -259 1392 -259 1392 -251 1440 c 0,4,5
 -234 1529 -234 1529 -396 1547 c 1,6,-1
 -462 1551 l 1,7,-1
 -447 1598 l 1,8,9
 -309 1592 -309 1592 -247 1550.5 c 128,-1,10
 -185 1509 -185 1509 -196 1439 c 0,11,12
 -216 1303 -216 1303 -412 1281 c 1,13,-1
 -423 1227 l 1,14,-1
 -472 1227 l 1,0,-1
EndSplineSet
EndChar

StartChar: uni030F
Encoding: 783 783 171
Width: 10
Flags: W
LayerCount: 2
Back
Fore
SplineSet
-468 1253 m 1,0,-1
 -541 1253 l 1,1,-1
 -784 1518 l 1,2,-1
 -699 1518 l 1,3,-1
 -468 1253 l 1,0,-1
-250 1253 m 1,4,-1
 -318 1253 l 1,5,-1
 -518 1518 l 1,6,-1
 -437 1518 l 1,7,-1
 -250 1253 l 1,4,-1
EndSplineSet
EndChar

StartChar: dotbelowcomb
Encoding: 803 803 172
Width: 10
Flags: W
LayerCount: 2
Back
Fore
SplineSet
-755 -216 m 0,0,1
 -752 -196 -752 -196 -733.5 -179 c 128,-1,2
 -715 -162 -715 -162 -694 -162 c 0,3,4
 -671 -162 -671 -162 -656.5 -180 c 128,-1,5
 -642 -198 -642 -198 -646 -220 c 0,6,7
 -649 -240 -649 -240 -668 -256.5 c 128,-1,8
 -687 -273 -687 -273 -708 -273 c 0,9,10
 -731 -272 -731 -272 -745 -255 c 128,-1,11
 -759 -238 -759 -238 -755 -216 c 0,0,1
EndSplineSet
EndChar

StartChar: tonos
Encoding: 900 900 173
Width: 509
Flags: W
LayerCount: 2
Back
Fore
SplineSet
467 1577 m 1,0,-1
 531 1577 l 1,1,-1
 386 1306 l 1,2,-1
 331 1306 l 1,3,-1
 467 1577 l 1,0,-1
EndSplineSet
EndChar

StartChar: dieresistonos
Encoding: 901 901 174
Width: 910
Flags: W
LayerCount: 2
Back
Fore
SplineSet
633 1657 m 1,0,-1
 715 1657 l 1,1,-1
 630 1418 l 1,2,-1
 571 1418 l 1,3,-1
 633 1657 l 1,0,-1
330 1423 m 0,4,5
 333 1443 333 1443 351.5 1460 c 128,-1,6
 370 1477 370 1477 391 1477 c 0,7,8
 414 1477 414 1477 428.5 1459 c 128,-1,9
 443 1441 443 1441 439 1419 c 0,10,11
 436 1399 436 1399 417 1382.5 c 128,-1,12
 398 1366 398 1366 377 1366 c 0,13,14
 354 1367 354 1367 340 1384 c 128,-1,15
 326 1401 326 1401 330 1423 c 0,4,5
762 1423 m 0,16,17
 765 1443 765 1443 783.5 1460 c 128,-1,18
 802 1477 802 1477 823 1477 c 0,19,20
 846 1477 846 1477 860 1459 c 128,-1,21
 874 1441 874 1441 871 1419 c 0,22,23
 867 1399 867 1399 848.5 1382.5 c 128,-1,24
 830 1366 830 1366 808 1366 c 0,25,26
 786 1367 786 1367 772 1384 c 128,-1,27
 758 1401 758 1401 762 1423 c 0,16,17
EndSplineSet
EndChar

StartChar: Gamma
Encoding: 915 915 176
Width: 1098
Flags: W
LayerCount: 2
Back
Fore
SplineSet
1164 1402 m 1,0,-1
 380 1402 l 1,1,-1
 137 0 l 1,2,-1
 84 0 l 1,3,-1
 335 1456 l 1,4,-1
 1172 1456 l 1,5,-1
 1164 1402 l 1,0,-1
EndSplineSet
Substitution2: "'c2sc' Capitals to Small Capitals in Cyrillic lookup 3 subtable" Gamma.c2sc
Substitution2: "'c2sc' Capitals to Small Capitals in Greek lookup 2 subtable" Gamma.c2sc
Substitution2: "'c2sc' Capitals to Small Capitals lookup 1 subtable" Gamma.c2sc
Substitution2: "'c2sc' Capitals to Small Capitals in Latin lookup 0 subtable" Gamma.c2sc
Position2: "'cpsp' Capital Spacing in Cyrillic lookup 3 subtable" dx=36 dy=0 dh=72 dv=0
Position2: "'cpsp' Capital Spacing in Greek lookup 2 subtable" dx=36 dy=0 dh=72 dv=0
Position2: "'cpsp' Capital Spacing lookup 1 subtable" dx=36 dy=0 dh=72 dv=0
Position2: "'cpsp' Capital Spacing in Latin lookup 0 subtable" dx=36 dy=0 dh=72 dv=0
EndChar

StartChar: Delta
Encoding: 8710 8710 177
AltUni2: 000394.ffffffff.0
Width: 1379
Flags: W
LayerCount: 2
Back
Fore
SplineSet
799 1455 m 1,0,-1
 863 1456 l 1,1,-1
 1211 0 l 1,2,-1
 -47 0 l 1,3,-1
 799 1455 l 1,0,-1
44 54 m 1,4,-1
 1142 54 l 1,5,-1
 840 1329 l 1,6,-1
 827 1402 l 1,7,-1
 782 1321 l 1,8,-1
 44 54 l 1,4,-1
EndSplineSet
Substitution2: "'c2sc' Capitals to Small Capitals in Cyrillic lookup 3 subtable" Delta.c2sc
Substitution2: "'c2sc' Capitals to Small Capitals in Greek lookup 2 subtable" Delta.c2sc
Substitution2: "'c2sc' Capitals to Small Capitals lookup 1 subtable" Delta.c2sc
Substitution2: "'c2sc' Capitals to Small Capitals in Latin lookup 0 subtable" Delta.c2sc
Position2: "'cpsp' Capital Spacing in Cyrillic lookup 3 subtable" dx=36 dy=0 dh=72 dv=0
Position2: "'cpsp' Capital Spacing in Greek lookup 2 subtable" dx=36 dy=0 dh=72 dv=0
Position2: "'cpsp' Capital Spacing lookup 1 subtable" dx=36 dy=0 dh=72 dv=0
Position2: "'cpsp' Capital Spacing in Latin lookup 0 subtable" dx=36 dy=0 dh=72 dv=0
EndChar

StartChar: Theta
Encoding: 920 920 178
Width: 1333
Flags: W
LayerCount: 2
Back
Fore
SplineSet
960 691 m 1,0,-1
 385 691 l 1,1,-1
 392 744 l 1,2,-1
 967 744 l 1,3,-1
 960 691 l 1,0,-1
560 -20 m 0,4,5
 430 -20 430 -20 331.5 39 c 128,-1,6
 233 98 233 98 179 211 c 128,-1,7
 125 324 125 324 121 465 c 0,8,9
 119 542 119 542 132 619 c 2,10,-1
 166 819 l 2,11,12
 199 1014 199 1014 292.5 1166 c 128,-1,13
 386 1318 386 1318 519.5 1397 c 128,-1,14
 653 1476 653 1476 808 1476 c 0,15,16
 939 1476 939 1476 1037.5 1416.5 c 128,-1,17
 1136 1357 1136 1357 1190 1243.5 c 128,-1,18
 1244 1130 1244 1130 1247 992 c 0,19,20
 1248 908 1248 908 1235 831 c 2,21,-1
 1201 630 l 2,22,23
 1170 446 1170 446 1078.5 295 c 128,-1,24
 987 144 987 144 853 62 c 128,-1,25
 719 -20 719 -20 560 -20 c 0,4,5
1195 979 m 0,26,27
 1192 1186 1192 1186 1090 1304 c 128,-1,28
 988 1422 988 1422 808 1422 c 0,29,30
 587 1422 587 1422 427.5 1255 c 128,-1,31
 268 1088 268 1088 221 817 c 2,32,-1
 186 613 l 2,33,34
 175 546 175 546 176 479 c 0,35,36
 176 274 176 274 278 154 c 128,-1,37
 380 34 380 34 560 34 c 0,38,39
 697 34 697 34 816.5 102 c 128,-1,40
 936 170 936 170 1022.5 305 c 128,-1,41
 1109 440 1109 440 1143 614 c 2,42,-1
 1182 833 l 2,43,44
 1195 906 1195 906 1195 979 c 0,26,27
EndSplineSet
Substitution2: "'c2sc' Capitals to Small Capitals in Cyrillic lookup 3 subtable" Theta.c2sc
Substitution2: "'c2sc' Capitals to Small Capitals in Greek lookup 2 subtable" Theta.c2sc
Substitution2: "'c2sc' Capitals to Small Capitals lookup 1 subtable" Theta.c2sc
Substitution2: "'c2sc' Capitals to Small Capitals in Latin lookup 0 subtable" Theta.c2sc
Position2: "'cpsp' Capital Spacing in Cyrillic lookup 3 subtable" dx=36 dy=0 dh=72 dv=0
Position2: "'cpsp' Capital Spacing in Greek lookup 2 subtable" dx=36 dy=0 dh=72 dv=0
Position2: "'cpsp' Capital Spacing lookup 1 subtable" dx=36 dy=0 dh=72 dv=0
Position2: "'cpsp' Capital Spacing in Latin lookup 0 subtable" dx=36 dy=0 dh=72 dv=0
EndChar

StartChar: Lambda
Encoding: 923 923 179
Width: 1284
Flags: W
LayerCount: 2
Back
Fore
SplineSet
772 1383 m 1,0,-1
 40 0 l 1,1,-1
 -20 0 l 1,2,-1
 748 1455 l 1,3,-1
 812 1456 l 1,4,-1
 1082 0 l 1,5,-1
 1025 0 l 1,6,-1
 772 1383 l 1,0,-1
EndSplineSet
Substitution2: "'c2sc' Capitals to Small Capitals in Cyrillic lookup 3 subtable" Lambda.c2sc
Substitution2: "'c2sc' Capitals to Small Capitals in Greek lookup 2 subtable" Lambda.c2sc
Substitution2: "'c2sc' Capitals to Small Capitals lookup 1 subtable" Lambda.c2sc
Substitution2: "'c2sc' Capitals to Small Capitals in Latin lookup 0 subtable" Lambda.c2sc
Position2: "'cpsp' Capital Spacing in Cyrillic lookup 3 subtable" dx=36 dy=0 dh=72 dv=0
Position2: "'cpsp' Capital Spacing in Greek lookup 2 subtable" dx=36 dy=0 dh=72 dv=0
Position2: "'cpsp' Capital Spacing lookup 1 subtable" dx=36 dy=0 dh=72 dv=0
Position2: "'cpsp' Capital Spacing in Latin lookup 0 subtable" dx=36 dy=0 dh=72 dv=0
EndChar

StartChar: Xi
Encoding: 926 926 180
Width: 1097
Flags: W
LayerCount: 2
Back
Fore
SplineSet
13 54 m 1,0,-1
 892 54 l 1,1,-1
 885 0 l 1,2,-1
 5 0 l 1,3,-1
 13 54 l 1,0,-1
236 741 m 1,4,-1
 898 741 l 1,5,-1
 891 687 l 1,6,-1
 229 687 l 1,7,-1
 236 741 l 1,4,-1
276 1456 m 1,8,-1
 1097 1456 l 1,9,-1
 1090 1403 l 1,10,-1
 269 1403 l 1,11,-1
 276 1456 l 1,8,-1
EndSplineSet
Substitution2: "'c2sc' Capitals to Small Capitals in Cyrillic lookup 3 subtable" Xi.c2sc
Substitution2: "'c2sc' Capitals to Small Capitals in Greek lookup 2 subtable" Xi.c2sc
Substitution2: "'c2sc' Capitals to Small Capitals lookup 1 subtable" Xi.c2sc
Substitution2: "'c2sc' Capitals to Small Capitals in Latin lookup 0 subtable" Xi.c2sc
Position2: "'cpsp' Capital Spacing in Cyrillic lookup 3 subtable" dx=36 dy=0 dh=72 dv=0
Position2: "'cpsp' Capital Spacing in Greek lookup 2 subtable" dx=36 dy=0 dh=72 dv=0
Position2: "'cpsp' Capital Spacing lookup 1 subtable" dx=36 dy=0 dh=72 dv=0
Position2: "'cpsp' Capital Spacing in Latin lookup 0 subtable" dx=36 dy=0 dh=72 dv=0
EndChar

StartChar: Pi
Encoding: 928 928 181
Width: 1405
Flags: W
LayerCount: 2
Back
Fore
SplineSet
1099 0 m 1,0,-1
 1045 0 l 1,1,-1
 1287 1402 l 1,2,-1
 387 1402 l 1,3,-1
 144 0 l 1,4,-1
 90 0 l 1,5,-1
 342 1456 l 1,6,-1
 1348 1456 l 1,7,-1
 1099 0 l 1,0,-1
EndSplineSet
Substitution2: "'c2sc' Capitals to Small Capitals in Cyrillic lookup 3 subtable" Pi.c2sc
Substitution2: "'c2sc' Capitals to Small Capitals in Greek lookup 2 subtable" Pi.c2sc
Substitution2: "'c2sc' Capitals to Small Capitals lookup 1 subtable" Pi.c2sc
Substitution2: "'c2sc' Capitals to Small Capitals in Latin lookup 0 subtable" Pi.c2sc
Position2: "'cpsp' Capital Spacing in Cyrillic lookup 3 subtable" dx=36 dy=0 dh=72 dv=0
Position2: "'cpsp' Capital Spacing in Greek lookup 2 subtable" dx=36 dy=0 dh=72 dv=0
Position2: "'cpsp' Capital Spacing lookup 1 subtable" dx=36 dy=0 dh=72 dv=0
Position2: "'cpsp' Capital Spacing in Latin lookup 0 subtable" dx=36 dy=0 dh=72 dv=0
EndChar

StartChar: Sigma
Encoding: 931 931 182
Width: 1097
Flags: W
LayerCount: 2
Back
Fore
SplineSet
667 768 m 1,0,-1
 38 54 l 1,1,-1
 923 54 l 1,2,-1
 916 0 l 1,3,-1
 -48 0 l 1,4,-1
 -41 44 l 1,5,-1
 619 791 l 1,6,-1
 195 1412 l 1,7,-1
 202 1456 l 1,8,-1
 237 1456 l 1,9,-1
 238 1453 l 1,10,-1
 238 1456 l 1,11,-1
 1108 1456 l 1,12,-1
 1100 1403 l 1,13,-1
 273 1403 l 1,14,-1
 674 814 l 1,15,-1
 667 768 l 1,0,-1
EndSplineSet
Substitution2: "'c2sc' Capitals to Small Capitals in Cyrillic lookup 3 subtable" Sigma.c2sc
Substitution2: "'c2sc' Capitals to Small Capitals in Greek lookup 2 subtable" Sigma.c2sc
Substitution2: "'c2sc' Capitals to Small Capitals lookup 1 subtable" Sigma.c2sc
Substitution2: "'c2sc' Capitals to Small Capitals in Latin lookup 0 subtable" Sigma.c2sc
Position2: "'cpsp' Capital Spacing in Cyrillic lookup 3 subtable" dx=36 dy=0 dh=72 dv=0
Position2: "'cpsp' Capital Spacing in Greek lookup 2 subtable" dx=36 dy=0 dh=72 dv=0
Position2: "'cpsp' Capital Spacing lookup 1 subtable" dx=36 dy=0 dh=72 dv=0
Position2: "'cpsp' Capital Spacing in Latin lookup 0 subtable" dx=36 dy=0 dh=72 dv=0
EndChar

StartChar: Phi
Encoding: 934 934 183
Width: 1428
Flags: W
LayerCount: 2
Back
Fore
SplineSet
852 1266 m 1,0,1
 1012 1262 1012 1262 1137 1192.5 c 128,-1,2
 1262 1123 1262 1123 1318 1005 c 128,-1,3
 1374 887 1374 887 1350 739 c 0,4,5
 1326 588 1326 588 1232 469 c 128,-1,6
 1138 350 1138 350 990 281.5 c 128,-1,7
 842 213 842 213 674 209 c 1,8,-1
 636 0 l 1,9,-1
 581 0 l 1,10,-1
 619 209 l 1,11,12
 461 213 461 213 337 282 c 128,-1,13
 213 351 213 351 156.5 470 c 128,-1,14
 100 589 100 589 124 737 c 0,15,16
 148 887 148 887 243 1006 c 128,-1,17
 338 1125 338 1125 484.5 1193.5 c 128,-1,18
 631 1262 631 1262 797 1266 c 1,19,-1
 832 1456 l 1,20,-1
 887 1456 l 1,21,-1
 852 1266 l 1,0,1
1295 739 m 0,22,23
 1320 874 1320 874 1270.5 980 c 128,-1,24
 1221 1086 1221 1086 1109 1147 c 128,-1,25
 997 1208 997 1208 848 1212 c 1,26,-1
 678 263 l 1,27,28
 914 270 914 270 1085 399.5 c 128,-1,29
 1256 529 1256 529 1295 739 c 0,22,23
179 737 m 0,30,31
 144 552 144 552 248.5 423 c 128,-1,32
 353 294 353 294 560 268 c 1,33,-1
 623 263 l 1,34,-1
 793 1212 l 1,35,36
 643 1208 643 1208 509.5 1146.5 c 128,-1,37
 376 1085 376 1085 290.5 979.5 c 128,-1,38
 205 874 205 874 179 737 c 0,30,31
EndSplineSet
Substitution2: "'c2sc' Capitals to Small Capitals in Cyrillic lookup 3 subtable" Phi.c2sc
Substitution2: "'c2sc' Capitals to Small Capitals in Greek lookup 2 subtable" Phi.c2sc
Substitution2: "'c2sc' Capitals to Small Capitals lookup 1 subtable" Phi.c2sc
Substitution2: "'c2sc' Capitals to Small Capitals in Latin lookup 0 subtable" Phi.c2sc
Position2: "'cpsp' Capital Spacing in Cyrillic lookup 3 subtable" dx=36 dy=0 dh=72 dv=0
Position2: "'cpsp' Capital Spacing in Greek lookup 2 subtable" dx=36 dy=0 dh=72 dv=0
Position2: "'cpsp' Capital Spacing lookup 1 subtable" dx=36 dy=0 dh=72 dv=0
Position2: "'cpsp' Capital Spacing in Latin lookup 0 subtable" dx=36 dy=0 dh=72 dv=0
EndChar

StartChar: Psi
Encoding: 936 936 184
Width: 1395
Flags: W
LayerCount: 2
Back
Fore
SplineSet
701 471 m 1,0,1
 909 481 909 481 1061 613 c 128,-1,2
 1213 745 1213 745 1250 957 c 2,3,-1
 1337 1456 l 1,4,-1
 1390 1456 l 1,5,-1
 1305 957 l 2,6,7
 1264 717 1264 717 1099.5 571.5 c 128,-1,8
 935 426 935 426 696 416 c 1,9,-1
 622 0 l 1,10,-1
 568 0 l 1,11,-1
 642 416 l 1,12,13
 493 424 493 424 388 492.5 c 128,-1,14
 283 561 283 561 238 679.5 c 128,-1,15
 193 798 193 798 217 946 c 2,16,-1
 304 1456 l 1,17,-1
 359 1456 l 1,18,-1
 272 946 l 2,19,20
 238 747 238 747 341 615 c 128,-1,21
 444 483 444 483 646 471 c 1,22,-1
 819 1456 l 1,23,-1
 873 1456 l 1,24,-1
 701 471 l 1,0,1
EndSplineSet
Substitution2: "'c2sc' Capitals to Small Capitals in Cyrillic lookup 3 subtable" Psi.c2sc
Substitution2: "'c2sc' Capitals to Small Capitals in Greek lookup 2 subtable" Psi.c2sc
Substitution2: "'c2sc' Capitals to Small Capitals lookup 1 subtable" Psi.c2sc
Substitution2: "'c2sc' Capitals to Small Capitals in Latin lookup 0 subtable" Psi.c2sc
Position2: "'cpsp' Capital Spacing in Cyrillic lookup 3 subtable" dx=36 dy=0 dh=72 dv=0
Position2: "'cpsp' Capital Spacing in Greek lookup 2 subtable" dx=36 dy=0 dh=72 dv=0
Position2: "'cpsp' Capital Spacing lookup 1 subtable" dx=36 dy=0 dh=72 dv=0
Position2: "'cpsp' Capital Spacing in Latin lookup 0 subtable" dx=36 dy=0 dh=72 dv=0
EndChar

StartChar: Omega
Encoding: 8486 8486 185
AltUni2: 0003a9.ffffffff.0
Width: 1291
Flags: W
LayerCount: 2
Back
Fore
SplineSet
646 78 m 1,0,1
 822 166 822 166 940 326 c 128,-1,2
 1058 486 1058 486 1104 712 c 0,3,4
 1140 888 1140 888 1140 981 c 0,5,6
 1140 1105 1140 1105 1097.5 1209.5 c 128,-1,7
 1055 1314 1055 1314 974.5 1368 c 128,-1,8
 894 1422 894 1422 783 1422 c 0,9,10
 656 1422 656 1422 544 1354 c 128,-1,11
 432 1286 432 1286 349.5 1155.5 c 128,-1,12
 267 1025 267 1025 233.5 862.5 c 128,-1,13
 200 700 200 700 196 600 c 1,14,-1
 196 541 l 2,15,16
 198 384 198 384 262.5 265.5 c 128,-1,17
 327 147 327 147 450 78 c 1,18,-1
 437 0 l 1,19,-1
 15 0 l 1,20,-1
 22 54 l 1,21,-1
 378 55 l 1,22,23
 149 226 149 226 142 541 c 0,24,25
 139 667 139 667 180 868.5 c 128,-1,26
 221 1070 221 1070 325 1219.5 c 128,-1,27
 429 1369 429 1369 575 1433 c 0,28,29
 673 1476 673 1476 782 1476 c 0,30,31
 905 1476 905 1476 998 1418 c 128,-1,32
 1091 1360 1091 1360 1141.5 1247 c 128,-1,33
 1192 1134 1192 1134 1194 996 c 0,34,35
 1195 888 1195 888 1156.5 699 c 128,-1,36
 1118 510 1118 510 1028 362 c 0,37,38
 905 159 905 159 708 53 c 1,39,-1
 1065 54 l 1,40,-1
 1057 0 l 1,41,-1
 633 0 l 1,42,-1
 646 78 l 1,0,1
EndSplineSet
Substitution2: "'c2sc' Capitals to Small Capitals in Cyrillic lookup 3 subtable" Omega.c2sc
Substitution2: "'c2sc' Capitals to Small Capitals in Greek lookup 2 subtable" Omega.c2sc
Substitution2: "'c2sc' Capitals to Small Capitals lookup 1 subtable" Omega.c2sc
Substitution2: "'c2sc' Capitals to Small Capitals in Latin lookup 0 subtable" Omega.c2sc
Position2: "'cpsp' Capital Spacing in Cyrillic lookup 3 subtable" dx=36 dy=0 dh=72 dv=0
Position2: "'cpsp' Capital Spacing in Greek lookup 2 subtable" dx=36 dy=0 dh=72 dv=0
Position2: "'cpsp' Capital Spacing lookup 1 subtable" dx=36 dy=0 dh=72 dv=0
Position2: "'cpsp' Capital Spacing in Latin lookup 0 subtable" dx=36 dy=0 dh=72 dv=0
EndChar

StartChar: alpha
Encoding: 945 945 186
Width: 1125
Flags: W
LayerCount: 2
Back
Fore
SplineSet
1009 1082 m 1,0,-1
 862 238 l 1,1,-1
 856 190 l 1,2,-1
 855 175 l 2,3,4
 847 33 847 33 942 33 c 0,5,6
 959 33 959 33 1010 42 c 1,7,-1
 1014 -8 l 1,8,9
 967 -21 967 -21 943 -21 c 0,10,11
 807 -21 807 -21 806 134 c 0,12,13
 805 176 805 176 811 217 c 1,14,15
 648 -21 648 -21 413 -21 c 0,16,17
 257 -21 257 -21 174.5 90 c 128,-1,18
 92 201 92 201 97 400 c 0,19,20
 98 462 98 462 107 521 c 2,21,-1
 120 587 l 1,22,23
 173 828 173 828 298.5 965 c 128,-1,24
 424 1102 424 1102 599 1102 c 0,25,26
 717 1102 717 1102 798 1032 c 128,-1,27
 879 962 879 962 911 837 c 1,28,-1
 914 855 l 1,29,-1
 961 1082 l 1,30,-1
 1009 1082 l 1,0,-1
163 521 m 1,31,-1
 152 416 l 1,32,33
 139 235 139 235 207 134 c 128,-1,34
 275 33 275 33 411 33 c 0,35,36
 545 33 545 33 665.5 123 c 128,-1,37
 786 213 786 213 826 343 c 1,38,-1
 889 694 l 1,39,40
 895 833 895 833 810 940.5 c 128,-1,41
 725 1048 725 1048 599 1048 c 0,42,43
 437 1048 437 1048 324.5 912.5 c 128,-1,44
 212 777 212 777 167 541 c 2,45,-1
 163 521 l 1,31,-1
EndSplineSet
Substitution2: "'ss02' Style Set 2 in Cyrillic lookup 26 subtable" alpha.ss02
Substitution2: "'ss02' Style Set 2 in Greek lookup 25 subtable" alpha.ss02
Substitution2: "'ss02' Style Set 2 lookup 24 subtable" alpha.ss02
Substitution2: "'ss02' Style Set 2 in Latin lookup 23 subtable" alpha.ss02
EndChar

StartChar: beta
Encoding: 946 946 187
Width: 1187
Flags: W
LayerCount: 2
Back
Fore
SplineSet
713 1476 m 0,0,1
 817 1476 817 1476 897.5 1427.5 c 128,-1,2
 978 1379 978 1379 1014 1292 c 128,-1,3
 1050 1205 1050 1205 1033 1102 c 0,4,5
 1014 986 1014 986 943.5 901 c 128,-1,6
 873 816 873 816 767 769 c 1,7,8
 867 743 867 743 931 677 c 128,-1,9
 995 611 995 611 1012 517 c 0,10,11
 1026 427 1026 427 998 326 c 128,-1,12
 970 225 970 225 899 145 c 128,-1,13
 828 65 828 65 728 22 c 128,-1,14
 628 -21 628 -21 513 -21 c 0,15,16
 402 -21 402 -21 309.5 23 c 128,-1,17
 217 67 217 67 167 148 c 1,18,-1
 68 -413 l 1,19,-1
 14 -413 l 1,20,-1
 133 284 l 1,21,-1
 137 318 l 1,22,-1
 139 319 l 1,23,-1
 265 1041 l 2,24,25
 298 1229 298 1229 425 1352.5 c 128,-1,26
 552 1476 552 1476 713 1476 c 0,0,1
980 1107 m 0,27,28
 1004 1244 1004 1244 928 1333 c 128,-1,29
 852 1422 852 1422 713 1422 c 0,30,31
 575 1422 575 1422 464 1317 c 128,-1,32
 353 1212 353 1212 321 1053 c 1,33,-1
 179 244 l 1,34,35
 206 145 206 145 298.5 89 c 128,-1,36
 391 33 391 33 512 33 c 0,37,38
 684 33 684 33 804 126.5 c 128,-1,39
 924 220 924 220 955 381 c 0,40,41
 985 542 985 542 894 638.5 c 128,-1,42
 803 735 803 735 614 735 c 2,43,-1
 486 735 l 1,44,-1
 493 791 l 1,45,-1
 580 791 l 2,46,47
 743 791 743 791 848 874 c 128,-1,48
 953 957 953 957 980 1107 c 0,27,28
EndSplineSet
EndChar

StartChar: gamma
Encoding: 947 947 188
Width: 959
Flags: W
LayerCount: 2
Back
Fore
SplineSet
932 1081 m 1,0,-1
 991 1081 l 1,1,-1
 398 0 l 1,2,-1
 326 -415 l 1,3,-1
 273 -415 l 1,4,-1
 345 7 l 1,5,-1
 124 1083 l 1,6,-1
 180 1083 l 1,7,-1
 358 225 l 1,8,-1
 382 77 l 1,9,-1
 461 229 l 1,10,-1
 932 1081 l 1,0,-1
EndSplineSet
EndChar

StartChar: delta
Encoding: 948 948 189
Width: 1097
Flags: W
LayerCount: 2
Back
Fore
SplineSet
338 1309 m 0,0,1
 354 1416 354 1416 461.5 1488 c 128,-1,2
 569 1560 569 1560 720 1563 c 0,3,4
 884 1565 884 1565 1010 1485 c 1,5,-1
 987 1438 l 1,6,7
 855 1509 855 1509 722 1509 c 0,8,9
 597 1509 597 1509 504.5 1455 c 128,-1,10
 412 1401 412 1401 392 1309 c 0,11,12
 359 1154 359 1154 571 1085 c 1,13,-1
 653 1061 l 1,14,15
 839 1013 839 1013 934 869.5 c 128,-1,16
 1029 726 1029 726 1001 542 c 2,17,-1
 997 518 l 2,18,19
 957 279 957 279 805.5 129.5 c 128,-1,20
 654 -20 654 -20 450 -20 c 0,21,22
 317 -20 317 -20 224 49 c 128,-1,23
 131 118 131 118 91 238.5 c 128,-1,24
 51 359 51 359 73 500 c 2,25,-1
 80 542 l 1,26,27
 116 733 116 733 237.5 867.5 c 128,-1,28
 359 1002 359 1002 524 1028 c 1,29,-1
 528 1041 l 1,30,31
 422 1090 422 1090 373.5 1158 c 128,-1,32
 325 1226 325 1226 338 1309 c 0,0,1
127 500 m 2,33,34
 113 415 113 415 125 332 c 0,35,36
 145 194 145 194 231.5 114 c 128,-1,37
 318 34 318 34 449 34 c 0,38,39
 625 34 625 34 762 165 c 128,-1,40
 899 296 899 296 940 500 c 1,41,-1
 947 542 l 2,42,43
 964 645 964 645 929.5 749.5 c 128,-1,44
 895 854 895 854 820 920.5 c 128,-1,45
 745 987 745 987 646 997 c 0,46,47
 537 1007 537 1007 430.5 951 c 128,-1,48
 324 895 324 895 243.5 784.5 c 128,-1,49
 163 674 163 674 137 551 c 2,50,-1
 127 500 l 2,33,34
EndSplineSet
EndChar

StartChar: epsilon
Encoding: 949 949 190
Width: 1098
Flags: W
LayerCount: 2
Back
Fore
SplineSet
63 290 m 0,0,1
 78 387 78 387 150.5 455.5 c 128,-1,2
 223 524 223 524 350 555 c 1,3,4
 252 591 252 591 205 656 c 128,-1,5
 158 721 158 721 170 802 c 0,6,7
 190 938 190 938 314 1020 c 128,-1,8
 438 1102 438 1102 621 1102 c 0,9,10
 730 1102 730 1102 819.5 1064 c 128,-1,11
 909 1026 909 1026 955 958 c 128,-1,12
 1001 890 1001 890 991 799 c 1,13,-1
 937 799 l 1,14,15
 952 912 952 912 861 980 c 128,-1,16
 770 1048 770 1048 621 1048 c 0,17,18
 471 1048 471 1048 368 991 c 128,-1,19
 265 934 265 934 235 837 c 0,20,21
 215 771 215 771 227 723 c 0,22,23
 264 580 264 580 554 580 c 2,24,-1
 698 580 l 1,25,-1
 690 525 l 1,26,-1
 523 525 l 1,27,28
 171 516 171 516 120 301 c 0,29,30
 107 244 107 244 117 201 c 0,31,32
 136 121 136 121 223.5 78 c 128,-1,33
 311 35 311 35 436 35 c 0,34,35
 598 35 598 35 716.5 107.5 c 128,-1,36
 835 180 835 180 866 301 c 1,37,-1
 921 300 l 1,38,39
 891 154 891 154 756 67 c 128,-1,40
 621 -20 621 -20 436 -20 c 0,41,42
 319 -20 319 -20 224.5 21 c 128,-1,43
 130 62 130 62 89.5 131 c 128,-1,44
 49 200 49 200 63 290 c 0,0,1
EndSplineSet
EndChar

StartChar: zeta
Encoding: 950 950 191
Width: 935
Flags: W
LayerCount: 2
Back
Fore
SplineSet
1033 1455 m 1,0,-1
 1027 1419 l 1,1,-1
 472 808 l 1,2,-1
 407 733 l 2,3,4
 232 528 232 528 199 341 c 0,5,6
 168 171 168 171 411 93 c 1,7,-1
 609 33 l 1,8,9
 762 -22 762 -22 743 -136 c 0,10,11
 732 -212 732 -212 679 -283 c 128,-1,12
 626 -354 626 -354 550 -392 c 1,13,-1
 515 -359 l 1,14,15
 581 -325 581 -325 629.5 -263 c 128,-1,16
 678 -201 678 -201 691 -135 c 0,17,18
 706 -56 706 -56 606 -22 c 2,19,-1
 558 -6 l 1,20,-1
 395 43 l 1,21,22
 115 135 115 135 147 341 c 0,23,24
 178 547 178 547 373 775 c 2,25,-1
 435 846 l 1,26,-1
 942 1403 l 1,27,-1
 201 1403 l 1,28,-1
 208 1456 l 1,29,-1
 1033 1455 l 1,0,-1
EndSplineSet
EndChar

StartChar: eta
Encoding: 951 951 192
Width: 1097
Flags: W
LayerCount: 2
Back
Fore
SplineSet
261 857 m 1,0,1
 412 1102 412 1102 664 1102 c 0,2,3
 795 1102 795 1102 867.5 1032.5 c 128,-1,4
 940 963 940 963 948 837 c 0,5,6
 953 754 953 754 939 671 c 2,7,-1
 751 -416 l 1,8,-1
 697 -416 l 1,9,-1
 886 679 l 2,10,11
 898 748 898 748 896 815 c 0,12,13
 893 926 893 926 834.5 987 c 128,-1,14
 776 1048 776 1048 666 1048 c 0,15,16
 514 1048 514 1048 394 942 c 128,-1,17
 274 836 274 836 232 667 c 1,18,-1
 117 0 l 1,19,-1
 63 0 l 1,20,-1
 249 1082 l 1,21,-1
 303 1082 l 1,22,-1
 261 857 l 1,0,1
EndSplineSet
EndChar

StartChar: theta
Encoding: 952 952 193
Width: 1156
Flags: W
LayerCount: 2
Back
Fore
SplineSet
475 -20 m 0,0,1
 361 -20 361 -20 283 37 c 128,-1,2
 205 94 205 94 168.5 205.5 c 128,-1,3
 132 317 132 317 138 460 c 1,4,-1
 146 556 l 1,5,-1
 196 851 l 2,6,7
 230 1048 230 1048 307 1193 c 128,-1,8
 384 1338 384 1338 490 1407.5 c 128,-1,9
 596 1477 596 1477 723 1477 c 0,10,11
 838 1477 838 1477 917.5 1418.5 c 128,-1,12
 997 1360 997 1360 1031 1246 c 128,-1,13
 1065 1132 1065 1132 1059 996 c 1,14,-1
 1049 888 l 1,15,-1
 1003 616 l 2,16,17
 951 312 951 312 813.5 146 c 128,-1,18
 676 -20 676 -20 475 -20 c 0,0,1
233 749 m 1,19,-1
 971 749 l 1,20,-1
 988 845 l 2,21,22
 1014 992 1014 992 1005 1106 c 0,23,24
 992 1264 992 1264 920 1343.5 c 128,-1,25
 848 1423 848 1423 723 1423 c 0,26,27
 542 1423 542 1423 418 1267.5 c 128,-1,28
 294 1112 294 1112 246 828 c 2,29,-1
 233 749 l 1,19,-1
962 695 m 1,30,-1
 224 695 l 1,31,-1
 201 564 l 1,32,-1
 193 479 l 2,33,34
 183 355 183 355 210 250 c 128,-1,35
 237 145 237 145 304 89.5 c 128,-1,36
 371 34 371 34 474 34 c 0,37,38
 652 34 652 34 774.5 185.5 c 128,-1,39
 897 337 897 337 947 612 c 2,40,-1
 962 695 l 1,30,-1
EndSplineSet
EndChar

StartChar: iota
Encoding: 953 953 194
Width: 558
Flags: W
LayerCount: 2
Back
Fore
SplineSet
302 1082 m 1,0,-1
 160 259 l 1,1,-1
 155 192 l 2,2,3
 148 49 148 49 277 46 c 0,4,5
 304 46 304 46 385 55 c 1,6,-1
 387 4 l 1,7,8
 341 -8 341 -8 278 -8 c 0,9,10
 108 -8 108 -8 101 167 c 0,11,12
 99 218 99 218 108 271 c 2,13,-1
 247 1082 l 1,14,-1
 302 1082 l 1,0,-1
EndSplineSet
EndChar

StartChar: lambda
Encoding: 955 955 195
Width: 1097
Flags: W
LayerCount: 2
Back
Fore
SplineSet
392 1518 m 0,0,1
 531 1521 531 1521 574 1343 c 2,2,-1
 588 1281 l 1,3,-1
 787 184 l 2,4,5
 813 49 813 49 900 49 c 0,6,7
 908 48 908 48 951 55 c 1,8,-1
 952 4 l 1,9,10
 917 -6 917 -6 898 -6 c 0,11,12
 829 -6 829 -6 787.5 42 c 128,-1,13
 746 90 746 90 725 211 c 2,14,-1
 587 1001 l 1,15,-1
 16 0 l 1,16,-1
 -44 0 l 1,17,-1
 571 1080 l 1,18,-1
 526 1321 l 2,19,20
 497 1464 497 1464 391 1464 c 1,21,-1
 341 1458 l 1,22,-1
 339 1508 l 1,23,24
 374 1518 374 1518 392 1518 c 0,0,1
EndSplineSet
EndChar

StartChar: xi
Encoding: 958 958 196
Width: 986
Flags: W
LayerCount: 2
Back
Fore
SplineSet
1043 1378 m 1,0,1
 921 1423 921 1423 790 1423 c 0,2,3
 622 1423 622 1423 509 1349 c 128,-1,4
 396 1275 396 1275 372 1148 c 0,5,6
 349 1025 349 1025 437 958 c 128,-1,7
 525 891 525 891 732 891 c 2,8,-1
 835 891 l 1,9,-1
 828 835 l 1,10,-1
 727 835 l 2,11,12
 503 835 503 835 353.5 730.5 c 128,-1,13
 204 626 204 626 170 445 c 0,14,15
 143 303 143 303 223.5 203.5 c 128,-1,16
 304 104 304 104 513 44 c 1,17,-1
 642 4 l 1,18,19
 782 -46 782 -46 764 -151 c 0,20,21
 754 -215 754 -215 704 -274 c 128,-1,22
 654 -333 654 -333 580 -370 c 1,23,-1
 550 -334 l 1,24,25
 692 -252 692 -252 712 -149 c 0,26,27
 724 -80 724 -80 621 -44 c 1,28,-1
 503 -8 l 2,29,30
 273 60 273 60 181 173.5 c 128,-1,31
 89 287 89 287 116 449 c 0,32,33
 142 612 142 612 264 725 c 0,34,35
 367 820 367 820 520 862 c 1,36,37
 414 898 414 898 358 972 c 128,-1,38
 302 1046 302 1046 316 1144 c 0,39,40
 339 1298 339 1298 469.5 1387 c 128,-1,41
 600 1476 600 1476 792 1476 c 0,42,43
 926 1476 926 1476 1055 1427 c 1,44,-1
 1043 1378 l 1,0,1
EndSplineSet
EndChar

StartChar: pi
Encoding: 960 960 197
Width: 1192
Flags: W
LayerCount: 2
Back
Fore
SplineSet
1172 1027 m 1,0,-1
 963 1027 l 1,1,-1
 831 271 l 1,2,-1
 824 192 l 2,3,4
 821 124 821 124 852 85.5 c 128,-1,5
 883 47 883 47 946 46 c 0,6,7
 973 46 973 46 1054 55 c 1,8,-1
 1056 4 l 1,9,10
 1011 -8 1011 -8 948 -8 c 0,11,12
 777 -8 777 -8 770 167 c 0,13,14
 768 219 768 219 777 271 c 2,15,-1
 908 1027 l 1,16,-1
 377 1027 l 1,17,-1
 199 0 l 1,18,-1
 146 0 l 1,19,-1
 322 1027 l 1,20,-1
 135 1027 l 1,21,-1
 142 1082 l 1,22,-1
 1180 1082 l 1,23,-1
 1172 1027 l 1,0,-1
EndSplineSet
EndChar

StartChar: rho
Encoding: 961 961 198
Width: 1097
Flags: W
LayerCount: 2
Back
Fore
SplineSet
656 1102 m 0,0,1
 761 1102 761 1102 834.5 1048.5 c 128,-1,2
 908 995 908 995 942 893 c 128,-1,3
 976 791 976 791 972 665 c 0,4,5
 969 607 969 607 957 521 c 0,6,7
 929 362 929 362 859.5 236 c 128,-1,8
 790 110 790 110 692 45 c 128,-1,9
 594 -20 594 -20 473 -20 c 0,10,11
 353 -20 353 -20 269 28.5 c 128,-1,12
 185 77 185 77 148 163 c 1,13,-1
 45 -416 l 1,14,-1
 -9 -416 l 1,15,-1
 170 625 l 2,16,17
 207 841 207 841 339.5 971.5 c 128,-1,18
 472 1102 472 1102 656 1102 c 0,0,1
161 261 m 1,19,20
 185 157 185 157 267 95.5 c 128,-1,21
 349 34 349 34 473 34 c 0,22,23
 584 34 584 34 669.5 94.5 c 128,-1,24
 755 155 755 155 813.5 261 c 128,-1,25
 872 367 872 367 905 542 c 1,26,-1
 917 649 l 1,27,28
 930 833 930 833 862.5 940.5 c 128,-1,29
 795 1048 795 1048 657 1048 c 0,30,31
 493 1048 493 1048 376 926.5 c 128,-1,32
 259 805 259 805 223 604 c 2,33,-1
 161 261 l 1,19,20
EndSplineSet
EndChar

StartChar: sigma1
Encoding: 962 962 199
Width: 1066
Flags: W
LayerCount: 2
Back
Fore
SplineSet
653 1102 m 0,0,1
 761 1102 761 1102 839.5 1054 c 128,-1,2
 918 1006 918 1006 953.5 917.5 c 128,-1,3
 989 829 989 829 974 720 c 1,4,-1
 921 720 l 1,5,6
 942 865 942 865 869 956.5 c 128,-1,7
 796 1048 796 1048 654 1048 c 0,8,9
 479 1048 479 1048 351 913.5 c 128,-1,10
 223 779 223 779 182 562 c 1,11,-1
 175 520 l 2,12,13
 159 424 159 424 175 346 c 0,14,15
 222 115 222 115 510 36 c 1,16,-1
 582 13 l 1,17,18
 716 -37 716 -37 692 -163 c 0,19,20
 681 -224 681 -224 633.5 -285 c 128,-1,21
 586 -346 586 -346 522 -379 c 1,22,-1
 489 -344 l 1,23,24
 542 -317 542 -317 583.5 -269.5 c 128,-1,25
 625 -222 625 -222 639 -163 c 0,26,27
 651 -108 651 -108 624 -74.5 c 128,-1,28
 597 -41 597 -41 499 -16 c 0,29,30
 283 40 283 40 185 179.5 c 128,-1,31
 87 319 87 319 119 520 c 2,32,-1
 124 550 l 2,33,34
 151 712 151 712 227 839 c 128,-1,35
 303 966 303 966 413 1034 c 128,-1,36
 523 1102 523 1102 653 1102 c 0,0,1
EndSplineSet
EndChar

StartChar: sigma
Encoding: 963 963 200
Width: 1093
Flags: W
LayerCount: 2
Back
Fore
SplineSet
1170 1027 m 1,0,-1
 835 1026 l 1,1,2
 917 974 917 974 964 888.5 c 128,-1,3
 1011 803 1011 803 1016 698 c 0,4,5
 1022 572 1022 572 982 436 c 128,-1,6
 942 300 942 300 866 198.5 c 128,-1,7
 790 97 790 97 684.5 38.5 c 128,-1,8
 579 -20 579 -20 454 -20 c 0,9,10
 302 -20 302 -20 202.5 73 c 128,-1,11
 103 166 103 166 80 325 c 0,12,13
 55 497 55 497 119 678 c 128,-1,14
 183 859 183 859 317.5 968 c 128,-1,15
 452 1077 452 1077 616 1082 c 1,16,-1
 1178 1082 l 1,17,-1
 1170 1027 l 1,0,-1
127 405 m 0,18,19
 130 239 130 239 217 136.5 c 128,-1,20
 304 34 304 34 453 34 c 0,21,22
 633 34 633 34 770.5 173.5 c 128,-1,23
 908 313 908 313 950 535 c 2,24,-1
 955 562 l 2,25,26
 969 646 969 646 957 730 c 0,27,28
 937 866 937 866 850.5 946.5 c 128,-1,29
 764 1027 764 1027 633 1027 c 0,30,31
 447 1027 447 1027 306 881 c 128,-1,32
 165 735 165 735 132 502 c 0,33,34
 125 455 125 455 127 405 c 0,18,19
EndSplineSet
EndChar

StartChar: tau
Encoding: 964 964 201
Width: 1006
Flags: W
LayerCount: 2
Back
Fore
SplineSet
1001 1027 m 1,0,-1
 578 1027 l 1,1,-1
 444 260 l 1,2,-1
 440 192 l 2,3,4
 438 120 438 120 474.5 77 c 128,-1,5
 511 34 511 34 580 33 c 0,6,7
 607 33 607 33 688 42 c 1,8,-1
 690 -8 l 1,9,10
 639 -21 639 -21 582 -21 c 0,11,12
 489 -20 489 -20 439 28.5 c 128,-1,13
 389 77 389 77 386 166 c 0,14,15
 384 220 384 220 393 279 c 2,16,-1
 523 1027 l 1,17,-1
 145 1027 l 1,18,-1
 153 1082 l 1,19,-1
 1009 1082 l 1,20,-1
 1001 1027 l 1,0,-1
EndSplineSet
EndChar

StartChar: upsilon
Encoding: 965 965 202
Width: 1051
Flags: W
LayerCount: 2
Back
Fore
SplineSet
299 1082 m 1,0,-1
 179 385 l 2,1,2
 168 323 168 323 171 260 c 0,3,4
 174 153 174 153 229 93.5 c 128,-1,5
 284 34 284 34 384 34 c 0,6,7
 580 34 580 34 711 214.5 c 128,-1,8
 842 395 842 395 857 710 c 1,9,-1
 859 802 l 1,10,11
 856 943 856 943 824 1083 c 1,12,-1
 888 1083 l 1,13,14
 912 941 912 941 913 803 c 0,15,16
 914 640 914 640 882 487.5 c 128,-1,17
 850 335 850 335 777.5 218 c 128,-1,18
 705 101 705 101 604.5 40.5 c 128,-1,19
 504 -20 504 -20 387 -20 c 0,20,21
 268 -20 268 -20 198.5 47.5 c 128,-1,22
 129 115 129 115 120 237 c 0,23,24
 114 315 114 315 127 393 c 2,25,-1
 245 1082 l 1,26,-1
 299 1082 l 1,0,-1
EndSplineSet
EndChar

StartChar: phi
Encoding: 966 966 203
Width: 1334
Flags: W
LayerCount: 2
Back
Fore
SplineSet
532 -20 m 1,0,1
 360 -10 360 -10 253.5 81.5 c 128,-1,2
 147 173 147 173 125 331 c 0,3,4
 106 456 106 456 142.5 607 c 128,-1,5
 179 758 179 758 265 882 c 128,-1,6
 351 1006 351 1006 477 1083 c 1,7,-1
 496 1037 l 1,8,9
 392 974 392 974 314 862.5 c 128,-1,10
 236 751 236 751 198 611 c 128,-1,11
 160 471 160 471 175 350 c 0,12,13
 192 209 192 209 285.5 127 c 128,-1,14
 379 45 379 45 536 34 c 1,15,-1
 686 887 l 2,16,17
 701 973 701 973 757 1026.5 c 128,-1,18
 813 1080 813 1080 885 1082 c 0,19,20
 984 1083 984 1083 1056 1031 c 128,-1,21
 1128 979 1128 979 1165 878 c 128,-1,22
 1202 777 1202 777 1202 662 c 0,23,24
 1199 481 1199 481 1119.5 327.5 c 128,-1,25
 1040 174 1040 174 899 82 c 128,-1,26
 758 -10 758 -10 586 -20 c 1,27,-1
 505 -479 l 1,28,-1
 451 -479 l 1,29,-1
 532 -20 l 1,0,1
590 33 m 1,30,31
 741 43 741 43 865.5 123 c 128,-1,32
 990 203 990 203 1066.5 342 c 128,-1,33
 1143 481 1143 481 1148 642 c 0,34,35
 1150 750 1150 750 1119 843.5 c 128,-1,36
 1088 937 1088 937 1028 984 c 128,-1,37
 968 1031 968 1031 886 1028 c 0,38,39
 833 1026 833 1026 794.5 989 c 128,-1,40
 756 952 756 952 742 893 c 2,41,-1
 590 33 l 1,30,31
EndSplineSet
EndChar

StartChar: psi
Encoding: 968 968 204
Width: 1335
Flags: W
LayerCount: 2
Back
Fore
SplineSet
770 1082 m 1,0,-1
 586 34 l 1,1,2
 773 45 773 45 907.5 152.5 c 128,-1,3
 1042 260 1042 260 1108 455 c 128,-1,4
 1174 650 1174 650 1149 841 c 0,5,6
 1132 965 1132 965 1080 1083 c 1,7,-1
 1144 1083 l 1,8,9
 1187 960 1187 960 1203 840 c 0,10,11
 1223 693 1223 693 1184.5 527.5 c 128,-1,12
 1146 362 1146 362 1063.5 242.5 c 128,-1,13
 981 123 981 123 859 55.5 c 128,-1,14
 737 -12 737 -12 582 -19 c 1,15,-1
 512 -415 l 1,16,-1
 458 -415 l 1,17,-1
 528 -19 l 1,18,19
 352 -8 352 -8 249.5 93 c 128,-1,20
 147 194 147 194 132 368 c 0,21,22
 122 478 122 478 142 596 c 2,23,-1
 226 1082 l 1,24,-1
 280 1082 l 1,25,-1
 195 588 l 2,26,27
 177 484 177 484 184 388 c 0,28,29
 194 231 194 231 283.5 138.5 c 128,-1,30
 373 46 373 46 532 35 c 1,31,-1
 716 1082 l 1,32,-1
 770 1082 l 1,0,-1
EndSplineSet
EndChar

StartChar: omega
Encoding: 969 969 205
Width: 1649
Flags: W
LayerCount: 2
Back
Fore
SplineSet
433 1081 m 1,0,1
 195 718 195 718 174 405 c 0,2,3
 166 306 166 306 188.5 217 c 128,-1,4
 211 128 211 128 266.5 81 c 128,-1,5
 322 34 322 34 403 34 c 0,6,7
 547 34 547 34 643.5 156 c 128,-1,8
 740 278 740 278 778 497 c 2,9,-1
 825 770 l 1,10,-1
 880 770 l 1,11,-1
 831 485 l 2,12,13
 813 375 813 375 818 291 c 0,14,15
 833 34 833 34 1038 34 c 0,16,17
 1165 34 1165 34 1263 137 c 128,-1,18
 1361 240 1361 240 1409.5 422.5 c 128,-1,19
 1458 605 1458 605 1442 795 c 0,20,21
 1429 942 1429 942 1380 1083 c 1,22,-1
 1444 1083 l 1,23,24
 1484 937 1484 937 1496 796 c 0,25,26
 1508 642 1508 642 1477.5 485 c 128,-1,27
 1447 328 1447 328 1382 211.5 c 128,-1,28
 1317 95 1317 95 1229.5 37.5 c 128,-1,29
 1142 -20 1142 -20 1040 -20 c 0,30,31
 922 -20 922 -20 850.5 50 c 128,-1,32
 779 120 779 120 766 251 c 1,33,34
 638 -20 638 -20 401 -20 c 0,35,36
 307 -20 307 -20 240.5 31 c 128,-1,37
 174 82 174 82 145 179.5 c 128,-1,38
 116 277 116 277 121 392 c 0,39,40
 126 545 126 545 186.5 721.5 c 128,-1,41
 247 898 247 898 365 1081 c 1,42,-1
 433 1081 l 1,0,1
EndSplineSet
EndChar

StartChar: theta1
Encoding: 977 977 206
Width: 1140
Flags: W
LayerCount: 2
Back
Fore
SplineSet
1125 719 m 1,0,1
 1042 691 1042 691 939 685 c 1,2,-1
 893 426 l 2,3,4
 854 208 854 208 733.5 94 c 128,-1,5
 613 -20 613 -20 428 -20 c 0,6,7
 295 -20 295 -20 210.5 52.5 c 128,-1,8
 126 125 126 125 108 254 c 0,9,10
 96 336 96 336 110 421 c 2,11,-1
 166 746 l 1,12,-1
 220 748 l 1,13,-1
 164 421 l 2,14,15
 151 344 151 344 158 274 c 0,16,17
 169 161 169 161 240 97.5 c 128,-1,18
 311 34 311 34 428 34 c 0,19,20
 591 34 591 34 695 129.5 c 128,-1,21
 799 225 799 225 836 416 c 2,22,-1
 886 686 l 1,23,24
 658 699 658 699 542.5 827 c 128,-1,25
 427 955 427 955 458 1156 c 1,26,27
 487 1317 487 1317 572.5 1406 c 128,-1,28
 658 1495 658 1495 772 1497 c 0,29,30
 897 1497 897 1497 958.5 1409.5 c 128,-1,31
 1020 1322 1020 1322 1014 1172 c 1,32,-1
 1005 1078 l 1,33,-1
 944 739 l 1,34,35
 1034 745 1034 745 1121 772 c 1,36,-1
 1125 719 l 1,0,1
512 1154 m 1,37,38
 481 969 481 969 582 861 c 128,-1,39
 683 753 683 753 890 740 c 1,40,-1
 952 1078 l 2,41,42
 967 1173 967 1173 962 1241 c 0,43,44
 947 1443 947 1443 773 1443 c 0,45,46
 681 1443 681 1443 611.5 1371.5 c 128,-1,47
 542 1300 542 1300 512 1154 c 1,37,38
EndSplineSet
EndChar

StartChar: Upsilon1
Encoding: 978 978 207
Width: 1083
Flags: W
LayerCount: 2
Back
Fore
SplineSet
1189 1467 m 0,0,1
 1242 1465 1242 1465 1288 1437 c 1,2,-1
 1261 1399 l 1,3,4
 1225 1419 1225 1419 1185 1420 c 0,5,6
 1078 1422 1078 1422 985 1284 c 2,7,-1
 943 1220 l 1,8,-1
 576 613 l 1,9,-1
 470 0 l 1,10,-1
 415 0 l 1,11,-1
 523 628 l 1,12,-1
 361 1226 l 1,13,-1
 346 1274 l 2,14,15
 298 1422 298 1422 195 1419 c 0,16,17
 151 1417 151 1417 107 1397 c 1,18,-1
 90 1441 l 1,19,20
 143 1465 143 1465 191 1467 c 0,21,22
 326 1470 326 1470 385 1310 c 1,23,-1
 408 1239 l 1,24,-1
 526 792 l 1,25,-1
 553 671 l 1,26,-1
 632 805 l 1,27,-1
 903 1252 l 1,28,-1
 945 1314 l 1,29,30
 1056 1470 1056 1470 1189 1467 c 0,0,1
EndSplineSet
EndChar

StartChar: omega1
Encoding: 982 982 208
Width: 1574
Flags: W
LayerCount: 2
Back
Fore
SplineSet
1610 1028 m 1,0,-1
 1418 1028 l 1,1,2
 1448 895 1448 895 1455 767 c 0,3,4
 1464 571 1464 571 1409.5 382.5 c 128,-1,5
 1355 194 1355 194 1247 87 c 128,-1,6
 1139 -20 1139 -20 997 -20 c 0,7,8
 878 -20 878 -20 807 51.5 c 128,-1,9
 736 123 736 123 723 249 c 1,10,11
 593 -20 593 -20 359 -20 c 0,12,13
 224 -20 224 -20 151.5 77.5 c 128,-1,14
 79 175 79 175 77 354 c 1,15,-1
 78 392 l 2,16,17
 83 532 83 532 138 703.5 c 128,-1,18
 193 875 193 875 292 1029 c 1,19,-1
 110 1028 l 1,20,-1
 118 1083 l 1,21,-1
 1618 1083 l 1,22,-1
 1610 1028 l 1,0,-1
1399 766 m 0,23,24
 1390 897 1390 897 1358 1028 c 1,25,-1
 358 1028 l 1,26,27
 257 871 257 871 198.5 711 c 128,-1,28
 140 551 140 551 131 405 c 0,29,30
 123 306 123 306 145.5 217 c 128,-1,31
 168 128 168 128 223.5 81 c 128,-1,32
 279 34 279 34 360 34 c 0,33,34
 506 34 506 34 601.5 156.5 c 128,-1,35
 697 279 697 279 736 508 c 2,36,-1
 781 772 l 1,37,-1
 837 772 l 1,38,-1
 789 487 l 1,39,-1
 782 453 l 2,40,41
 774 410 774 410 772 363 c 0,42,43
 763 212 763 212 820 123 c 128,-1,44
 877 34 877 34 994 34 c 0,45,46
 1117 34 1117 34 1213.5 131.5 c 128,-1,47
 1310 229 1310 229 1361 403.5 c 128,-1,48
 1412 578 1412 578 1399 766 c 0,23,24
EndSplineSet
EndChar

StartChar: uni0402
Encoding: 1026 1026 209
Width: 1478
Flags: W
LayerCount: 2
Back
Fore
SplineSet
1286 1402 m 1,0,-1
 693 1402 l 1,1,-1
 583 789 l 1,2,3
 783 880 783 880 957 880 c 0,4,5
 1173 880 1173 880 1278.5 753 c 128,-1,6
 1384 626 1384 626 1348 415 c 0,7,8
 1328 295 1328 295 1254 199 c 128,-1,9
 1180 103 1180 103 1067.5 48 c 128,-1,10
 955 -7 955 -7 827 -11 c 1,11,-1
 834 40 l 1,12,13
 1013 47 1013 47 1143.5 159 c 128,-1,14
 1274 271 1274 271 1298 445 c 0,15,16
 1309 520 1309 520 1296 584 c 0,17,18
 1273 699 1273 699 1183.5 763 c 128,-1,19
 1094 827 1094 827 957 827 c 0,20,21
 857 827 857 827 763.5 800 c 128,-1,22
 670 773 670 773 579 735 c 1,23,-1
 451 0 l 1,24,-1
 397 0 l 1,25,-1
 639 1402 l 1,26,-1
 204 1402 l 1,27,-1
 211 1456 l 1,28,-1
 1293 1456 l 1,29,-1
 1286 1402 l 1,0,-1
EndSplineSet
Substitution2: "'c2sc' Capitals to Small Capitals in Cyrillic lookup 3 subtable" uni0402.c2sc
Substitution2: "'c2sc' Capitals to Small Capitals in Greek lookup 2 subtable" uni0402.c2sc
Substitution2: "'c2sc' Capitals to Small Capitals lookup 1 subtable" uni0402.c2sc
Substitution2: "'c2sc' Capitals to Small Capitals in Latin lookup 0 subtable" uni0402.c2sc
Position2: "'cpsp' Capital Spacing in Cyrillic lookup 3 subtable" dx=36 dy=0 dh=72 dv=0
Position2: "'cpsp' Capital Spacing in Greek lookup 2 subtable" dx=36 dy=0 dh=72 dv=0
Position2: "'cpsp' Capital Spacing lookup 1 subtable" dx=36 dy=0 dh=72 dv=0
Position2: "'cpsp' Capital Spacing in Latin lookup 0 subtable" dx=36 dy=0 dh=72 dv=0
EndChar

StartChar: uni0404
Encoding: 1028 1028 210
Width: 1295
Flags: W
LayerCount: 2
Back
Fore
SplineSet
1128 445 m 1,0,1
 1068 229 1068 229 916.5 104.5 c 128,-1,2
 765 -20 765 -20 549 -20 c 0,3,4
 422 -20 422 -20 327.5 40 c 128,-1,5
 233 100 233 100 182.5 214 c 128,-1,6
 132 328 132 328 132 469 c 0,7,8
 131 548 131 548 144 625 c 2,9,-1
 177 820 l 2,10,11
 226 1109 226 1109 394 1292.5 c 128,-1,12
 562 1476 562 1476 798 1476 c 0,13,14
 1007 1476 1007 1476 1122 1352.5 c 128,-1,15
 1237 1229 1237 1229 1227 1012 c 1,16,-1
 1174 1012 l 1,17,18
 1182 1205 1182 1205 1084 1313.5 c 128,-1,19
 986 1422 986 1422 799 1422 c 0,20,21
 592 1422 592 1422 440 1261.5 c 128,-1,22
 288 1101 288 1101 233 834 c 2,23,-1
 219 766 l 1,24,-1
 845 766 l 1,25,-1
 838 712 l 1,26,-1
 213 712 l 1,27,-1
 196 619 l 2,28,29
 185 554 185 554 185 485 c 0,30,31
 183 353 183 353 226 248 c 128,-1,32
 269 143 269 143 352.5 88.5 c 128,-1,33
 436 34 436 34 548 34 c 0,34,35
 744 34 744 34 879 142 c 128,-1,36
 1014 250 1014 250 1074 445 c 1,37,-1
 1128 445 l 1,0,1
EndSplineSet
Substitution2: "'c2sc' Capitals to Small Capitals in Cyrillic lookup 3 subtable" uni0404.c2sc
Substitution2: "'c2sc' Capitals to Small Capitals in Greek lookup 2 subtable" uni0404.c2sc
Substitution2: "'c2sc' Capitals to Small Capitals lookup 1 subtable" uni0404.c2sc
Substitution2: "'c2sc' Capitals to Small Capitals in Latin lookup 0 subtable" uni0404.c2sc
Position2: "'cpsp' Capital Spacing in Cyrillic lookup 3 subtable" dx=36 dy=0 dh=72 dv=0
Position2: "'cpsp' Capital Spacing in Greek lookup 2 subtable" dx=36 dy=0 dh=72 dv=0
Position2: "'cpsp' Capital Spacing lookup 1 subtable" dx=36 dy=0 dh=72 dv=0
Position2: "'cpsp' Capital Spacing in Latin lookup 0 subtable" dx=36 dy=0 dh=72 dv=0
EndChar

